<mxfile host="app.diagrams.net" modified="2023-09-21T21:38:01.545Z" agent="Mozilla/5.0 (Windows NT 10.0; Win64; x64) AppleWebKit/537.36 (KHTML, like Gecko) Chrome/116.0.0.0 Safari/537.36" etag="i7hjqhDU1gYK2KCZGoKD" version="21.8.0" type="github">
  <diagram name="Page-1" id="6_2n3fAXV3BffSLL0dP4">
    <mxGraphModel dx="1050" dy="591" grid="1" gridSize="10" guides="1" tooltips="1" connect="1" arrows="1" fold="1" page="1" pageScale="1" pageWidth="850" pageHeight="1100" math="0" shadow="0">
      <root>
        <mxCell id="0" />
        <mxCell id="1" parent="0" />
        <mxCell id="IPrCYm6E3xCLuTnceemR-16" value="" style="shape=singleArrow;direction=south;whiteSpace=wrap;html=1;arrowWidth=0.507763926188151;arrowSize=0.2397550106048584;fillColor=#ffcc99;strokeColor=#36393d;" vertex="1" parent="1">
          <mxGeometry x="110" y="260" width="120" height="230" as="geometry" />
        </mxCell>
        <mxCell id="IPrCYm6E3xCLuTnceemR-55" style="edgeStyle=orthogonalEdgeStyle;rounded=0;orthogonalLoop=1;jettySize=auto;html=1;fillColor=#f8cecc;strokeColor=#b85450;flowAnimation=1;strokeWidth=2;" edge="1" parent="1" source="HBNp4rY9nTRqI35zbJ0y-1">
          <mxGeometry relative="1" as="geometry">
            <mxPoint x="70" y="130" as="targetPoint" />
          </mxGeometry>
        </mxCell>
        <mxCell id="HBNp4rY9nTRqI35zbJ0y-1" value="" style="dashed=0;outlineConnect=0;html=1;align=center;labelPosition=center;verticalLabelPosition=bottom;verticalAlign=top;shape=mxgraph.weblogos.gmail" parent="1" vertex="1">
          <mxGeometry x="260" y="170" width="64.8" height="46.800000000000004" as="geometry" />
        </mxCell>
        <mxCell id="HBNp4rY9nTRqI35zbJ0y-3" style="edgeStyle=orthogonalEdgeStyle;orthogonalLoop=1;jettySize=auto;html=1;flowAnimation=1;exitX=1;exitY=0.5;exitDx=0;exitDy=0;fillColor=#60a917;strokeColor=#2D7600;rounded=1;strokeWidth=2;" parent="1" source="IPrCYm6E3xCLuTnceemR-7" target="HBNp4rY9nTRqI35zbJ0y-1" edge="1">
          <mxGeometry relative="1" as="geometry">
            <mxPoint x="100" y="120" as="sourcePoint" />
            <mxPoint x="102.40000000000009" y="255.9" as="targetPoint" />
            <Array as="points">
              <mxPoint x="310" y="78" />
            </Array>
          </mxGeometry>
        </mxCell>
        <mxCell id="HBNp4rY9nTRqI35zbJ0y-6" value="" style="rounded=1;whiteSpace=wrap;html=1;arcSize=9;dashed=1;" parent="1" vertex="1">
          <mxGeometry x="250" y="320" width="290" height="120" as="geometry" />
        </mxCell>
        <mxCell id="OuTpp7gKNCbVnQCvF9Cy-1" value="" style="sketch=0;pointerEvents=1;shadow=0;dashed=0;html=1;strokeColor=#10739e;fillColor=#b1ddf0;labelPosition=center;verticalLabelPosition=bottom;outlineConnect=0;verticalAlign=top;align=center;shape=mxgraph.office.clouds.cloud;fontStyle=1;" parent="1" vertex="1">
          <mxGeometry x="260" y="415" width="30" height="20" as="geometry" />
        </mxCell>
        <mxCell id="OuTpp7gKNCbVnQCvF9Cy-2" value="&lt;font color=&quot;#27b5f1&quot;&gt;SAP Business Technology Platform&lt;/font&gt;" style="text;html=1;align=center;verticalAlign=middle;whiteSpace=wrap;rounded=0;fontStyle=1;" parent="1" vertex="1">
          <mxGeometry x="293" y="418" width="210" height="20" as="geometry" />
        </mxCell>
        <mxCell id="OuTpp7gKNCbVnQCvF9Cy-3" value="" style="shape=image;verticalLabelPosition=bottom;labelBackgroundColor=default;verticalAlign=top;aspect=fixed;imageAspect=0;image=data:image/png,iVBORw0KGgoAAAANSUhEUgAAAJkAAACYCAYAAAD3AEsfAAAAAXNSR0IArs4c6QAAAARnQU1BAACxjwv8YQUAAAAJcEhZcwAAFxEAABcRAcom8z8AACt1SURBVHhe7V0HeBTV2g5NrFiuKFdQ7BSld7BgQQURr3p/O4IgkIRESiD0DtJBIl0QCEV6770KppFGQhrphFTSICHt+7/37Kx3M8xstmY3uu/zfE9gd87szDnvfO1854wTOeCAleEgmQNWh4NkDlgdDpI5YHU4SOaA1eEgmQNWh4NkDlgdDpI5YHU4SOaA1eEgmQNWx9+eZIWFdygjK4fik9IpPOY6BUUmkc+VePIJjadg/ndcUhqlZ2aL4xywDv5WJCsrKaWwqCRat/cijV6wh/qN8aYezoup/Vez6LkPJ9AjXT3pni4e5NR6CDm1dKfar42gZ3tMoLZfzhTHDZ6wiWb+dpQuXo5i0hVJZ3XAXFR5kqVn5dKRMyHkOnUjvfrRdKr39lhyasskajSInBo7k1PzweTU6kf+bCg5dRhGTh2Hk1MnJlpnFvy7HX/emr9vxse9zG2autCjXUZSk55TadjsrXTeJ5JuFzi0nDmosiSLS06nGcsPUpvPZpBTE1cmkxuTxV1DGpCItdRf0sUAEceO1Py7PZNRSzzWeB/8sIgWbTpNuXm3pV93wBhUOZKlZ+bSBK891PDdcUwu1lQtmFhywlhSoPFAtiYu1OTj6fTLxpOUe6tAuhoHDEGVItn2Q37UvOcUYdKc2rBJBAkM1VTmCDQcyNaKCf2KK73+9Vw6e+mqdFUOVIQqQbLc24Xk8dNWqtGMTSLMYmUQS5+86kp12KSOW7THESAYALsnWXxyJr3RdyE78eyUd2BHXes36ROtLwbtA2cfflo71nwICLSCz+B7wfnXtpGfR01wDe25PQcKvQYtptiENOlqHVCCXZPsWnwatfn4J02UqDTYctESC34aoks2bw9ypPjEm2Oo/pvj6Oluk4Q06DqennhjDD3ymifVbMdEe5XNL/w7OPva88jPrSZ8bS3+M40uh8VLV+2AHHZLssTrmdTuEyYYBt8Q7QWNBQedzWmHr+dQ31HetHDdMTrvF0FxiWmUdTOf8m4VUT7LzZxbFJeUTgGhsbTziC95stn7ethqavLJNGEKnV7h80DTdebzVkQ4fM+/27DbOPIJiZWu3gFd2CXJ8m7foU5aE/m6HoJhgGHu2Bmv09GDenuupoNnQynzZq50JuOQkJJBe08F06AJ3qzpRovzCu1mCMlbuFG9d8bQpaAY6WwOaGF3JCstLSX3GZs1GkxpMLUCgrV0p+psEr/z/I38Qq5JZ7AMEpLThWP/3LvjOZplsoHM+rQaiNjMlZr2mkqxSQ4fTRd2R7KNey5RTX2Dis/gdzEJW/aaRvtPB0ktrYPo+FRynrSBakGjMan1E42FfbSe/b2o4I4j6tTCrkiWmJJJ9d6boJkGUjJRGMROTL6mLtRr6EpKupEltbQ+9p8MokYfTtb4bCC5/Nr+Ev6Og46xXnullg7YFckGjl8vMuvKg8cC7caDPHTWVrpTVCy1qjzEczDy+ZAVGvMJsqs9CByE1G47lE5dCpda/rNhNyS75B9NdTCJjdyVfOAgiPSYYB5zt0ktbIPCO3doyJRNrK34YQDRlK4V0nwwtf92HkezjikoOyFZmXDehRZTiiahHfi7j9xXUFFxidTGdigqLqZh07doprf0mU6+5qUbTkmtDENpSQndYX+ukKWItXVZWan0TdWFXZAsKCye7uvAg6XNvsuFI8hXekwWuTN7QTETrc8o6cGAHya/ZjwY7Fs2+nAKZWSqp1SCIxJp+5HLtGjtcXKdspE+GbKM3uy3gDp/N5feHbiIvhixkobN3EJe607S7pPBFJOQKrWsOrALkg2azOYHDrV8oCAgXgt3OnA2RDrafpCZnUed+8zTXDtIpXT97L8t31RemyUmZ9DsNUfoo0FL6Il3x2jygY2cNclkTMIjkm3Doo1okRzG96+40vMfTqL/G7KSft16Ri957Qk2J1liSgY9y1pKdK58gOBYs0n6fuw66Wj7w5WoZKrb2VMzH6pEtJZu1OGrueLYq9HXacjUTZpEL4opX2EtiJkFtMO9qhFVfC/9G9UnMNP84DXkSHz6kn10LSldnN9eYXOSee/6Q9Np8o6F8MA90XUMRcbdkI62T/yy4YSGMEr+GWvi+9/wpM88VlEDpGcwD4vJdRyrRqqKBO1QmAlisxZ8kc+7xPuEXfirSrApycrKyuiHCd7CpCh2+KuDyX3G79LR9gukU976boFyGZKWEDCp0Fr6pslMEWhAWAF+UN/7wYvCo5Kkq7If2JRkWVn5VP+dccppi07D6T7WAkHhCdLR9o1j50OpGvwnEEp+L9YWEBmakR/Whl1H045jl6Wrsg/YlGTnfSN5YFjld5ZFleg0dnI/G7ZSzGVWBZSwqerpslhoX7O1lTC7kuhLkchF0mqYAlu09Zx0ZbaHTUk2fcV+japHolXeYU2daclG43JMtsbWgz5UHRGi/F7UBKRA9Iw+4ABB/EUtXHOOKlEF3AyfS99BoPHRRulcWsEDCrPcwo2W7bggXZltYVOSvTdoqahcuKuj2g6lf78zliO3ROnIqoGbOfnU7L8zxQDfdU+6oiXCywOpBhPnlY+m0buuS2jy4j20attZMU968kIYHTgVzP8/Q/0nelOr/86iBztxOxRjCrLpnE8u+I77EFNbh84GS1dnO9iMZHn5t6nVZyoDwuF9hy/nUkmJfUZL+jDBa6/GyZdrZy0pkP9iV6DB++Np+PQttPNYAOXm3ZJaq6O0pJROXLxCP07bTHXfGCXOoTp/CsHnrAWf7zaeomJTpLPYBjYj2ZXIRKr/wXjxxN3VQUyy3mPWSkdWLVyLT6WHO/MAo1JXez8YcKQbmrjQC90n0eyVhyk+OUNqYTyQb/t6xGqqAXOKvJkq0VgaO9P7rkttUlCghc1Itu34ZaqJp1oejcHRbcWOq/cx6ciqh37j12m0GQIA5MSaulCDrmNootc+SsvIkY4yH97bL9BD7eHTcT+qEQ39yeReu/281KryYTOSLV5/hpye/+HuSEwi2W42I1UV+9iXqo6kaxNn+hdrNY/pmyk6zjpzjvvOhdKDMJ9qZeKS2Xz5oymUeTNPalW5sBnJZi8/TE4vDlQkWbVWQ+isT4R0ZNVD/u0Ceq3PfPqP81LyD42TPrUeDjDRHm7D5lltagvCPtyCtbaxDjYj2ah5uzRTLPJOYZJVbzmELl2u2gsy4lKyqKQSy3RW/H5aM8Gu25e6wgFWSw60CgoKpRaVB5uRzHnKRk2EpESyFlWfZJWN4uIS6uW+TOpTBbPZcTjdy5puj5XXRCjBJiRDIV7v0b9pnjwFkmEW4Myf1t1rIi27iA4F3KR5B67TmK0JNHJzAnnKRPvZrL3JtMc3k65n2fcWUpcCoulhrLJXmqYD8V4aSCPm7pCOrjzYTJN9LyIwZZI5Mcl2HPGTjrQsiopKaeHhFHrBM5hq/uBHToP8yWkg/9UnfEwNPraBRxDN2Hed8m7bLh1QEXq5LtWUEen2KQT9zAFV52/nVnpJuM1IpgnzVUjGnbF04wnpSMsh91Yx9VkeQ059fMjJxZ/udb9M90F+rED4GBxbzZUJ2deXei2IpNSb9rnkbethX01KQ2minj+r3m4oXYm+Lh1dOah0kh1nMzhp4W56psfE8glLrQhN5k7jvXZJLSyDsjIilzWxgiS1mTAPDLlM9zOBjJEHWEA4nOObpdFUXMIntTMkp96kR14fpWwyIeyXdeu7gHYfCai04oNKIRmyzbuP+tOHAxdTbdz8ywM1BJNrMa20dKPeEyxbDXsk6CbVGMhmb3CAIoGMkVpuAeTU35c2XLC/ilQsPnnf2UtK0Cr0LT6DL9zcjcn2M53xsf4+a1Yn2ak/wumDvgupuqgq4JsTk7sK0Y+usE/x1oBfpDOYj5LSMuq98ho5fe9L95ugwe4SPgdI9tHPkVRUbH/abBQ7906NXdT7GZ9j3vNVV6rVfjh5zt1JObkVz5+aCquRDLvoDJ+1le5rNUQTVsMMKt2wkvBT1vHzuRZT5ykcFTadEEpOzv53EQZmUzj//dnBRyCgK/iMtR/MpLxdddcAqucRSBHJ9reP7KrN58np+QEV17VBq8GiNHKm13rPI98r1tn+yiok8wu+Rh0+nakpS8FNGFrEp1XvrMkafziVsnPypTOah6tMhH8NZWIomMrabPraTA+jnqyV3mOHXlc+5M86/BQujpG3u8edTSaT9ny0baZq9OHQuRByaiFZDXkfKwn6/RUXqtt1NB06GyqdxXKwOMm2HPKlJ1/31ESOSjekJCAhNB3KftikYsOV9l/NoYwsyyz5Ck+6TY+wxlLyx6Cxdl++KR15N85F5QkyweHXbScCAP78DH9vb0hNz9ZsvYW1E6jXQ2FkRS4KiNbKneq0HkY7D/tLZ7IMLEqy+RtPUXVM1KpN1soFxELxHqaXWHu1/nQG9Z20gY6cDaasnFtUipDQAgDJHtVDsj2B6iQ7H5Ovl2Rn7ZBkQO6tQtqw7xK93e9nqo4gwBCXBWPGY/dg66EWJZrFSDZn/SmqBk0E0mjNnpIIp5NvFgnD5u70dPdJNGLmVtp5NICysq0zYBWRbJceTQYSVUWSaYEVYYfPhIiNYgTZsKJK3w6SkkZ7rN1wOuMfLZ3FPFiEZJsP+rCpc2eC6akCgEg3gGO7fDuPftv1B5tE6w/SP5lkWiCI2ncqUGx1KiLPjnr8NSiClm7U8MNJ4qUc5sJskmHf1bpI/qEAUfXp4IvGTTV1oeafzKCt7LdVZmm1g2T/A8reR87bqcmjVVRVy+P1qetSKjBzG3mzSHaTL7jj57M1VaD6CMY3U6uZG42as50ys62Xj1FDRSTbrc8n4+jx70QyLdbtuUSPCcuix3+GD/fyIPJaf1JqZRrMItnI+Uj6KdSEaQUXzzfxSHsP2rjrotSq8gGS6Ysu9wdnS0fejXPR7Pi7BKiSzB6jS0NxlAOseojsRaCmNH4sbYdQ/bfGiu3uTYXJJPMJiqH7UY2pNP8oLpAvvqU7PdrZkw6euyK1sg0irhfQE8MDVfJkl6njzHDquSiKevwcWU56LoqkzrPCxVznXe34s3tcA+gSR5+WQsyNAlpzOo0Ge8fSp4ujqPvC8tejFXz++dIomrwjkQ4F3aT8AtNdD/hpWKkv1iIojSOEFcmAiRukFsbDJJIVsz8lSkr0VWLyE/AIk/DQadtv+XQj6w41mxgqKi/kZEE2H5+LrL+SKLSBVGOC1R8RRFEWyPiXlZbR/APX6Vk+HybfMcugeC1yYS2MWYl3Zl2l02GmL1Dx2nhKk1NTS3G0G0qPdBpBvux/mwKTSHb4TDDVhC3HE6B0UXyxWEm98vczUgvbopQH8fNlMWLu0pTqC7kIYvbzFRoF9WnmoJDbDxDVIT5Ujc2vsXOrKEXCtfzLLYB2+5q+SWCfUWtE1l/RP8NnjZzJfRo2vzE+d2k0yRAVfjFspWaHQaXpIthxjkq+HbPWrvax2O6XRbVZQ9yjMEVkrMBUVu/vS7+dMT+8n7k3WZDfrOtiYqK4sh5fV2CcaYFVfHI6PfX2OE3EKR9TSPthVO+dcXQ9VT1IUoPRJLsSmUz3Yq2fmhZjJxIvWIgzY/GqVVBWRt+tuiYKFu/lgVGa9DZEhObgc3zsFWV2PdkVDkhwHbXY9Jp6PVoRE/39/Ogz9uVE8ZwJmLvqsGZmQGl7UpjSZm60arvxG7kYTbIxi3Zrssbyi9AKX+S8NUelo+0LqblFYuIb5gWRoXDoYZ50RWEA8TmOhTmD1mk7I4ziM8yv9/9pD2sx9qsUfxMivzZdUTi+Jgc2D/Pf6BTTyqux8Bi7N6om1ZsPpg9MKMEyimQwfx0+n6OZ4ZdfAISd/ed7TKqULL6puF1YStN3J1HDkcHkNIAd5+98NM42k0f8ZQLew4SCZoF2QPQpyrXZHDX0CKIRG+Mp45ZlEsmvz4sQ55WTRWglEBq/i2uSC18rSC/XfrjWWtzudzOKKScs2qOpnlHyzdhKPfvBJEo0chbAKJIhu//4m6M085PyCwDzXx5Ek5YckI62DO4Ul5FfdC7t8skk7/PptF5FNv6RQSdCsikt2zANk5x5h349lUojfk8kF+94cl4XT+4bEqjvqlh6bHgg+0g8YKwZnvIMJo9NCeLYhHTLrVnkWIRaTQ9XJBnMZ+upYTRMujZdceNrxN8nOBLF9em2wzoEp0F+5HXY9A1WzvtHUh2Mp1KZUCcPqslE23bUuEU+RpFs5fbzmghEaT8xvqjH3/QkPxPDXDkK75TSimM3qC139pPDArnj+cnGyiE14ZD+Ie7kxqNDhO91Ncn0mYXuMKn9/agGD/ZTrL3iUi2/uqeYWdZakKx8ikT4fGxCx27Ts20WE1SpCFNLsgWHTF8ogncItPuCrRUKGORjDO324gCatuSgdLRhMIpkY7Dq+yWFrQWgxZq5Updv5ov97c1FcmYhfbKIBxomjAcBVaiIvmAi9Al8EpE/4nZPszba6mdaSL/6dBpV599FgIDUwsRdlt+HVS/J2Ixjzaca8gpKqPF4dZItNINkQJ/x3iokY2niQgMmrJeONAwGkwxvyvhyxCpNAlbJKWQ/zW26+ZsI598uoY/ms6/Cgwvi6HaiMQKy1XLxp+Ohxicps9nnenpUsNBk1ZwD6NWJoZSZZ9m1lhWRbIQekuVyH1mTZMs3n9LMaSolZ1u4UQ/XX6iw0PDAx2CS5effprf6L9CU6sh/GPVhrYeQ9x7ztyeac+A6O7y+orN1O9BYEc4zD1bzSVcoK994gozemihMpnbQd/tZ9o109kyykxfDqAamDDGu8rFuM4Ra/N90ysg0/OE1mGR47d8z3RHeKjj9nYazQzjM7K0FbjIZnmMNUs3F/IQpRAwYE2WTCdHWxcg8up81oVj+xj5fd68o6RvLwJ5Jdjk0ju4RJFPIhbLv/e/3x1FCiuGuiMEki0xIo5r4EaUkLF9Mbb6o4HDz9ng9HHiTasP/UpjIRufX5O9gwpREabEHBAT5eInxFZ7FxaXU4+coJqkvVWey1R0eRBFJlluZhLmQNjPUSTaKNakaMBXVxIokuxqdQvey0lAkWYfhVIv/gg+GwmCShcemih9Q/GH+7L7WwynqmnlvDll+/IZIeMp9MZTVwPw9yQNdj6O9evirI/U9gqnOUE0n67aDgGSteDBNwdozaSLvhLwZ8mdjtidRFvtm0LhC+N857L+ZOn/ZanqYuD7d6xUk48/c1sdRtvZ3ZHI9q0hoMjHXqdNWS7IFB80jWUxcmhhPxbFmJVOry0jrkCwiniMupC5UNNm9rMlCI8yLwvAEopPkZMET+9K4UIq+UUCpucWUkl1UTnLYfPy4IU5oAAxSubY8YMg5wTwZiqSMQvI6nkpfLIkS58P1iHqyoYH04tgQajIuhBqzNOJ/t5h8hXr9HEnTdydTYJxhZT/+1/Jp2MZ48WAozVni9+pydNxU+h254PNH+Frk/YT/g3hLj5m3ETEsUu02KiTDHOZ7bC6NeGOfUT7Z0/DJlOqO+GJqMckuBpi38EAfyWAeYCbUMHpLgkVItvZsOjUZE6LJrMtMGa7LCfk6lAbpCv8Gjn+Sj/mJyVaq8lu+MfnUf9U1egJBCWtGnE9pzhKfIRl81+9IgjIj+X1C4Gbcy3I0yPhJbF0cvxCq7vhzgNfu61lGLfoxmGQ5ufnUpfccTWgr/2G+mGpthtLuY+Yto9JHMpgHOLxqQF5JjWRt2cE2BPP2X6fqqNECuZgIMNG654KI6SYFwfFibpPJBq1arLN9wR8RudT/1xh6EMRhHw8+JK4T+T/sFCTaK4j8N7SidiwCpqdHBlNajnnplhVbTmmqZVVSGL3csZu24XX/BpMM85bfjFytmaWX58lgRlu60dhF5u3EYw2S1UDHjw6m01dy9GrCPQEcdDDBavKg67Y3VhCN1uCIds25dLoUnUdfLIuhOkgSY06Uv8P1iYQxX+tLE0NFDg7/VyK0UQLt2MeXJlsgcfyl5xr1ZGxjZ3Kbtlk60jAYTDJgxKwdYn5ScfL0VVd69wfM0Bvu+8hhDZJBMHH8AGuNLjPDaRkHF1cSy085YdK8I5xwbm/uYKN9bSYV/j7E/8cUEWYixOyBNBvRbHwITd2bTNl8P+ev5vL9amYqlM5niAgzzuftwveAHSTNQUHBHWrzf7OFxrprjDHuPP5zVhlXZWMUyVZuPctkUpm7bDOEnnl/AkXHmx5hWotkEGgRMcj8tNcfEUjfroihg5ezWO2Xkn9MHtXk36jNg63UFoRRE6XjIfg9iCAAm+xqfG2N+B5+OXaDUm6Wz5Zv8MuiB3Aca7tq7HPhHpR+Sy6IwrXEfZ0j6JhU8yfwT14KpwcQ3CGTIB9j/uy+jsPo0DnjXqVjFMn8Q6/R411HKydkIU2c6RczSq4ReiuSjDvy1Qn6F6NM2JEotIacZBgMOMT4DqYM31dnE4oBvZ//tptyhXoujBC/KV+RhLaodBAlNyqC73GcbjttW5hqJIPbTwuj1adS6aaeEqHLcbfoq+Ux9OzIIM2crTg//qoISpSYvC2YuKO3J1K2haa9xLZTataqlTs16jGF0o3co8QokmGRZ7v/qqlSlhbu9Mb3C8RMvin45UiKIJScZCAJSlv6rY+nARz6K0kbdu6RyNVtB0EC9/kJoTRwXSw9xmE/tB0EWkZoAjjrLPJ2mrb+9MqUMPrlRBotOHqD5h/5n+D/+PxV/l7Jj8PvvjAuhBCt5t0ynADYgWjN+QxaeSadVnJbVTmdTjtYAxpa2mQIUFpdv9t4dSXCftrHg5dJRxsOo0gGjP9ZqoxVMpmIRpho2w6btqnw5j/SRS2VPHv/l2lg7aMmiKyUNAqe9rcWRIrzX2NzglVBXbAdFDQUawysxVSL2EDGbhVMJ33wS5Q4TqntV6uuSUdVDUxbsk+zakk+rtqxbeZm0tgaTbLAq4lUrZ3KlAOkpTs7jjMpO8f4eq6I67dF+TAcZfmgmSowkzPYydZFaUkZHQzKpqEb4ukpFP8paEDRlgn6+gL9b0bpitozPu6utiDZ6qpDssjYFKr7JrtCSgtJYKVaD6EXRNWz8dt5GU0yrFbq5bZMrEhS3dyOv5toQoUsFjdh4zn4MUpayRiBdoK/9BBHlqF65hyTs+7Qm/MjqBr7gvJzGEKydxeqk+zLKqLJsO7zP2wG9S+JG0QzluyXWhgHo0kG7D0aQLWwi49SRhjSYRg92H44nfjD+JXjFyJy6WFk1eEnmUE0sY0AO8ee2yvOG33zW6yyyTNIkynX6Vclks3EKiXs9KM0ltBibX6kp94eSzHxpr2EzCSSlbDK6fbDIvWNVvAZm81G3SbQ1ajypsoQrDiVJtZIYqCQX5IPYEUiIkImWK8l0XTLgMlrkMFUkr1VxTXZxn2XqBZMpNp2E1ge18SFpi7eJ7UwHiaRDDj9J5sYbDqstv4SKpZJ2KznVAqLMr4qYL9/FjVHHTubTkzziHwQ/qqKdBz7YHU4cBi5LZFyCysmGPCFHpJ1ZfOtD931OP44rz1jxyFfeqwjkwgkU1MWrdypSc8plJFp+taqJpMMcJv2u/ryKQh8NiZao/cm0QU//YOlhLTcItpxKYPc18dRl/mR1HbmVWo7S0VmhlPnuVfFe5CCE4wLOr76VZlk1dlkt+dz+/H51KTL3Aiqzg+AvC3Oh/PaK5ZuPkP3Y0WS2NFHyQ9j6TCcqnO0ufWEee8eNYtkyalZ9OJ/pmrmuZSeBHGxfAP8/ZNdRtLqbWe5lenTTtbCEKlMSE4UBA8iYy+rgtAVfK+UAsH5cF57A3Jh/Ses14wZ8mFq4wbB/hdTNkktTYdZJAPOsIZ6uC2bTKFyVTQaPm/L3/ONfcaRqW8lvGjUGKw6lao406AVBBFqonS8ICabWu9z5u+VYSnk3SqgtTvOU+NerBSwp5xaCgoiWaDO382nbAu8RMJskgGrt54VOyk6IX+mqtFYcGN88TU48nSevJFO/GlaxaqlgSTtk8MDFTfJM1ag1WpwdNxwVDAlZlouG28qUPe1dscFervvAk0FDcyj0vhoBQqh2WBq+N5ECo8zfeM7XViEZMDsX6XNOlDUqKbRICAbgoUmzvRApxHU7vPZNHX5fjp7IYzSM223vcG0fcli5kAt+2+ooL1w+pdZZudoU5Celkvb9l6ib0eupsbvT9ZMA8I8Ko2HrmDcWAk89cZo8gmyzCJtwGIkA+atPky1W7rrN51awfdwPFtyB6AQ8sm+NGfpYelMlQu8LwDZeUSmIIlaJUdFgukwmEqU7tzreplm7Tev1t5UzPE6RE51+4jI0Kk1C6aEKhoPSDNXavjOOLMrnOWwKMkAmM468NFEMGDAjUFw3EsDafYK25BsHqo/+vuKnByIgn8jdSLKnHX8L0XhNtgmFMfX4EAAE+P4XJyHNeOU3cbnCc3F7JVsVfAmPkP6X+vGNHWhVl/MosAoy6+WtzjJgBPnw+jF9ydqpp5gGvVFMBB0BorhVh6RzlB5OBqUTQ+7BAhyoDLjfiaMu3ccfb0ihhp4BmmqNJB/Q55OSdjBf2JYIP3HK4rWs6Pvxm2xTxhq00QNG5Nv0k7LD5w+oB9Vy3Xkgq3xm7hQvzFrjC7hMRRWIRkQez2TBoxeQ7Was7quyB+wEcli0wqp4ZhgQSLMlULzuK//35vS8Aa4U5F5dDIil04pCD4/eTWXriRwBCYtHkGJt+vaWFHhAbMpiMbn/WnfdSq4U0ohibdo+q4k+mxpNL37cyS9y+S8SxZp5JtV18jr8HUKM3Jf2gpJhugRGX72i595b7zY2K7MirtiWo1kWuw86k+dv56rCZvhI2hDZ13tZgOSYdcg7EoI03j/UCYYa5xOs8Ip14ydpLUoZqINloiGEiWYTtS6fbAwguqAzBwYCGEf8K9/K4mYxfCje7n9kI3xlJlrWJ2eIsnQ3/DN4AfzWDzYbhg5T99CcUnWT7NYnWRAdt5tWrPzAnX4Zg7Vas1BQVMmHAIELcFsQLJp7CtptI1mldEzw4MoxMB1k4YAC37d1rHpZBLDR9PmzlDGZExggbZiLravD3WbF0HpORUT7S+SQWOhb0EsjhpRB/jY66PIddIG8rNg9FgRKoVkWuDVxftPBlLfMd7U4rMZmtAanQEN17AfzVx+SDrSutjln0U12UlHxa1Y38iDv/lP03eOVgO2OviRiYbdhUAyc9IjYiEKPxT9fo2hkgr2qp25jKPLBt9rdmDigOrRN0dR9x+8xJ6wMQmVnyCuVJLpIiX9Jh04G0pzVhyi/3qsoMfbetCiVcelb62HazcK6PlR7Iex047Bg780eod5e3jow6JjN6gmTB6TTE4cYwVasAab0QN63gUFLFxzgpp9OJk85myltTv+IP/QWCors57PVRFsRjJdwOnMyrlNt26bt5yrItxmE9ZdbKLip1mnyD7RRwsjqaDQfD9MCTn5RdRphmapnRJpjBURnLA2G7AmTu+7QAvvFNNtM1+6ZUnYBckqC57YcwxZfQwWR5T/9gyma1bYqlMLvNwLawlgkpVII1Ijuo6+rrCfKK8OFrMJrIE7/xQmCFxVUOVJFsnhPd7ytvFSJm1iv0ou+Hwnm5c5h2/QA2LAOdLjvw/wIO4NMG/PiIqwg38Xjr/cF4PpfJD/froshvqxz/a9TPqydGYnv7aLbEENCyo/XhoXIjZWriqosiRDmfbnK2LoOdZGTj9Iq5bYlCgKMvisAaBRkLuq4exHC83cXskQ7GIS47p0iQLBRDxejZikZzftLT5ZYl8N3XYgGWYhsNVovAV34rY2qiTJFrMz/bCU5NTWdOkOhj5BzgrrJKftTiq3KYo1UBHJ8IpENay5kCEeEN12WpI9MzrYotu9WxtVjmTYmK4aO+xYzi83Q4aKyFnxOUZusV5UCThIpkGVIhle51J/eKAwfaYSDIK2SAfUYgcbOTNrwUEyDaoUySYjSw8/RRZ16Q6CkigdCwEBevxs/usE1eAgmQZWJxn2OD19NZc2XcygFSdTadkJjaw6nUbe3JHrIOfTae2pVAqJVy/1vV1YQu9jf3+p5ku38yHwtbCpHMputILBxKAovbEXgs3oHh8WaPTCE0NREcmirqunT7wvZppMMvTj2lNpol/vknPptP5COu31v0l/xuSLfrU2rEayAtYOCw+lUJdpV9i8+YkOQxJUWfi7zy7SjD3qtVcI2RG6iz0vdDoegvm9R9mM1vMIpDpMGq08xILPnhoRqDpfCNLu0fMOcnOgRrKa/EA8PjSQAmNvia0/UZ2hFUzcI9G6nB9CeVstybCpnz6SoR/Rn6Jf+RyKwhYBW392m32Vlh6/oXeDQHNhFZIlphXSRws1bxVBYlFEfyomDiKSo3zTs5mUaojnczbwDBadXI5k3LZaPz+ad+SGqKmPzSgv+OzMlRzCi+6V9tgAyXYyGayBfaE54vzy3wThkSd7bmwINZ54hV4aH1pO8BkSxffJ9kvDfSOaxv65KVnqeTL0I/pTnswtJ/yd2MQGDzkrAGyunGKl3JvFSXadb77z1DBx4WL1t74blURLsjl6SBbHJMM7v+8iGQvaIumqBsxXwjzBTOm2E22ZBLsqmAs0FX9ey6cHeSBrKWT8RUUtE0a7dZVcxAMh6ztBMn5o32O3QZ+ZQz9WSDKt8DGCbHx815/CKcPAciJjYFGSYeMOZ1SG9vExqpzFbJIxoeEoqwEOti1IhvdEvcbmCL8hv2aTRPSTD42rYH8Po0gmCcYLWzu4bYzngbRs/tCiJAvgJ/dhJoGSWdInf1eSASuR12OThH1r5b9trEDD1WVf7qqeqBQwhWQQlKA/yn1k6PsIDIVFSTYTy8pMuLm/M8mwF1ovryhxf9AWpmg09A8eXJwDu1FWBFNJph2HeXrGwRRYjGTQsKKcWarTUhKxtJ+/v0vgh3x5SdTBq6Eikq3VQzI8+bYiGYDgowfe34moju8XhIEfhIBIn2AyH2kW+GH3DPSjabuSVF9EoQv0I/pT9Ku8ryE8DvJ+0Aq+/3JptEV3k7AYyTAP+PrMcHFjSk8rOuvNuVepz68x1HtlefmO5VOObnbped0fSIZdEdUc/y2+6m2TOMpEdKlGMmtFl7pAamIua4gXxoXSo/y74sUSmNhHmkFJ+LpQvftvNo9vzAqnfUZcI/oR/Yl+lfc1+h/joNQX6FeMH8bRkvO6FiMZsubY5VmJZMKpZL/kqAkvONUiMaOQnhujkMJgwUu2PlkaQz8dvEET91wvJzMOpNDgTQniOGgH3XYQDOZeK+XJlJBfUEJ/XM2htWfTaOHhFJFLVJTDN8QeumGJmlyaJYFxwH3LgzMtydpPDbPoLIhFSdahApIdMOOdPzc5tO6AFzoonF/4EigARF6OtdpdwppB93itwBxVY/NwOsI66w3tFRgHfSTDOFZZku0PNJ1kSI/0Xa1ZZqbm0OJzJVE6FgL/Ay+MT8mqOvOAlgDGwUEyFez1zxILKaCBdM9vqoCw7pv+t5jX1sgvLKWwpAIRDWcbsvc/R1tx7G9e4eOxwbKhcJBMD0pZm32qkw7Q/Q1jBeb1hVHBFJtmvRp/Y3Cc/UK8uuY+5wC6jzVs60mhevc3i00tpN7LoumhIYHi+MeHB4r3pucZsDjZQbIKkJBeQJ0w6c7+F15jI0win98g4WPF+sV+vvQYBwGHgirP4dcHvKrwEaQquI+wh4aY5hnAPib/f/35u4mGtwe/hldLf+fzVzoERZz4/4/ecRUm7P++JOObsgTJALxZt/eKGKrNTzBMnsj98O/qFRzDgwYt2HlGGJ0PNz3StSTAh48XsXZm4pebq+R/o89aTb5CebIXly04ckPch+7O4OhzMdPiEkC+0fr3eXOQzAicDsuhKTsSqceCCGrPkSeiTyVpx9J9YQR5bIoTK8XxOml7Ad5j3gS7fPNDoNtnENTH4TXR/jLSiACISSafQEeKBuepaFbAQTITgGX7SHbqk+IKlvbbCrns4L8CkrGPqNtnENTONRgZROEJ5ecSB3rHC5LJI2dhNplk687o34bTQbJ/ILCFvDaYQd+J/oO5ZFfg7fkRVFRcfsC3+2aK/oR5/MsnxfFMsMeHBYktsfRBkIxdBwfJ/kFIyrxDTdn3guMufEc48X18qOGIIPpTyb9ipdxfaDNNUag4vr8v1eznR7+erPjVNA6S/UMRz0SbuC2ROnIftmDCDWXtFpKoXtJTVFwm1kn0mH9VJJS/XBxN+w2c6HeQ7B+OWwUld0WT+gBTmnOrhMqMKDR0kMwBq+NvTbKjofaR/Pyn41BwdtUlGUpEVEk2wJ+2+mRSVn4xpWQX2VZuFlFaThFl8rVYQ3LZ3MHk2aPc4XHa7pvFD72/KsnsttQHuaq35lwV0ZGcZBCsjXzCI4ie8QymBiNsK/Xxd2SwuJanLSw4J15586ydyvOjQ6geR60YD/kYCZLx+GEcK9oy1BhYjGTAwN+UX+mnFeR1sAysugv+2lpwHdYRzCPas4jpJ4XxgWD8MI6WhEVJtvpsusjvyKc7HFJFBAldHj+MoyVhUZLFZRQKU1FtoGX2SHVI5Uq1gZq322EcLQmLkgxYfiJVTIdg73kl38wh9icYJ/GuAB43bIZjaVicZIDr7wkcIvuKFTnam5DfmENsL9pxgY+KudMBWD1uBViFZCVlZTT7YArVGxoobDwqDLDKCNs7YRMR8ao+h9hE0P8YB4yHdvFNXY40p+9JphILr4rSwiok0wK15x5bEqnrrHAO74PExsDVWWo4xGaC/sc4YDwwLhifgFjLbksgh1VJpkXurWKxX35A4m3yTbhNfg6xmaD/MQ4YD4xLZaBSSObAPxsOkjlgdThI5oDV4SCZA1aHg2QOWB0OkjlgdThI5oDV4SCZA1aHg2QOWB0OkjlgZRD9P/27gb1VMbGaAAAAAElFTkSuQmCC;" parent="1" vertex="1">
          <mxGeometry x="471" y="345" width="60.39" height="60" as="geometry" />
        </mxCell>
        <mxCell id="OuTpp7gKNCbVnQCvF9Cy-4" value="" style="shape=image;verticalLabelPosition=bottom;labelBackgroundColor=default;verticalAlign=top;aspect=fixed;imageAspect=0;image=data:image/png,iVBORw0KGgoAAAANSUhEUgAAARQAAACfCAYAAAA4cCbWAAAAAXNSR0IArs4c6QAAAARnQU1BAACxjwv8YQUAAAAJcEhZcwAADsMAAA7DAcdvqGQAAEFCSURBVHhe7Z0HYFRV2obfTHqZdBJSCCX0IiJNaTZABLEggrLquth11X91/Vd3F127rmWXxVXXX9EV195pIiqKoggovYYeIL23ycwk+b/3zNw4GSfJJJkU1/PoZe7ce+45597c773fd865Z/zqBGg0Go0PMDk/NRqNps1oQdFoND5DC4pGo/EZWlA0Go3P0IKi0Wh8xk96eboPm+Vc02g0mubJ3v6ec60RQXFNoNFoNI3hrhc65NFoND5DC4pGo/EZWlA0Go3P0IKi0Wh8hhYUjUbjM7SgaDQan6EFRaPR+AwtKBqNxmdoQdFoND5DC4pGo/EZWlA0ncrsPy7GlFv+6fwG/OOtLzH6N0/gSFah+v7R2u1ImPZH9UmKy6vU/vtf/Fh9JzqP9s/DW7SgaDoV3uRR5lDnNwfGjU+Mfa5paACu6Dw6Jg9v0C8HajSaRqF3Q26dc7r6dEe/HKjRaLxmycqNeHDxKue35tGCoulUWhurazqGjS/9Xi3eogVF06m0NlbXdBw9k2Kda82jBUXTqfDp987D853fNF2NLzfvx9aM485vzaMFRaPRNMoldy9WYam3aEHRdCrsRTB6EjRdj9WLbsaC35zj/NY8WlA0nUpLexE0Hcvwfim4cvoY57fm0YKi6VRa2oug6VjcB7w1R7MD2ywWi3NN80skJCTEuab5OfHhhx+qhfZ71VVXYerUqc49LcMYsp/78cPOLQ3RA9s0XYqW9iI0RV5eHp566inMnz8f8+bNw80334yXX37Zubdj2Lx5syr7oYcecm7peDIyMvDmm2/WOwMnTpxQn63hinNH48/z26kNxe9ntmi6Pi3tRWgMismjjz6KTZs21RtSUVERPvnkE3z99dfqu695/fXXlXh0tGg1R05OjvpMSkrCa6+9hvHjx6vvrYFD7hsbdu8JrwWlTv6rkeioRgKkrr7YautQLYum69PSXoTGWLJkCbKyslSIdtNNNylDuu+++zBkyBBnCt9TXV3tXPuRESNGqLL/9Kc/Obd0PJmZmeozLCxMffbr1099dgRetaEEyOP+qzwrnj0oF9Bk6rJPf56IWmprcHlqCGakBCmB0bSen0sbCsMc3qtz587FBRdc4Nz6I/Qi6K3MnDlTeSxVVVVYvHixCg/eeust7Ny5U6XjU/2iiy7ChAkTlNfz/PPP48CBA/VeDwXquuuuw/Lly1V+rlDIyDPPPIP09HQ88MAD6jvDoBUrVtSXERMTo/K/7LLL1Hd6OUzPZe3ataoso5xu3bqpNK6wXhTQHTt2qLT8G40ePRqzZ8/2WK8777xTCV1roPdYUlalhN8T7nrhlaAE+wNvHrbgso0VgKwreJS7snja1qFI4aIgN/QJwYNDQhERZELDs9O0lPYWFPYiREe0feg9jZIsXLjQoxEaguIKPQm2szA0coXnfPfdd6vQgeLgzsSJExEaGuqVoFCwHnnkkXpBcsUQP6Pu7lD8DNFx5Y477lDemDujRo1CbGysTwWFjbIcet/YaOZWNcr6yX+BohaBNTaYamrhL4uprhZ+9lrAXgM/+e4nn6Za2Sef3O+6mLivhousO5f6fWppuM/Y5q+Whnk1tlBI/Gy1uDktEI8MDUOkiAkFzk80pjM0jmU2VW5z+4kvjm9rHu0NXwzkZD9tgU9sb6GhU3S40PAoJsY2Cgw9Axo/22ISExOV0Rv7aOCEjZyuPSf85H56He58+umn9R6HkQ8FibAMV5i/6/5du3apT1dYZ4oJvRyGdEzPuhDm51ovnhf3t1ZMSEtfjfBKUJTjIf+YbCIe1TbUVNthqqhGsMWGUKsdoRYrgqusqJXt3Ocn20xWER+bHZB1P4sYfJXj069SwqZqK0ySj59NFks1TMY+l6WuknnVoEby9WNekl4tXHddZBvLgKS7LtUfD59shlnExGTyg/wv4U+d+gwSzyqAK14QKOm4BLhdHYqTsZ2f/O4JbvaXNFw8JVH75R/u91QlbgqQzFUenjIQeBz385w8JeG2pupgHN9UGR1BS3sRPOHqkTC8aAoaGdNzMXo/GNLcdtttylMwwhISHR2t9v3lL39R+5YuXerc4z1GGaeffnp9PYcNG6Y+3TG8kcb2EyM/hjhG20hru4TbA7mdvISxQzWNvQbjQmrwwOAQvD0xGkvPjMH7Z8bixVPN+N++QZgYWQezCImfxY5aay16mmrx5PAILDw5CotGhGPB4DBEcL+tDnYRjmndgvD0SDP+Njy8fvm7pHtoWDjmpgRhWKi/iJANdVbxYsQj8rOLJyKLSS3yXbb7ldtwXVoQHh4ZhchgE/Il/Rs7C/HQumzctuooHvg6C4u3FuBwsdUhBM5T8gT3Lcsowd835WLxlgJUyDlwm0kMvEzO/YUteVi0uQCLfsjF8VIRNLfM+H3D8Qo8+k0O/vptDg4WWRqk4Xp2mRV/35CDR6V+XxwuVW1UBtzP+i/amK3yeHtnkVz6H+M2Ji0V0f7npjw8Jvk/LZ/lUkfWz4ACsTe/Co/J8U+uz8ExKc+1Dizvm2PleETKf3RdLtbJOq9LZ9DSXoTGMBpf33jjjfpeHYYb7EZurJeHT3ni6qEYC42b7RR86hseiOGhuFNY6JgNzZOnZJTx5Zdf1u/fsGGD+mxNOGnkt3HjRnV+hONNSHuEpy19NSLA+dk8En5AvIEbB5tx5ylmJJmD1U1soiTJ/V5TF4rZ4g0Uy81+/ec5+PCoXQyhBhf1MeO2k8PlcMcTvUK8ks+PWfB1jngVIgijo0Jw/VAzIyeVkZ/TMGhD9toaZJbbsWRnKZ7aWQ6RIYi8OParNH6ok3pdOyAMD50aixgRnx05Fbj9iywpoxI1DMmYkHlKPYfG5uN3o7rhV0PljyLHukOj2pVXhetWZyJXROqcXmZJG6usmEb69405eGiD3BQB4u5IuemxIegdHYRql5bfQLkgX2WWY8FX2VKmCUO6hWJgfGh9GnoUx8psWPBtrrjCtfjd6HhMTY+GnXUVgmT/qkNluP3LHFVuanggTusRjtRIRwMzr3eFiPEj3+UiVwSO2GXHHacmSBnqKwLF7dibZ8GfRVCYySmJ4VLPYFgZFsoW5rNIhOi9/WUq/Zz8KIxPjVDrP1emT59e33jKNgzXto8xYzwPHR83bpwyRsNDcYUCYsAxHVzcMYybokMPxmhDcYVlcz89H/cy6LW0FKPODNXuvfde51YHkyZNcq75Dr4awYFt3oq+Vx4KTcEqd+t5yQF4cHwMks2Om9tSU4uCKhvKJBSqratFkMhTgYQv32dJGCMJQm3igfQMUYYvNgB5kEo44o+pScGoraiSDRI+SR7cLw6HWixiqDaKl5TqL0LQJyoQfz41DnN6hcJaJdudCW0S5lilrKt6h+DBcfGIDPFHiRjYnWuysfpwOWolRjulezjO6R+NCWlmhAeK2IhY3PhZFv75fX4Dr+BH6vDMD3nIrbAjUNLfOioeoRLf0Mg/O1iChVuLHGLCp7ksHrMQlCaqmIYi+tNU3ObHWEPyNvHTBRr90v0lDuUINOGYhH5r6cWwTIXj04/5c5sc/6iIw5acygZehr9zn0rz42a1/VBRFdaeqFT580KsOVGuRI5ZdjS+mmCJ7QS33HKL8lSMJzUNnt6Fp7YNwhDEOMYT9EjovRDmabRtGNC4XfeHh4erdVdYNts12HtkwHVua6xeBp48Dk91Ns7TaEsJDg5Wn77wWFr6aoRXvTyBcqe9t6NIbMmECwdFyk0PlIsn8qg8hdfl2xEZGoiRsYE4p08YXttRjH/tlCefGMTEuAAsvTQNIYGiNHKzsqRAUx225lbjrNcyRQCs+ONp3fDgGd0lz1rxSGrxl6/ykF1qxanyxLxsaJQSgiD/OnxztAyT3zqOuoAA2KRe4rzgqn6heGJyEqIYFsl/G7MqMenNA0qQZvc2Y+GUNKmbP6pE2D45XIY/SehTIaJzz/juuGFEvBJFAxrjZjl+yjsHxMuqxXnpZrxzQS8xQBNyKmw47+392JJvdRghRULqu/SiXpjRO7KBhxJMA/8mC39cJ96BHPvhBT0xs++PaYLkWq6XEGPK+4dRKeXcMTIeT5yVAot4KBS5jIJqTHjrAAplnxIDEc9Z6RF4TepCZWfb0DG5PuP+k4FsCixFQ9y7OX0i8dL5PVV9g/n3kpDv4o+PqbavVbN64Wy5HhSrYCnkXxtzcdPn2agLlPzlf3qKL0xJwfzh8Q3OhfjipmyK5noRNF2bVvXykFAxouQIf2WEtCe7hDffH7fi2wNlWLW7GA+vy8NFbx/Da7tK4c9BZZZqnJMeBnNIgNiBHyw2CYHERuy1fhgYF4yx8fKkpzLwjlb/m1Arx60/VIFXd1Tg1pVZWCZ50wDplPSKDkGaGINNwq7aympc2SsYTyoxCaA9KNsrFJGzqVgJ6C/hSHJskPIwYiTNrwbH4N9Te+CV6Wk/ERMHdXhuS6ESk1AxtP8Z2U2MT+ok+T22Phtbci3oLd7SFWLcEp84j2ke1Wgq50BR5mKSxeFtSAXc6hAg+76UcKlQBCwl1A/TUtmdasfX4k0cLLQo7WgA/xAiwtzxngjmGzsKxJty7vMAS7XI02DZwVIR9zpMSg7DMAml5CSxbH9pfUjUkbS0F0HTsbTLBEtMxKf84WKLMgYaWUxYIF6clYqnpyRghngmKcF+KCyzoqyqFjUiHpGiFzPSo9SN6+9Xi/d3lCCrvFq5+2HidcxIjwREAFTbjFIUWpcf6thrQ9GotqJc3H3HHW5y2o5dxMSKX/UNx+PTksX7oJg4rJLlJIQFIITGKsLzyt4SPL8xD8dKrOKxOEb5TuplxlSpk7uYMKTZdLwS7+yTUEOYK0/7Sc42hY/2FeH5bUXwkyf/naO7YVyybBcb9pbdeZX4IbMCG0QouHwv61uzq6ROzgQuWOQaL2e4I/U7tXsYfjs8Tq63P3LFE1l5qMQl7HFqkZzT2IRgdA8R0ZWTenhDHvblSyjjks4Vhjt78y34VsIj/lGvGxKDc3vRTffDV+KdHZK/L8NMjcagfSZYknusTp6Er20qRJF4B0FisHIvq4bCG05NxCsX9sC7c9Jw4+g4xPiJCFTZcYYY5MCEUBEf8U5ENF7dUIgtxyrUU5oiMKVvGMJFRGoM65YMeS8PiRfvpXsQrh4eien9wpUY+Eu67Ao7DhbbcOlAM56a3gOxImiGmBCxRQwRr+SGwdFKg46V28Wtz8L57x3CzauO4ZWtharno0aOcbc3is0LWwpQIgIXJY/4G0+JR6CENgeLqnHfN7mib7WY3idCQoI4dnQJ3l02DgJ8QIx8xoeHMGvZUbXM/OAQ7vwmp945M6BYZIgXsi7bIQjn9orAhLQI9I5wtJsvP1guou7mQYhrNlPS/P7keHX9DpTapL6St4RjjnQ/Xh8ilx4fHxUPqKoO3UJNOCMtHONTwiSMMqFAQsEvDpXDX+rckegJlro27TTBkngVIiJL5an/uw+OI0NuepMYOQ2TehAebMKoHhFYeG4y/jkjBXHiScwZZEawhA5+fiYcKbJj7ZFyrJMQhjc5DbhffAjOTguBpUpMS2IhmgDj//unp+DDX/fFwgt7IzkyWNLSgmuxdGsRzu8ZjoUz0xAX3lBMCL/5i+t/z8QkPHlGMkZ0C1HGsU1E5KUdhZj/6Qlc8MFhPPz1CVRU10jdHSbHkIrdvG8dKFYGPqdfFEamRKjQ4L6vTmBHnk3qEYjHJiXL+fgrITXslDkwG0dOHpCdJeKtUQyzxdvikiXeRglbp908ARr7msPlKLLUIkXO78xekYgS0TxXBIOFrs+qwt6CSuVl1COr1VKXG0Z1w9mp4mnI9zczSvHR7kLVVlJfUYF/6EoRxhUZcp7ycDi7pxkpUSEYmxqJXjHBqowPJeyhJ+pSQrujJ1jq2rTvBEvy5Pv3pjzM/r/duG9ZJj4X97yggmMcTMpDoBd/8fBY3D4pEWPEEJR3ISVslJvcJuHQqt1FKKysUTcsezcuEG8iWA5UD325+Wlj8RHBSDAHIlSMN0AEhsL1upR5KLsCT8/ujbiIIPXynycYikUEB+DWkd3wwUW98eaMNPzx1O6YJE/i0CB/7BMP574NuXhw7XGxH4fh2OWcnvy+AKXyhI4OMeH6EfEiRH54cVsBXt9TJp5KDe4em4hBIoB1VE9DUZxWx6p4ro0g6f8g3sMb4lEtmZaqljemp+LBMQkIVkc5j5S8aMhLD5SqrwPigxAgG08UV+PkpFC5VhSDOqyS/Q10SA7nOYdL6HfPhETEioCzSeWRjfnYI6EW26XqkWu5t6AKWwtEwOXan5IYhuwym/xJazEmLlAS+GF9XhUyJCRyDa3am5b2Img6lpZOsOS9oMjN68fGyBq7emo/tCYbl7y0Hxc/vwfLfshTT1jaWl2dGOUZKUiWpx6NjcY/uHsIHjsvBb8bn6i8Gjru9hoTTutrRs+YAOWxqCLkM7PAgr0nKrBLllV7ivCHNw7gEwlH7jmvJxIlxKJINQYNgeVVSSiQIqJ0ft8o3CuG9s4FPfGvMxPRPVzCB7HOV/aW4pCEM8ES1nDMyMrDNGQTLutjxojkMGSVVONvck42qSmFbdvxMvx2xRHc9HEm3ucTXj39gRelXreszMTHewsllFObGiJVPaNXFOYOi8O8IbFqmTs0DlMlfKLQcr9C6s1wbGOO/PEk7+/zqnH++4cw7Z0DeHhDPmpFsCk6Kw6Voco50K4BIiITephxy8lxKt0Pcg0f21yg8q0XIPlcKR5iqXhMcqHwL6n7tLcPYMa7h/DZMQmzZFuxeG6fHy5Tf6OOpCU/06DpWFr6aoTXgsJ7P6jWhGtHxmO8xPeh4jmUlVXj293FeP+7HPWkZNct/zUHB4rASNYceCYGfkqfSNx+Tip+PTEZYWLEFA4uSdEhOLV/jGqX5TvM4izgnncOYvZzuzD7+d2Y9ewu7BdX//5Z6egZG/KTMMcVGk6GPIH/uOa4GgHKbmh6PqxTTGggrhBP4WIRMNapUnYUV9klv1o8/UMhLPY6NSju2pEJYkx+KK2uRbF4UjzrUjHg/9tZjGe3F+C5bXlYm1UhlaWB++H9/WV45vs8fK9CQM9WaJU607NhDwqXWlnozTkuvfMY+Vi+rxgl1TYVgkWJ2hRK6FNUJWmlbrHsuhHB2pRrwe7cSo8ehF3O65ZRiThbBJHl5YpuyCZVAkuyWO1YKp4i/5CRIh5sSyqQ8CtfzjNMPJtQiqScw3siOmUiLD8toX3w5QRLrYETIXFQWnND9jsbjvhlPTkHS0fSPhMsyd1lFZd7eFwQ7ruwF96+pj9ev7IvnpvVE8/MS8ddF/Vs4IpTXBR+YtQSWlA81B0qnxSFWjFkzq/C8SmDk52DgZiBJDtcaMXOHPFSsi2Y3DcWz109GKkiJo2FOQZ89+X5H3KwUMKjx7/Px2PfZOOEeBoVthq1ZEgIsE2e3CzELAaVGBGItYed3onU6/JB0RjePRRW8W74LtANQ6Jxy0ndcOuweNw6Qj5luUNE6axUESXWRY45Pz0Ct47qpsbMUChajJwyL4vVYsc7h6QeIsKTpQ4rZvXCMuey4uLe+NvEBARJykopY+WBEuUN8lq54uh5C8ADpyeJADndJVVPuTZywDYJGbcUyvmLGN4zOg4rZ/X+sQxZn907SqXfKJ7Srg4Me3wxwRLFwBAGLlz39oVB4y3gigp5UPgYvuHMN4ONehkzyLXkZUYD441oT3OwtCftMsES9cAkoc4F4p0kSShDYzx/RAzmn5WC689OwYAkx5Pf3ySCUcenG98tkWNkeVpCggXiVj/92XH87ZNj+O2SfRLSVMqTmO0jfIHPJMdx3dEw6c9GWGsNzhsQjUW/Skf36KbDHAMa1FXD4zGie5jq5bh/Uz7O/+AwLll+FJcsy8SFHxzBV3TtJa9Z6WY12vdvIjwcyJUYHoRrTooT22OXOBAbHogFZ6Ti8cnJ+OvZskxOkaUHnjgnDZcMjKbbIQXW4loJMRZO64Gz06PVSGADtcqLxqURlMhKYTTcLRLq7Cpk47QJcwZEYUhSGAYnhmGoLOwpm9kvBr0jA1XGy45UoIhD7pm1HO9aBD2gU0Wgfyd/J9WNpIpweIPLMipQba1DWoQ/5g6OxcDEUJU/l8FyzWb1i1TtWtWS9/IDpY6QrANo6wRLNM5FixY1eKmP65wXpDNZsGBB/ZvBBsYMcv/4xz+cW/778Pq24ViNfUfLsFpc/7wymzzJ6b6rdlq1FFZY8f6GPJwQD4MCwOVEkQ0vfn4MT648grveOoSH3zmA17/IxDoJk+hxWOw1DRYadzW7nOXJv+iKvugRG6zGV3gDkw1NiMCSGWliHFEIEYvgiNxP95di9f4SeepWq2H/Vw+Nwf3yFF99sFSNniWXDYySY0N/6gXxIe26CBYqh7Ji2eDqlrmgtkpI6LB6zzA4VJ+SB9tx/OUEUqMCcVpapIQ5HDXM0MgRJvG1ghk9wxEuntWBMiv2SGgXIaFjuJxPiGq8UlkpbCLs7PY+r3c4zPLX5TQOpSLQq4+XS1hThykpZnQXwWSYx/xVGRKDjU4JRd+oACnDH9+K8BZLONTI6fmUlvYiuLN3717lZXA4O1/w49LZb98a7wcRTn9gvHBovFzIfe5zlnRVWvpqhHcTLMnNu3JjNuYt2onwUH/0kyfawMQQ9IgPVUPNM4qqsC+zAofFaIekhivx4d1YLjfyNtXIxyIcLSw0yD5ivGkco9JALOpUt2aUlHX/FQPQLylctR+0FDlcvSH8lXhB+/IsOFbMWeb8kCQeydBuweoluHAxsk1Z5dgtXgG9pEmpYUiO4PtJTZfH0+LQ+O8lJPOTqILHJYlxuuoQ0+wrrMZ2MXr2spyWHNogDY20qLIG67LEYxAhHigeGFU9q8KOMKnXaAl53Ntj+P1YiQUZxVb1gmSfyAA1zoY9Or0ig9A7JqhBHagxHJ6fIfWokWMHijDvLZLrIMqfHhOCXtHsjm94rvy2PbsSRXLt2Hp0WnKYau8KDm7fofdtnWCJ4c7jjz+u1mmw7hMScf97771Xb+B8lYCv/t94443qOz0J7uOLfXy3prkZ3Iw3kI19N9xww0+mWGTIxeP57o9RjoH7PqN8Cg+FiO8GcfpIrrvO11JZWam8HeOdnabqyber+XIky+B0B8y/tZMstXSCJa8FZcXGHFz5zE6ESPIq1S7ieMZSE2hE7HjkgDc+UfkfW0T9ZEeIPFXrmEAV4/hkgyDTGWbDPNhtOqqvGS/fNBR9JITiU7q1sDiGEjw1ek+E4zdop3wisyo0OqOdgEU1JyYGHEkqp6RgXq6GbMB8HXk7G2Ld0nCXQ3QdZRPD0WB6T7D+zs4ldQxDEn6l5vJ6uuOanvVkfZpKT9SrAfLJvfQw+dkR7/I09TMN3sAGS8PIWV++dWu8KOdppjbC/TROd0Fpaga3devWqbz4Yl5KSgq2b99eb8SuGHkaZbhi1IciwRndjLQG3D5r1qx6kXTHEJSWzjRnnJ+vafW7PLy7aHN8OY1usXK5ZYl0LiGy8EnK919CZD/HfVBMiJ/cwHRSRL3UTc2bm8fyCRgmaRhFDO0fjRdvHtZmMSG0Fxome1Nk1WEgslGJHb8ItFsVYsnirZgQpjWOa8QuVbjCl/0YVnhKw20WOZ77mZYL82tMTAhFwLW+TKvWPRUguKZnkubSE4oI06jr5NzW3vhigqXbb79dPeH5lOYDkAZLT4D07dtXGaARdhhv6RoTFbni6hEY86MwPfM0BMtg+PDhePLJJ5s0UmOSaG+gN8Hybr31VmzdulVtY9msB2dm47kZeFtPvoVMz4Rp2kNMPOG9oMgtVltTgwoxFGNRRiMuANc59oOLw5B+/F7pst5gm61GLWUSFg3sEYGXrhmE/t0j2iwm7tAwOso4NC3HVxMscW5WGjiFhRihAKcU4GRExm/1GNs90dwMbjNmzFCGy230IOhdGJMceYIejDuGN0IxcMWYpc2Y1Y3QC+J3hlSu4tRcPQ04vyzDHNc8W0pLX43wKuQRhwKZeRas3poHq6R2etI+og5nDY3DoBS+Xu9bMdG0nfYOedoKQwjOYD958mRleK5tKnxyG6EBn/Kc0tF1FjZ6Lq4hT0FBgZpIicZOT6ExQ6SIcDpI13xcMcIaXjsKGb0Dtr9wflljGkmjTcM95CLG8RQvtqewvOeee66+DYWeR1P1NNpQuN+Yeb+1tPSXA70SFML2B8bY7QF1pClXXNN5tLegsBehqZ9paI7G2kgMY/TU1kA8CcqAAQPwhz/8of6ed4XiZIRR9ByOHz+uvAJPDcEUD85D66lc4tpY60lQDEHwBOtNT6mpevpSUAgFpbHRzK1uQ6HssKu4PRYtJr9ceLNGmVvfy0Pj4s9HGMJnzF7G37QhNHZuI/xk2sbgk76pGdz69Omjwg0KGEWAedEzcof5UFC43yibsB2EIZl7z487FBamM86JwmB0OXM2tubq6Wta8mqE1x6K5pdJVw95NO0LX41gtz7HC3mixSGPRqP55cIXA+lBZry9wLmlIa0OeTSa9kBPsNS1aacJljSa9kFPsNS1ad8JljQaH6MnWOratN8ESxpNO6EnWOq6tNsESxpNe9DZEyxpmqalr0boXh5Np9JcL4Kma6N7eTRdirZOsKTpWmhB0XQqbZ1gSdO+tHSCJS0omk6lpb0Imo6lpa9GaEHRdCruvQjuT0QOejPeeCUfrd2u0vOTUJC4//4XP1bfic7Dd3m09LentaBoOhX3XgTe5O5PROPGJ8Y+1zQ0AFd0Hr7Pw1t0L49Go2k1updHo9G0G1pQNBqNz9CCotFofIYWFI1G4zO0oGg0Gp+hBUWj0fgMLSgajcZnaEHRaDQ+QwuKRqPxGVpQNBqNz2jR0Hv9Gz2/HPTv8Wi8QQ+912g07YYWFI1G4zO0oGg0Gp+hBaUT8JPFJP8EyD9BXPz9ECif/M7tGs3PFS0oHYifiEWwiIf8jypbHTLLrNiQW4UvT1Thh7wq9b3aXlcvMlpbND83dC9PB0BhCBSBKLfWYs3xCnx4uBz7SmzIrbKj1F6LmjrxTvzqEBNgQnJ4AAZEB+HCXuEYnxyOEH8TrLUN/kQdgu7l0XiDu15oQWlnGMZYa2rx0eEKLN5Tgs0FFtSKQFAjKDQMcbheI+v8Ti+GbmOw/DM6IRQ3DonBlNRw1KJOhEd2dBBaUDTeoLuNOxCGLjmVNtz8VQ5++1W2CmtsogrBAX4Y2S0Ev+ofif8ZFovbTorF72S5JN2MITFBCBBvproWWJddhSs/P4G71uei3FYr4uTM+L8UPTH0zyOPptCC0k7QM9lVVI2LPzmB9w+Vq23mIBNuHByNj85JwQfTUvCP8Yn486g43CvLX2T516TuWH5uD7wxORnn9TIrYaFT8oJ4Nr9eky0h0n+3qPAmb+tkyjqPjsmjMXTI0w5QTNjAOvezLBwqsaqQhh7JQ6PjcYqEMSrEaXjZG8AeH7sk+jSzAvdsysORMjtqJRQanxiKf5+ZpISpvcMfHfJo3KF3Q26dc7r6JDrkaWfYBmK11+LPG/Kxr9iqDH9yj1C8enYSRokg2EQomhITwjRMMb1XBN6ckoJh8cGi/MDXWVV4ZEshTCxEo+lglqzciAcXr3J+84wWFB/DdpP/7C/DiqMVqnt4QlIonp2QhNiQAFS30K1g+vSoILwgoVCfyEDxXICX9hRj5dFyVc5/Gy2J1TUdD3/0i0tTaEHxATRt2jeXvKoavLCrWBl/ZJA/HpYwJzrYX4UwrYGi0kdE5f4x3eDnFJF/Sv7ML1i+U1g4tiVEFoZaP2daEqtrOoeeSbHONc/oNpRWwIgjUP6h/fLicTAaw5SwAD/VNfyH7/JFZOpw58lxuGtELCw+aPCQrHHj2hy8d6hMCcjUtDCE+5tUd3O8CNeQ2GDVTtNXxIelsT5tQbehaNz5cvN+REeEqh+4N3DXCy0oLYBCQo+g1FqDzfnV2JJThX1lNhyrtKNcRCVcrP5IqRVZlTWIkxBnxbkpSDMHQna1GQrKpjwLZn1yQg1cqZbFaIsxiXyx9ydchGV6WjiuGxSNYSIwbRkQpwVF4w67l+lBZry9wLlFC0qroVdQIOHM2wdL8e7BcuworFZhB6+euoD0VmSFoQ4FZGpqOJacneTT3phaKWDmimPYkGtBWJAJMSIg9FAocFUcsi91UB5LsAl3i2d05cBoVX7Dv7B3dIageOpF0HQdtmYcV8uV08c4t2hBaTFio+q9mk8yK/DgDwXYXlCtvAUaKr2VCDHs+NAAtc4rmV9tR06FHfeOjMVtw+Na3BDbFBSrJXtLUGatxfikMNXQS0psdtUDxHBoq3hO/rKNwvKHk2Nwx/D4VnkqnSEoxoCr3I8fdm7RdHW0oLQAign5x/ZCPLmtCDVimLTNxFB/TOkRhhlpZvSPDlKNrkbaMlstMiXsSTMHoVuYv0rvSzhGxV+Epab2R8+DoRi38V2hl/eW4tHN+bCLkFVJrf4+LgFX9otscZtKZ4U8FJTmGv40nQMHvLENxRV3vZDbsG3QkNg42VUWXw3RYDbM78mtBfjrlkLUiUHWyNZ5/aOw7NxUPDWuO86WsCYpLED1sDAk4tItxB+ju4e1i5gQCoPF2QhsF0XhYmzjC4i/HRqNJ05NQJC4UWyefULqnllmU13YPwe0mHRd2KXPdpSmaLOgsB2BN3NXWSrEQ2joc7UOGue/Jbx4YkuREpawQH/8Y3yCWtIig5QRc3Evit95TeT/DofnzR6lS8UjuX5wDGzyPbvChiX7S5Vn09VhLwJjdE3X5IpzR+PP889xfvNMm0Iethu8uKsYy05Uq6dzvd/f0cgZ8CTsthpMSQnB1YOif2LoLYX2N2vVcaw5XomYYBNeOL07pqVFqDaRtubd3rDuxdW1mL4iE4dKbUiPDMRbU1PQyxyoeoe8EdzOCHk89SJoujY+bUOhoNyzMQ9v7a+QJ7g4O87HsuOVNhq5Z4Uxtrrf1z8eR1qgTpK0xFqLmT3DcO/oePWuS1s9BD7RPz5ajmdFMH89IAoX9zZ3yrwkrYVh2H3yt3lyexEi/E2ICw/ApX3MuHZglIRjzY/a7QxB8dSLoOna+FRQ6JX877c5+GBnMcJFUOhi22prUesn4iLZmmTh6M0QWdRzXf63MA2LrJWblnE+WxPlGLvkV8U34Bz/I6iO2/hFjpcD+f6KkYeBn5Rvl3wYYkwRg39ofCIigvxdk6iGVO5vDH/JV73VK0lYd+NqsGfHxEe9fGceDG9cUTOqybHMm/sN2IajzkngVAXs6jXgteDCLXzfxzVHIz/+Oaxuxs7wi+fvfi7cxuO4xVYj193lMP5tPj5Sjl99kY1ayS9Q6mWV/YNjglRD7djE0CYH3HVWo6ym68JXI0rKqrB60c3OLe0hKF9n481tBTCLoIxNCsWopDD4Bweq9owj+ZXYmleFvHJKgxiX3MCn9DAjLTpYGe6u/Crszq1iJZAWE4zhyWbV3cluT3NdDbIqbThYYkNWkQU2yYGDt1wrS+GpkDxn9ovGQ6cnKWP99mgpth8vg0U8lpjwIIxOM2NwYrgyRnfzoV5kldmwLatc9ZKM7RGJiGCWDnyXWYYSS40SytGp5nrDZZmcMGntwRJUiSgMlbz7xIXUG3N5tR1fHS5VwsDjEs1Bap+/FLYjuwKbj5UhIsQf0wbE1gsPr8U6qXdRhQ0Jkv40qbORH+v4w7FyHC+pRnp8KIZ0D5NzcYhJdmk1PssogknqNqVvjHghgfXnyHpSBHcXW9Vby68fKMWJCpFtSRAn5b98VhLGJDheVvREZwiKp14ETdeB3fpsNH/n4fnOLT4WFBrZX9Ycw9JdhXhsWk+c1TsSAbR6PqYlW85MViax/F2rj2LNgWLVA/L6pf2RGi03qyT59kgZrv3ggOrivGRQNB44p7ca/Ukj4nsrPL7KVotNYlAPrMlElggTn9aqwpLGYq3BOX0i8fC5vZWhLPj4ED7aXYBKERN6HuwBiQ0NwG9Gd8cN45IdouBythSgu1cewuIN2RiTFoE3fjUYUSEBWC1Gev17GbCKy5VkDsAHvx6KhMggJUo05EIRuln/3ok9IpYLJvfAbRNSlVfBfftFRM+XfeVy3otn98O0gXFKgHhO176zD6v3FSthfO2ygRjbK0qdI72Oi5bswvYTlYgONeHVSwdiREqEypN1vPG9fXhXRPva8SnqOlvkmoSI0D3xRSYe/+KYutz3T+2Fa8Z2/4l3o7wi2X9UhPNPG3Ox9EiVeCt16BERiLenJKNnZKCU70zsQmcIih6H8vPDXS8cj8hW4wdLlRW/Hd0NU8VL4L18TJ6k6w+XYJc8jenynyi1YMPBItjlyT0uNRzJUcGoljuYy0nytOUMZZWSR4WtRoVCNK78Kjv25FaiVDyEYLG+09Oj8eDZPeSRa4fdYkNNtQ1lZdWYzjBnWi8V5ry6ORtvbctDTHAAbhLxuPecnpg1LF6NWv3rl8fw4ndZDXo6KEw7cyrw8Z5CRIrQ3SLGGiXiky353v/pEfjLcZFBJoSK4dJg3QmRekUE+v+k94RhS7hsj5DjnA6IEpP94o19f7wC0VJXCs+ag8VquwHbPFgexfWRz4+iUkSDeRFeg3DZF2BkKJRa7Ph0fxGixKOKkvI+l3WLB2Xg9WRokywC8sLpybhqYKQS7SMiMA9vdky04+H0OgVvehE0XZs2CQqDiDC5ycdIqEDxYBx/3dv7cN4LO3DeSzsw79VduHvFIRSLK28TwZjUO0oZiWGgYWJc43pFKuOwyn5upvEs31WAyc9vwzx5ah8qqBIjq8Ww5Aj0iApCtaQrFcE5t18U7p/WWwzeX3kAW05USL4mjEyNwALZfu2pSXj6wr6468xUzDkpHhcNFXER4zKgp/LC+iwUVYrQ9YzEWRIyWEV9HhVP6EiBBYkRQaqefE/GEyonyYRz01MYjIXHcB/bTozS6CV8IyLL8wwX8QqWOtNjK5bzMK4F03KhQNEje+X7bPGo1K76nYYzyfBprwhuRp4FZskvSMRmW04ldovHxLI8wXOnkN17SixGcH4VSbZSQqHNuZZGj+loOOReD7vvuvDVCOP1iMZoo4cihiNPRRo8CRIxuPusNJw/NFZ5ACvlqfmZPIlL7DWIl5DhVHHxaRT0Xo4XV6tjzhTvwyQueI1NvjjsRTVY5kpYsVqO3a7aN/xU3pyL9Yh4PGelR+GRGenKMB2GAtXWQQPfkV2Jj7bmqvYIMn9MEv5+fl8kSfmGnrDt4vvMUny2vxjh8oS/ekx3hMjnBzvz8cGOAtVWcfmIeNVW0djjW04PdbIUS3h1tMSqRsfyM6fMqsIYk7MsQs/hcymL5/7r0QlIDA/A0SKriGC5GLPjT0BjJ+bQQFW/57/Nwk65Tv4syImxxvNl3csl5JsyIBZDRWyL5Xp9IaEar1Vj0DOhB3f7SXHqD18l4rz0iFzfxg/RaOpp9wmWaARFEpa8uzlPPVnpfdDjeOGSAfj8uuFYJEY/RGL0knIrZg2MRWx4oOo5+c+GLKyVm582xAbTiSlmWOTmpsXwIRwrT9y+ctzVw7thQu9oJRr0TI6L53DZgBgsuqif8m6MHhQJDnD5KYlIlmMYcv3PRwcw55VduH3pAazaW6QMxzBYYq+txb835ah2jkl9ojBJvJMMMd6nvshUdbjrrB7oGRuq0nGmNI9IfhSx177PwdTFOzHz5Z04V7yymz84ABMFhddDkrHBdK+EVltFPJIjgzFrSDcM7haKKhGiVfscg+ZUdrLQS7vylAT0iw9BYVUN/ir1sYsYWWUvO8AiGIcJJeLZfCrHhonIzhgUizP7RKqGbHo9bBQ28vQEu75PTQhFD3OgOodN+dU+mV7BF/w3TrA0f/58tfw30CETLMk9jb+vOYQ/vb9H9TqouF8W9m5cPS4Zb//mJJweG4hp/RyDzfJFXJbvzscK8QbYXhAgXse0QfLEdN7U1eIWTB/WDetvG4Wn5w5EtIhQoBjux9vzMCzGH/+8bAhCRExcwxd6BCfJU3rJZQPFA0hEUlQwDor4vLU1Hze8m4HLX9+NPbkVyrWn58Tw49OMYoQGm3CNeCc8nu0mx8TDmDciEecMjlchHIfb8z8e95MnvxTPgIcehFQLkfyUcwmRZOypojeiaijfP5eyKBDj0sxIjgsVryJGDY1ff6QUeXI9HOLDYfRAghj6XWf3QEigH9YeKsUSCX3omTEvdYnEo/lBxGlffhUGijCNTInAGX2iERMWKOGhRbU9NRXC8LLx3aNBMRLSyfrhMhvyRKCaOKTDaO0ES19//TXmzZvXYLnjjjvwySefOFM42Lx5Mx566CFl4EY6fufxzfHyyy/XH+NNegN2ZLh3Zvycae7ViDYLCkd9RNqseP6zg7hw4Qb8/j87sOyHLOUVsOE1KTYEf50zCL0TwpSRZYsHESU3r0Vu4hKLXQnD6RLC9JAwwOlwKIOIENecVEiaJSJY3+3Nw5OXDlWhj+u4DwMeO6B7BO47pzfeu2IwFl86ADee2l0N4tp6olIE46hqa+Gxb2zOVY2ebOwdnRaJF9dn4Wsx3ngRopHJYfg2oxB7RYD8xXirRR2+O1KCLZll9fUj9I7oVc0b0Q3vXDkYr/9qEN68fDCeuiBdvBITh9mISPjBKmHJ14dLVdtQkZT59FfHsDmnUrWlnBAB++F4ufLumJ5BWol4TRPTYzD7pG50vZQndUDEg4MI5XAlUF9IuFPLHwcToV28KRvLxQuLCQlQXg/3GY25jcEoKz44kLqPUsmUYtfcMR0Bn36uXZLesn//fufaj2RlZSkRMIyfn48//jh27tzZwMD5/ZlnnmlWJNauXVvf8/Xll023I/y34s2rEW0WFD46baYA9Ek041huORZ/cQjzFq7Ha18dcbRxyGP1pN4xYkAB6qmf3i0cK28dhVfmD1MTAlFQesaH4fT+ZmXwgWKM68SDuf75H3Dd/32PWQ+vxec7cnHXhQMRKU9h14FirmTkVeK5r4+pcKBbRKCEMtFYcG4fXCseCNsIjhZWoVLU4SsJC77YX4LI0ABcP7q7UqIvxWNhu015lQ2/X3YIc/+zG899l63Eq1gE7cb39+MWCZ8YLhhmRwNkTcxyDikxIUh1Lt0lrDFskwPm9ki4Q68hVPL6SsKUR1cfwb8lb5sYPwWWDdBqjIxkpsIrHivCccekVAxIDBXRseFgXpW6LhRaho+fHyhBhOS380QFHv3kqHiIR5FdZlVd9uzyLpLzaI4aCed4AgFSWfZYsS4/d9LT0/Haa69h4cKFSEpKUtsMsXn99dfVJ9Pcd999Kh0/jXTvv/+++vQEPR2K0JQpUxATE6NEKC8vz7n3l8Mldy9WYWlTtE1Q5Oa3VlkxMS0Cy28bg3/+ejhunZqO/z1/IM4akgibGCmhqBj3K40tKjxIiYNCtjOcGDuou3L9xW7kiVyJ9zdkYsWGY+grXsfCq0YgKixI5eOOHKI8nZs/2K+8kAc+OYxDhRaUVdtRJEZ2pLhaPf05voS8uCkX5VKvqf2jMSI1Qg3sGtfDjOkDYzC1d6QKzWZKCDY82TEYjg2kZ4snM7FXVMOwQNaVAMiJMWRiWmMhdXKivLhsJ+GUBhMk75fFa1oiy+vzBuLqsd1VmvXi+bAh17WNh3nGyvW564weKtwzxMskhr9OwqTMYgt6xwXj+Yv74dXLmOdA3De1J8IlTDpcVI3tIjSNhT0shgPyMkqt6rqkimeYJIuz2p2KN70I3lBcXNzAC2GoU1RUpNZvvfVW9OvXT63z8/LLL1fr9GgaE4kdO3aoz1GjRilBIt988436NKA3dPPNN9eHWyzTHW4zwi2uG2EUxW7BggVqnXl8+OGHziN+DNO4z9hviKNxjBHasf787tpmw33c9uyzzzq3tB6OkF3wm6a79dsmKHIThsjNf8WknoiPDcPscT1w/6VDcM+cweiXYlYCUSNeR5AYBXtR9mQW49qn1uH2V7bhtsWb8btnNyjPgJ5MSBB7caQ6YsB8mgdYrJg7MglPXDNSXM2A+p4kd2gIMeJt/HZ8ihrE9vb2fMxeshsX/XsXzn9pB17bkie2X4crRyXgGzHGbw6VKHG5RrwT2hCF7iY59rlLBmDR7AF4+uL++Ocl/fHrkYkiBDVqAqW/zkzHI9N7q9DEsDuKZaUU7v5+D7/R0+L+QvGW1og3RK+K3dYT+8VgkiwTRKDmnpyAaKkHe4bWiodEL4ohoiFIXJ8k6S4/JQHlIphqqL7ku3xfMSrEu5nQOwqTB8c58pNl1vBuSIsPFe+kBkt35dcLuDv0SDLL7dglng9flUiPDFBC1BXwphehKQ4cOKCM595771UCwhBl/PjxqKioUPvpjXTrJqGkCyNGjHCuAXv37nWuNYSCQs+EAjR06ND6bQY0cBquIVoUp/feazg4lMb+6quvKqGbO3dug3KXLl2q6k6YhyEoGRkZWLRokfKIDLif6Zlm8ODBaptxrCFyLMMQGaOehhC2Bc4l29x7Vm0SFD7tuCz6YDcWvbsTX+/Mw6GsMgl9KrBxbz4e/s9WvPrpAazbmY9vduThtS+P4ptt2Vj2WQZWfnEQn/9wAm+sPSL787B2Wy7Wbs/FtxLe7DxQiLNOScGDV49EhBgdPYCm4O4Lh8Tjudn9MH1QjPJ4ciU0KJcQhyNO/3Z+OmadJIIi4U7/+BARiwQM6h6uQjDCsEuNo+GnLPSEGI4NSQhD37gQFYUYadnUyobdYd3DcFpKOHpG800jB9zH8GF0cgROFe+Ho1ajQ/1xwcBYjBYviO0pzIcjXbtHBuHCwTEYmxSGHPEW2MA6MS1c/Vi6syhVr+vGJuG8wXK8pIsOFqG12zFZvJ3pg2JRI/mwDIoNPZJLhyfgtNRwVQ67lD3JBB2X/+wrEQ+uBiHy158s6Rt4R52IN70I3jJkyBDccsst9d4ICQsLc655jxHuGEIydepUJVQ0cho82bRpk/rkPoZSN910kxIgV55//nklNBSTCy64wLnVAYWO4RcX5s3y2Kbz6aefqnWeC8M45j1x4kR1DMukx0QM0aCwGO08hshwH7exbm3F/RcFPdGmofcc/n3Xkm14dcVeBItn4SfGlBAWgED5zBU33io3PLtNGa7z7ubNTO+D8BbmZg6tNyrAbTSEaWNT8Y/rRqlGx7IKKyIjgj0ahzscWk8jLKi0o1Ly4fc4Ca842pVPfA68o/GwbYOFNjhxN3hVOG6DQ/gpMnyRUT4aIt9pi43lY1xZnjdPwN1r4GZuoxCxXp7yUccKRtn8czEty3WvD9M6mkZkB9M4txuwYXf10XLM/zJHrlMtekUFYfm0FESK9+iel3Fj/hxg6EDD51P4gQcecG79ERonG14JDdPVS3HdR4N1h+GGq4fgysyZM3HZZZcpr4h4Ot7YR9GgoBjHEKPeNParrrpKbWMYQzGgKK1atap+fcKECWq/UV/jXBleMd8777wTL7zwApKTk3HixAmV9pprrlEN0RSe22+/XW1rC55ejfDp0HvVbSqGyt+H4QCxcDHUMksNCsQ7YHjAbRwrwbCBiyEmhPcvb3iO5eAwdS4cJHfemBQsvH4UguXYb3dkYcX6I8jMKVXhU3PwaU3DiBVR6yGeA7uueRjFhLBhk96Lw4ibhgbL+i4/XIazlx3F4l1FygugFtUj603lwzxYPoXN9TADdazsMNpIPMHtrsZupHUXAOZvCA3TuJbHenNo/xfHK3H7+jyHFyYp7hgWq+bDdc+rs2ivCZYGDBhQL5BLliypbyth+4TRGEsvwB2ma0xMiOGZGN4IBYLQ6ClErhhtNatXr673bJrDyJe9SkadN2zYoD6N8zG8lDVr1qhwiJ4UF66vWLFC7fNFuEO8eTWiTYJC2LZhrbbDZpU4Xz7tNjtq6NpzmyzcphaL47taXNatzuPKK22YNCIJT1w/WvUIcUBXtXgvbNrkS4AtgYLBdou2G0odXtpbgl2FVty3qQD3fJerZoSjcXoSCHfUy4jy+dHBMhSI0LY0tGBqvg5Az6IpDJHj7yizPNbPWHhsboUNj/5QgKu+yFJjTqrFO7luYCQu7OOYMKqr4E0vQmugR8IeGkIRuO2225TnwKc3n+40zjlz5qj9rhhtEjRaeh/GQi+H8FiKw+jRo9V3ehvMlx6EuzfPNhN6Itz+yiuvOLc2zZgxjvYKippRZ0PETj/d8YqCISjGdrarDBs2TK0bYjhu3Dj1SQFlHq0daOfNqxH+fxGc64onnn0Tv79prvNbQ+wSv7vCWzFBPIEJwxIxbUwqpnIZ7fz0dnGmn3FaD1w9vT/Mzt4cf/Em4iODkRATih4JZhV6dDQsky/ffZZVqUKp7/Ikts2yyLYApEYEIFw8GOUVMLH8Q7unB0SPgF7AuhOVuHdjvprkiD8MdlZqWH37SHNwaoilh8vxu3U56C5eRN/oYFUf18P5nZ5gvogVZ+T/k5T1jdR1R0E1fhAR/CyzEi/tK8UT2wrVrP0M4eiZ3DAwCgtGx/8kP1cCAhy9Yh3J1LEDMSAtocEPSXnD7t27sW/fPuXuT5o0ybm1ITQys9mMsrKy+sZTCsnJJ5+Mq6++ukFbi8G7776rPIMLL7wQaWlpzq3iVYeHY8+ePWpfUFCQCldyc3PVQhtheMO2En4yD3LxxRersihSR48elQepFTU1NSqkoQfBfcTwNM444wyMHTtW1TknJwfl5eVqP/OcPXs2zjzzTPU9Li5O5cn93MdwinVdvny5qgs9r2nTpqm02dnZKi3/tu7tOK3FXS/a1IZC2B7hTTjSLFILtnG41oauO7M2ej46A4rDmuPl+P23eThWblcuHUVjSGwQpqSGY3hcCBJC/REpIVuFeBN8U3pXUTW+yK7Ct7KwEZZeAuecWjg+EbPTzRKCqVaORmF7zf5iK+Z8egKHS23q+6xeZszoEYYBMcFq7AunZjheZsN3uVV480A5dkiZ7KyhkNGvY/5cWF/+dRj09TIH4JahMWoGOu5r6rL+nNpQNB1Du0+w9EuBocNBMezHtxZi6aEyVLJNRsSOBsmwRrRECQ+HzjOEqO+Vko8Af1mUKPohWCz+gVHxmNcvst6LMZLS6OltkO9yqnD7t7nIkBCGgkAxYGNroOQVJWLCF/zYNZ0joSN/4Ivv8TBNSniAavfJElFjqMQyOCVCT3MgLugRjvN7R6hpDNjW5Cy2UTpDUPQES12bdp9g6ZcEjZPm/r14BO8dKMXK41VqRjkbLVmg4RsXkrrAWdFOSwjFFf3NWJ9twd+2OyZW4hjWySlhmC9ewjDxcigOzJgitYvvHx2qwEdO0WJ+pyeFKaHaKOVydjolHvIn47QKfGFQ9Ez94NfcPmZcLaEMJ9TmOJMK1ctlUm82x8o2Cg3ryrDHGzpDUPQESz8/tKC0EQoLxeNEpV28FquaVf54mR0lYvWRYu1xoQHoGRmA/lFB6neNmZ4hzjM7ilRbimPiJEcbCbvYUzlto3wvEm/jsOQnzoUSJHJZ30g8MDpeCcOW/CoV3hyRsoolD3ozbFs5KSYIoxJD0VvKYhjEvyZDUEPgWts43RmCon+K9OeHFhQfQc+AjZqG8fMiOlfVOhtf2ZBLKCAUADbSPiXCsj7H4phSQY5g8OFMpT5FO9SbwLcMicWsPhFqD7ezUZdlcd3xJ/uxbEZgFBNfottQNO54EnwtKJ0IG2c5VH9zngWrMiuwp7gaB9QE3uJthJjQLzoYZyWHYkJSqGor6czfANKConHHm4FtWlA6AXor9C7YKMvfEyIRAcZbv47tnSUkBp0hKJ56ETRdCwqK65wo7nrBUFvTwVAwVG+QqEZUkEktHM/CbfRgOltMOovWTrCk6ThcxcQTWlA6GYoKl1+qiLjS2gmWNB1Dx0ywpNFofhF482pEi9pQNJr2RHcbd208/fa0bkPRdFnaOsGSpn1p9wmWNBpf4ssJljS+x5sJlrSgaLoUzfUiaDoP/mZSwrQ/Or95RguKpsvQXhMsaXyDNxMs6UZZTZeBTz+OQ8l4e4Fzi6aroxtlNV0Wb36mQdO10YKi6TJ404ug6Tw4BqW5357WgqLpMnjTi6DpPLx5NUILiqbL4N6L4P5E5MA3441X8tHa7So9PwkFifvvf/Fj9Z3oPHyXhzevRmhB0XQZ3HsReJO7PxGNG58Y+1zT0ABc0Xn4Po+m0L08Go2m1eheHo1G025oQdFoND5DC4pGo/EZWlA0Go3P0IKi0Wh8hhYUjUbjM7SgaDQan6EFRaPR+AwtKBqNxmd4HCmr0Wg03uI6UvYngqLRaDStRYc8Go3GZ2hB0Wg0PkMLikaj8RlaUDQajY8A/h/t4mFoz70ZfgAAAABJRU5ErkJggg==;" parent="1" vertex="1">
          <mxGeometry x="334.06" y="515" width="216.98" height="125" as="geometry" />
        </mxCell>
        <mxCell id="OuTpp7gKNCbVnQCvF9Cy-5" value="" style="shape=image;verticalLabelPosition=bottom;labelBackgroundColor=default;verticalAlign=top;aspect=fixed;imageAspect=0;image=data:image/png,iVBORw0KGgoAAAANSUhEUgAAAQ0AAABrCAYAAABtyNf7AAAAAXNSR0IArs4c6QAAAARnQU1BAACxjwv8YQUAAAAJcEhZcwAADsMAAA7DAcdvqGQAADEISURBVHhe7Z0JgFZTG8ef2ZtKq4oSUgmVRNqUnS+0UBRf0mIPn7K20UqUio+yZA0tloRkSZbsIZXIEqJCi5apZp+53/N75j1v74yZmhdfzdT555h7zz33vvee5X+e53/OvScmUIiHh4dHMREb+uvh4eFRLHjS8PDwiAqeNDw8PKKCJw0PD4+o4EnDw8MjKvxp9GRrWnZoy8PDY29G+eT40FZ+5CMNCOOcIZ+E9jw8PPZmvDCqRaHEUShpzB13XCjGw8Njb8Rp139QJGl4TcPDwyMqeNLw8PCICp40PDw8ooInDQ+Pv4gCA497DTxpeHj8RcTExEhaWpqkpKSEYvYOeNLw8PgbmDFjhgwcODC0t3fAk4aHx9/Ali1b5I8//gjt7R3wpOHh8TeAi7K3oVSQRnZ2trH5mjVrLGzbti10xMNj9yIxMVHKli0b2ts7UCpI47vvvpMOHTrIkCFDpG/fvjJo0KDQEQ+P3Yt///vfMnbs2NDe3oFSQRpbt26Vgw8+WCZPnizDhg2zfQ+Pfwq//vqr/Pzzz6G94iErK0vWr18vGzdulPT0dLOEsYj3BpQ40sjMzJQff/wxPAaempoq8+bNs22QlJRklsenn34aihEb8lq1alVoz8MjOixYsEA6duwoy5YtC8X8GTk5OfLVV1+ZVdGtWzf517/+JWeeeaacddZZ9pdA3IUXXij33XefLF++PN88jsLmdDz99NNy//33h/ZKD0rcC2svvviiuSGdOnWSFi1ayOOPPy6HHnqo9O7d2/7C8HPmzJHp06fLQQcdJK1bt5bHHnvMxsufffZZ2WeffUJX8vAoPsaNG2f1iIbcpEmTUGyenkZ9e+CBB+S3336zY23btpWjjz5aqlSpIuXKlTNdg/qHxfLxxx/Le++9ZwRDfcWdPvHEE/8kmD711FNmNT/yyCNywgknhGJLDnb0whoMGMaW1Kzg1OveD+3teqipF3Tu3DlYsmRJoJkaKHEECxcuDB0NgtzcXAtACzMYP358cNFFFwVff/11oD1AMHr0aDvm4fFXoMQRDB8+PLQXBF9++WVwxhlnBM2aNQu0cQcbNmwIHdmOzZs3B1OnTg0mTZoUqHURig2CNWvWBPfcc0/QuHHjoGvXrsGKFStCRwKr23Xr1g0+/PDDUEzJAzwAHxSGEkUaFFrPnj1De0GgJqH9Xbt2bTB06NDgkksuCS677LLgmWeesXgIxKX55ptvgqZNmwbqm9q+h0e0oC6pJWvbauEGhxxySDBmzJhAXWaLc1D3Obj44osDtSKCdu3aBaeffnrQp0+f4IgjjgiWLl0aSpUHdZ2DQYMGBfXr1w9efvlli3vttdeCjz76yLZLKnZEGiXKPcEPvPvuu03oVMY390PZXZQs5OSTT7YRFPZJc8wxx8h//vMfO49Zecr20r59e/Mpk5OTLd4jD7///rvMnj1btEKbaHfAAQdYfrZs2VJiY/+6rKUWnsyaNctExEqVKskpp5xiIS4uLpSidOK2226TJ598Up544gk56qijzIX49ttvZf/99zc3uV+/frLffvuZq/zmm2/KZ599JuXLl5frrrtOKleuLP3797dZol988YVUrFhRrr76asvnq666Sm6++Wa59NJLQ79UclFqvqdRr149E5Hw/9RysDgKDm2DjIdE1JqQe++9V95+++2w4q0MbsRCYZQpU8biPPLEN4Q28uzOO++UX375xURj7elEzW4599xzZeXKlaHU0WHChAnSqlUreeGFF2zezKJFi0wghLTVZA+lKn246667ZNq0afLqq69avevVq5cRY4MGDURdZRtiJc/U7ZDDDz9cqlevbroGYA4RM0SvvfZaywPySN1nIxH0D/JKLRfr4Api3bp1+cT9Eg0sDYfd7Z44qAUR1jKuv/764OOPP7btSNx0003B3LlzbRs/VAvZtj22A5dOK7T529qwQ7F5IH9bt24daMUPlExCscWDErldV3vjsMYElDgCJf5AiSMUUzrgnuHFF1+0+1+2bJntv/7664FatMGmTZtsH9flpJNOCkaNGhWceOKJQZ06dewv56u1EdSuXTtQ0rFzVq9ebeeAG264IayVvPfee+b2FKzT/BbaR1paWtjl3p3YkXtSIudpMLzF+DfA7MUMjgSKNr1mzZo1bZ/h1oSEBNv2yAPWBCMCzzzzjFx55ZV/mrWI9aEVVapWrWrmdnFBTzp69GgZMGCAWRWRowKMLEyZMsVcoVLTayp4Bly4wYMGyXjNM6wKLApcEYb4cTFAfHy8jZQ0b97cLF1cGPaxtEaOHGl5wtAt9TdyFI80GRkZtt2mTRvLb1wZphMAJitiqWENtmvXziyakowSRRqYzvfcc4/N09h3330tjsJDs3BzNai0t956qxHGEUccYXF169Y1t+b999/PNx7O0Nctmnb4iOEySgt19G23y/Bhw2Tu3NdDKfZcoPucd955Nn+gKOCHQyzOLy8OcAmZ1NS5c+dQTH7gsjDU+Morr4RiSgfuuOMOad6qpXTQRs+w/0rtiB5T1zhRScPh1TlzZP6770qCkgDYsjVFUrakyK+/rpaRo0bKeeeeZzoHVVBtF0vD0OvDDz8sVSpXsX1w9dVXKVlXCc/R6Nmzp2kklBlxhx12mMWXVJQo0njwwQetoUMSRx55pMWpKWcMTA92wQUXGPvD4jC7A+KSujE2Jo4F4vDGG2/Ils0p0qZ1K/m5bE0Z9E0ZGTZ3mbw251U7nmv/3/PAfAF6LiyBnaFZs2ZGvuRVccB8BKy6Hc2HoWd2lmJpwA8//GDEOUDr0X33/VeGDx8qF/e5WA6sXUutkFy1HLLk199+lUkP3C+9Lu0jdQ+tJ336XCI3XHeDrFuzXrp2u0Au7NFDul3QTTZu2iBx8bFKHDlqEWfJ9OnTpLUSad+rr9D6lqMh0GvGyo033mRzQhD2sWzQT5xOApmXZJQo0kCYU//Q3A/MWywKxCXM3kcffdSEJZRslGnMbSbdQCiYh7gop59+uomlDijWLVq2kFNOPV2OPPUMkWPPkpiGx0tCcl5Psae+n4ipTR4ySrIzkEdYbXvzjFoa73HHHSf169WXTz9fKFk5gVSqXFVmzXpV60iiLPvmOzm789lSrcYBMnbMeBkxbJSkZWfInDfelI8XvK9u3mvyxtx58uzMl6VylWpKMnGydVumdDj7PHnznQ9l1OgxklwGsTROr0ety7UJYozGvPTSS3YPEMfFF19s2yDSYi5pKFGkUadOHTnttNNsOu7EiRONGC6//HJTs3FLMOEqVKhgIyv4gRQ2lR4LBPekoG++du1ayVESAlk52YglEpeTIZvXrrM4ii8I/WNrO0pugRUHEC+VLprXtktyJf1/AncCK8u5W3eNHSuntDpY7r6lg7w65XppUu0nKb9pupx5UlO5re+BkrZ0iJRZ94KM6H+SHFirhroZNaRa1USpkPuhlE99RpI2Py8nN9wkiRufkdv+U09mP9JZ6lf8SLaumCxbf54s6Rvnh10XRpsYUYnE999/L4sXLw7tlUyUOCG0e/fuNr2WabsISwyBzZ8/X2644QY7jt4BI+P3kebUU081awPfnJ6VSsAU865du9qchGObN7PzAh41N1MSax0hU7/ZIqd06Cozpk2RrMysEPvH6LnZ8smCT2Rbaul/9T5aEoiGYPYkMDeIeUGIm+RY5fIbZMS5K2XmsHh5aWSiDO/2o2R/N1qefWqKrP5gtCT8dJeM6rFOKvx4jWxb9bw6HCKbFw6QlLc6ypZ3+0jlFUNkeJcVErf0P3LIlgkii66RlPm9JO3jyyTzo8tk87yzJe33PE0Nl4T6jEYE0IsgL+YbIbSWVJQ40sCSQLxz8y2Yu9GnTx8jAMALbRAG49+Io8zNQMSi0qNnoHl89NFHMmrUKHuXoEH9Q+282NBAUXrV2pJ23mB594hu0m/yNDn/gq6ycsUvsmTpUrmoTy/p1PVcmfl8fvbf1SgdvX4x79GepeQ+DxPeatSoYZOyoM30Ne9K5h+LJE6ttVztZHIDVIh4iYuNkfj4ODwMkexYSchKlbTf5kls1jrJWTtPkrV6JSbHCPPa0ED4G6Pnxmt8QryelhAjSXqNxGCj5Pwx1367bt16Nnq1YsUK26fDY5SF0Re0o5KKEkcahYEhqyVLltgkGWaK0qjQMVClcV2Y+IU7A5F06dLFRmBQ8PNAVciVmLRUkYytlKRkxSdKlVpV5MTup0pKjSQ5s1sH6X1FL/mjaiDHXdpF7n5wkqxT12Z3AQJEnEPHQU1nZmE0yOOcPOup2CgmUdlVNW3sDi2TiOP6Nycn14icMkLQ3l36iXPbIsG91K9f37ZxZIOtG+0ZcyRJIzQY57ln4b8YCeJiJZeo1N8lKzdbUmQfWZleRT5YVkl+z6gk63MqW1gXEf7IrixrYqvIN2sqyje/5DU7SAiy+umnn2yfDhIrmTrN0GtJ7TxKxbKMWBlM43Vj3XxbgwZF42LkBJAGJdrN3QCffPKJ+owzZd2aNfLLhlT5dmO6Flx5yTn0BGnbNEkOiV+utJkoW9dulORyCRJTtpIkxaXLD2+8Lc3rtpXbRt2uV7Fao2HX8etzzz1ncysYdmaewE8//Sz9+/WW63ofLvGZqZKtz61VV28rsApurlcIVMTv1XIaOfFluabftVK9RnXJ1UZbFOIT4uSeB6dKRnJtufDf/5bsrEx4tVDExCfovfwgwx98XS699kbZt0pla4iRSEhMkIlX95B9q1eTbiPuVbLeKh88dIfMmv601K1fV1I2bdJeNN1m+jLlfFeB+sMIG0I5r7e7eStDhw61eoRLjKuRsrC/5C6/W259qoy0P1bkpMZZsnJ9rHS+LUFmDEiQ/SqlydCnk6RXuyypf1gjiW/5krw1t58s//4nGTdhmQwe3FAqV0wM6xbGNECJJykpV2bPWiMJVU6TB++baNHnn3++zd2g44sEzXJ3uow7mkZeKkijIPjuAYUNcRQ2PAW5jBgxwr67wbAjrzGXS06WnKwMWfzFEpn4+CPy9ZqfpeU5p0pM+WSJzc2RLG14VWI2SJ2kX6VS7kZ5/JGfZfw9z+q5R+kVaRi7hjTwsXndH6vqxhtvtAlFzz0/U/r07CGP9A+kQ4s0QXKhgruCiyvQyLfElpXFwdGyST26GH22HVU97TNlZUx9+SrzEMlVwsi7VOHPGqu/mh2fLPNzjpffUitpthT4YZCQIGXmPyE5bz0lMX0nSs7yRVL1rYky7dln5eSTTzFyHzBgoLz88kv2Gnm1atVCJ/5/8dBDD9loHPWFOSSMVoDBgwcbMXOMPN20oI/k/PSkdLw1Qa7qkihnt94iK9eUkfNHxsjjtyTI/hWz5ezBMTK8l0jzZgdImZaz5K23h8mK71fJ6HFfyJCBjdXlSAqR6XZCDYIESUoM5KWXVkm5imfIxEn/tXg0vGOPPTaqCXa7AnvcWq6MmlDQhb1sBQfS4JhLgJnHdzlq164tVbTXrrZ/LTn1zDNk5oxn5YoO58tHT82WXK3E5WJSpHHC19Is+Us5KPF3iaerTUiVKU8+FrrqrmP8d955x3QdngHCAOd26Synt2svo6bmynMfV5I0KSdJeixJbyshTq0ONZddiI3XSM2XLCWAeN1PUOsgfichoIKr/x2nzne8hqQ4reCFhMS4REmI0d/J1OYVm6C/xe8VCEo7QavOEntQQ8l9sK/kzJ4o3dVthDAAWtXgwYOM2HflrFFmahJ4R4m5Pw7MN3FfgguUNn7eWlE+TT1UUrIT5Gc5UD5LO0KWpNWXbbkJsjTjQPkq61DJVSvlq2215ctttSQtN0tScitLSry6MrExsim3vGzMrWhhQ0TYnJuscZVla2yyRM7DRqNj1nNpQqkkDcxM3j7EtGPIKtJExmfmLUvMTdfoImHDq2r29b/heulyWidZ/fpsaVF+mdROWCVxepmPFm2TBx9ZLSefdKUMHDQkfNauAiIYZFiQEBPKJMqvazPl+klp0m14IMv/KK+kEGd9Ga6KC/Ha+8dp0P/bkeIEOJJnj9PajGAcaERhITdWHaEgS7c1se1rX6qXsMC27edKVtI+EvS4Xcq0uxxBSokob1Ylk5sA5cLzMZdkV4COBLETa4MRuchXDoh3mgIW24bMQFYHVSVT3YnMpERZn1tdNkhFvfdc2ZxTVbera8I4+S2jjKzLLCPbtuXIV+n1lFAOk20xibJ4a11ZmNZQyaaRLEw9Uv8eKZ9r+DRdQ2pjWZVRXfMwLx8AUwkOPPDA0F7pQKkkDcQjiINRE4ZkmQEJMH2ZLMNbhkUBNYCmAvr3v1ayNsVJxoY0idVeecvWLHnz9S0yfsI0ufWWIVIjbDrvumxikhFvPOLzO7w7f768NvtlGXN5WXl7TCDZudly7X3psikrTuKztUHnbA8ZWvGztUEnJSih5GRLVk56ESEzHNS0kkA5JlOtk8zsLMnSxlxUyMlRS4NeNVuJA4sjKxQydD8UcjOytNFpg2p9gcSc0FOmPj1FPl/8heYiRCY2pwZy5P2XXQG0AacPQCC4tzRWgJvCqFt6eoYe0/vO3iKxmqexSmzly+pfzWs9oGSIuKvWWGyWJCbESIaSS5C1TVLT1ilZJijplrG+JVtJNzMmTnIs0GnFK93E63ai5ChR5ioZ6aUMlDOB+UmlCaWSNBx4LZlZdQxbATQMCAUVujioXr2aHNawlSz7fqNWqlgpVz5eqlcrr/Hb3xPY1WjUqJG9EAYp8r0LPhXXsUMnuaDrGdKh1wCp12aATLpvgCz7NVne/6OrJDS5VWIOH6xhiIWkI4ZKSoVeMvu1TVLjgE7S6MhL5IhGfQoJPS00atJHfv8uVxJ/z5AuzU+SjkcfL52KCOc0O0ma719XEt9/Rv5zmMitrarKkBaV80LLKuEwyP6WlZubJsnQ63pL0xZt5F+nnCannnyCHH10Uxk/fry9Z4HbuKsBWdGpMNQKmEJPnH2XVjKVDFLVU1OLKyZJypZNFq0WZlXR3cQq58WqOYLYm56arelzJDUzRTbHlJWNCZBGghJvgqQE5SU9p6xsy0mWTbFl7Xi6ujubggqSEZOsJJLHGkziYmRwd+TD30GpFEIdEA2Zj8F3RAFvbaIJ0OiKi3ET7pXvPhstXTrWtDH5iU+kyrDbZ8gxTbd/J3J34PPPP7dvOmDC8xIYU+Rxq5yVxMhDq7ZtZNSw4aGY7Vjw6WfS7l//ko8XfCKHFoNAz+3SRapV30/uvz9P0d8Rvvh0gZzVqZN9jPeAAyIre7gaheDuVA0RtV5eeWWOfL7wc+29y9nHlNzLhrsSDNtj5TDixggVbgpvm/bo0UMaN24i/fr3kJdmXiqbNqTIHeO+kyuvrC/VKsXK2vXZcve9i6Vfv6ZSo3qMPPzwCjmwdpJ0PquqVDn8Gum7pIH8tGqT5NzfT8pecKOk1W6g1opSg1okZX78WnLUnUmt1UCS42Ml48lb5brjj5A77hpnH5FCz0C0L2nY44RQB/ziSD0DX9kNyxYXpD80ebO0LLNYmpdZJpUSNkucmZW7F3yZjA8so80wrd5M7NAxwJBh2pbCl3KI1YRY49ojhGJ2AjPfi5c2byxG3Zk/Jc+L3x62AzH2bCWakcNHWIPdHYQB0C+YOMhHfbkHZl4CPrTz4qwXZdWvq2VzVpJsyakgGzZskbHjl8igEYtk3H1LZePmHBl3j+7fukQWfPabWhFqXcTsIykZ6ZIeU17SYsubpZKVo64Llgb769dL7swJMqhROWl+UA3JmP+C1N/2m/RVtxi35K233rJ5RaUNpZo0GK7DN3VvVDJ/g/dNCs4d2BG+XrJQGtTJkUQ1UbNScyUtvaxU328/O1bMJrdbEGEg/m1EdS0jGEijJOdO4YA0GEGhzjCC4iYA8unDChXKy4TJM2Rh0FgWbD1IkipXk+N7dpeWF18krS7tLu0G9pKWl/aQlpf3lDrNGsmPm8rIB6lHyncpyVIuNUXKJ2RovsRJomRJuYRU2ScxR3I/ekF6ndFCBvTqIteW+0GqLpgpjz46SQ6sdaC5Z7zJHfnl89KCUksaWAh8YIYKwLAV4LsaVGi+q1EcLFyyVP744S1pWidX0pUiUjNiZdPmDHnhpVlKHpkF+ss9F7zKTs9XHCA6M9zNsHBpBNYp4nnDhg1DMfBgjAwYOECee+JJ2fTbZq1bgcQm5Er52vtK2QOqSYVaVaVi9WpSuWYlDVVkn2pVJDVlm6QFDNdukrLPjZBnTqkkR9WuIP89paZ83qORLOh5uIzv1lY+WvSl3D1hglzf+0Lp1aOztGjRWhYuWijPP/+8WZKlEaWSNJiSzPsoqOCMMtCDODCTEqGN2aE7Al9NGjViuFzc9xqpWPcsyc6KkX3KZ8r4yzfL8jnXSp9uHeTt997VlNqjBsW3XEoSimsNnHTSSTZ7tjjEwRA37/6UtrkFOwNrj1zU9d/y3vRXpXpCJYmJUxdVLda4bHXIsnUzJ9AQoyFW4sokS5nYJDm4TAVJXb1eqiRkyucvPy/ly5SRWmUTpME+ZaRBuUS5steF0vuii+zbJjVq1pLKFSuZRnV136vtpcvd5ab9XZRK0sAXpNLSY9SqVSsUmwdmUzKh67LLLrOpw4WBITYK7dijj5Zzew6WMsdOlbItn5SgQhM5sNxWuePSbKkWN1/mzOHFIjXFtScqaeC5i1oRjHkHfJGdkaTigPwiPflZEJHEgwUHaVxxxRWhmD0Lw0aOkKNq1ZWlr75joxq58cyXDfQfelLePzqRmPgYaXzIodIwsbose/0jGXvXOHnrnfmyaPEStWTyhpUpAyYhXqGd2OPasZ2qLlDK5hSrdwyxure2SyNKJWnwKXheNGKItTD07t3b3n5FGSctM0MZVZk5c6YNZRJHQxk4aKDkaCWIj02W5IO6S8WTX5OEo0fKt5tqy4/rD5Hr+rFEwvaJOCUJTI+nEeOiRYJ8YUr02WefXewp2rgafOBo0qRJcsstt+R7w9LNb5g7d66Jdnx+EV1gT0Ry2bIy+ZGHJUetiw3r1quVkSsJ6s7Y/AylDxcq7lNO5r0+Vy3V2+SKq64xV+fNeW9Km+Pb2ouUANLg0w2OdPlE4JgxY+w4k8xY+9WlLW0olaSBlcEwGd/QcKDXZVlGxtwBIw68Mcin+iEXPnbL9xoxQ/kgLLNJ6UP4ltJzzz8nn326QBITqku5+kPkiU9PlXbn95X9a1QPpSh5lgZffuJDRBAkb/fyqURGWpjbgbvG28DRgFEFekY+J8CkK67NNbE+eOOS7zyQ55DLngTXqLFKZ0yfITWq17AlMU5q3krmTHxafvglR76NqS9f59aTZdl15auMQ+RXqSXV999fZqvVdeYZ7ez82JhYSVa3JSMj7xMOwM18xT3hmnwsCneaJQ/IV6xhXocvbSi18zQYIWGojMqOOPfhhx9aATEllwrPOhM7AyLq2DFj1axcZPuo2c2OaSYPP/KozJgxLbyeRUkGFgAWAh9w4WUs55rxTgVF6yyF4oL1SiFVvmaFLsS7IkzZh5x4sWpPBJ8hOOecc+xDzFhaICM9Xe68a7SMf2iqpDRoJzFtO0lQ+QAJYhMk/pv3pc3XT8u8N1/T/MV5yXNJIFUWhKZD4lu311xzjREu66bwFivfsKWOAvIWaxEXcvLkyeG3bksKSs1artFi8eLFQYsWLWxNV5a/UyIJJk6cGHTo0CFQ0zBQMvnTGhKkWbduna3Z0b59e1uPIj09PUhNTQ3uvfdeW3uztKyhwrM4RG7/UyiYd3silDACdS8CtdJCMfmx+IvPggu6nRNUOOiwIKZ1tyDuqkeD+MsnBse0PT7IzMwIpcoDy4ZSF9VtDNSVC9TtC5RsA7ViQinyg/VUlOTDy4yWJJSaZRmjBdYGbygWHP5jBSxMbXphXlDiu6MOzLRE1+AbBvQM7hVpB1bGwsIo7GU3jz0PzBJlNI5v0UbCGkWQq5aEWgbaRJZ99aVMmzZV5r23QL5a/ovEZ2yW9p3OVEuhqlbEwJbfwLpgVI7RJd4hYmmCyDdqCwPvS2F9ILyWJOxx39MoLhh6RQyEHByYmo2+wVekPDyo/tG4cGpdyMpffpGVq1bLag2se8L5dFx8AIqP/PCt2tK+eNceO418Z6AwCy5GXNoXJ/b4Z0Edieg3d4rExCSpW6++vUjY/cLuNi+IIWhGlYhjOLW0E8bOsEeTBgTBkCSv0LO40u23324vt0UrDnrs2fg79QHB+L//zfsK196CPZo0GCakJ+Bzfyj/DCWiWPN2oYfHPwHW4Pnggw9Ce3sH9mjSYNYk8zV4rZyhL+ZsMES7/UvlHh5/D4iYe5vlusdrGh4e/08wgheNJrInYI8mDQ+P/zdY4W9PfRenKHjS8PD4i8DC4E1V3hLem+BJw8PjL2JvdX89aXh4eEQFTxoeHh5RwZOGh4dHVPCk4eHhERU8aXh4eEQFTxoeHh5RwZOGh4dHVPCk4eHhERU8aXh4eEQFTxoeHh5RwZOGh4dHVPCk4eHhERU8aXh4eEQFTxoeHh5RwZOGh4dHVPCk4eHhERU8aXh4eEQFTxoeHh5RIeplGVmh/bvvvrMV11mlvH79+rYMXVH4448/bG1VPvXOupacEwm+5syK55mZmfk+n8YqVaz8XrFixVBM4WD17XXr1oVX4wY8EmtjVq1aNbx6Oojm82w8H4FzWNmb1dN5dtbsZBEmVqdPSkoKpc4P1uf85Zdf7Nk4t0aNGqEj28E9kYa0kffFGrKcQwCk2xs/K0edWb9+vZUjS0781VXLCuZfSc3PgnU0cp96RDvKysqyfKBeR9b3/wf+kVXjtVEHI0eODPbdd1+eJhy0YQd9+/YN1qxZE0qZH1dccUU47bhx40Kx27Ft27agWbNmgVaOoFy5ckHZsmWD5ORk29aGGfTp0yf45ptvQqn/jLvuuivQRhw+Vxt3+Px69eoFgwYNstW5o8WECRPC9zR79myL69mzZ6CFGGihBUqcFlcYFi5cGChZWdqbbropFJsfrMh+wgknBFoJwvdOYLtWrVrBBRdcYNfZG8Eq/i1btrQ6Q1m+8847oSN/DY8//nhw7rnnBr169QqUqEOxJQ8ffPBBcN555wVdu3YN3nzzzVBsEKSlpQWtWrWyutK2bVvLn/83drRqfLHpiqXnbrnlFmN/en9Wxq5UqZL19JMmTZL27dvLb7/9FkqdByUSW2zZYdasWaKNJbSXB5iUlbaxNNxfGJVteuJHH31UOnbsaNuFgfRcU8nH2FcrmbExPfjy5cttKUYljlDq4oPrErhudnZ2OE7zzOL4WxToGVyajIyMUGx+8Nzco3tW93tsr169WqZNm2Z5+tVXX4XO2HugZCmfffaZbWuDkeeff962/yq41nPPPSczZsww67GkYsWKFfLss8/aUqLff/99KDYP1AvqCvmxu1Es0uCGH3vsMds+/PDDbWl+luj/4osv5IYbbrB4GgmmeyTeeustWbVqVWhP5JNPPpHPP/88tPdnsHQiFYbr8hssqgtwh8jIwkDjc3jooYfk22+/laVLl8prr70WdpteeuklI7to0Lt3b/nyyy/tWieffHIo9s9w5MFfyKIgIu+vKGB+f/zxx/bcCxYsELXcLB536JFHHrHtwsDvFSSvgnFFbe8onUNh148ExyDsgtcpuF9YvuwIlLUjakDHQ+fkUPA3HArGuX236DdlsSOzvqjnLSwOFPZcpC0qPeBYYXkGIhcnx011wEWD9KiP06dPz3fMoajfLSwORD5rUWmKQrFIA3bbvHmzbVevXt10DHrzgw8+WO68807rFWmkDRo0yHcDL774ov1VN8H0CXrSl19+2eIKg5rm0rhxY2nUqJG0aNFChg8fbpoEIMN2BrSDatWqSe3atW0RG0gIcK/O+rj66qttjdchQ4aE7/Wnn34ygurSpYsxPYDgRo0aJaNHj/4T60eCyo2lxe8df/zxcuONN1pjL6xgiwLWkXtuddVk2LBhtqQk+OGHH+THH3+U7t27h++Pezv77LNl8ODB1hAg7AcffFDOOeccad26td3LgAED7NxI0qKnoqzUVLd0rNeBFcb9RqZTd0DUlJc2bdpYmptvvtnSOJCP999/vy1zqW6EkSr5CvFRGbkW1hL3wPmUJWnJT/SrHYGOh7oEjjrqKGswlE/keqlcn98nDy6//HJR99Pi6dxYp5fy5bfoKC655BKZM2eOHaf+XX/99aIugKj5b3HkCRZIt27d5LjjjrOV33mWRYsW2XFA/rMGMPlL/tHxnX/++ZaHxLFP+6BOqfsgp5xyilnIkcDaUVfVlgnldygj6rdrVyNGjJDx48fbNqAD5J7Gjh1r9ZROm2d68skn8zV28uqiiy6y36X+XXzxxVZ+DlhWV111ld3n3XffbXWCTon0LFc6derUfGVfLOgPh1GUpqEZG2jF4E4tnHbaacHTTz8daAUItNGEUuWHmlqmd5BeM8B8Sra1YQRauKFUgW03bNjQjmkFC8XmQYnC/HyOoY0UBm3UdpygBRqsXbvW/Fa1LoL99tvP4rVxWVrtrQK1PiyuefPmgVZwi9dCN12EeHXBLE7JMHxdNY8tTiuK7aObqEVjcVqQ4XQu8Lv4n2z369fP0hUEv62NydJo4wjUjQkdCYKVK1cGSs52TCuO3Z8WrO1rhQuUGG1bG4edp43H9gkuHUHJ084FlFOkvhSZ7phjjrF8A1qxwvfOX5cvRx99dDiNkkH4GpSxKyN0HG1s5nNrg7I4dCE0IHdNfHMlObtOYdAGHj4PLUndYNvXRhtKkYcePXpYPHmhbrHFoV3VqVPH4rXhWv1EI2K/YJg4caKdow0qHBeZJ+qCh7WsTz/9NHz/5IPLfxeaNGliWkNknHYawdtvv23no7vxPJHHXVDSszQuvwqGDh06WPuj3bCvHaHtg9tuuy1Qy8niuXd3//yWdmSWhjJDIyMejQ+dkG0X0Ix4voLYkaZRLNIAiHJqRuf7wcqVK1tDnzx5cqCMFkqZB+0Jwmm0lwoefvhh2+fB1G0JpcpPGmT+66+/HrzxxhtGAJEF8dRTT4XOyI9I0nAiqCsg9ocOHRrO5I0bN1pD4hik4cCzucahvbzFRZLGCy+8YHGRpLF8+XKrpI6EKlWqZOdojx9+HkJxSOOQQw6xCspzqxkaaK8cPv+ee+4J1BXMV6HVKgm09w9eeeUVE2xd/JVXXhmoOxVor2QNmDgaD+C6Lh3PASFTJjwLcYiF/I5rZAhyPOO7774bHHTQQRanPaM9c82aNW1fezUTyClfRG7txe23Xn31VTtOeOKJJ4ywvv76a2ugRZWjA9fkPBoHuOyyy2wfIlZX1+IAojTxkOvvv/9ucdprW14SrxaDCYiIqB07drS4pKSk4IEHHrD7g2jUErZ4glpxRnizZs0K9t9/f4tTV9wITt3GfERKQ1dLIpwvBMpEXclA3dpwHI0a0Olwn+rKB2qNWT5TLqQhL7l/fhvR3J17zTXXWFtQC8U6Bq5PvMsX0ruyQjRWd97KypELRK1WhdV5V0cJ7du3tzI466yzwnEYAAXxj5AGIKPVhArUDLJG4n6UAHlEjqBgjRCPEgzUXA33/GSIQyRpFBXUdbAKUBgiSQNCoGeC3BjlgYXZhoBANKQxZsyY8HUdaTCiwT4NTU1mKySXRt0SSwPee++9cCMvDmkUFc4880zLH3oCdz01Ka1xODgLkB5k3bp1odjtjYp7VfcqXJkrVKgQtpIYwaHyq4lrjX/gwIGWhl6SxkOZQQiuV6ch0nO53oq8vf32261hUvGd1Ynyz3GCmuFGpDQ8CGdH4NqufMh/EHktiM1hZ6TByJQDZUAcFtGyZctCsYGNzBFP46MhO9x6660WT6CMIWLXEUFiDs56pi24Eb758+eHy8pZuOQz90heQvTUWTc6xG9DzmD69OkWR4DQHbDcCpIGBO7SQn4OkLSLv/fee4OtW7eGSYO6wr0ALHGXTl0ei4vEjkijWJqGprO/2uilf//+Mm/ePPP51MII6wZqion2NraN/oCQCfA3lXHN53Z+PsIk484O7vrMTdDCtoDvp4Vqohj+oVZ+S7MjoC0gXCKmcn+MPiCi4qOiTBfUGdzv/hUgWuFrO6DbOGhFiMpPZO4KPibPjZ+JjzplyhQTv9A70AkcyG9t+LbNyIwTmpk3gm7kwBqjAP0BHUErre0z8uXmjSAKIviS19qD2twIwO8p2Ztmpb2p+b0AXYPfpg7w/OQtmgg6AHrWpZdeauWNb42uANAO0B3QatBt1DIqMt+1Zw3fgzZCG/lSq0C0sVsc+bEjFHVdl38cj0zjRvvUsrBndeBZHBYvXmzP6s5zeQ+cqKqEEtbeCgNlRD4x4qg9vGkZanmFjm6/78h7QyzdEajPgPrBdR2cDgSUhO2vA/fo7jkaza0gikUaZLqazqKMbaIbP0hlQmRiOMxVQtR/oGwqynC2zXkIRAg9roJTiT/88EPbjgQPjIhDQOBh5ADRymXCzgCxUMA0WoREBD8AQSEAccyBzHMN22VkNKCAI4kMkc0hGsIAEA6Ni+em4WhvIdq7W4UoiEgC4XncPUAOkcdc/gOu49Ih/EXeK6MSroK6fGbSGqNiNNqRI0fKHXfcYSIaIi+gHtApIHQicKp1YIIeYh3nQEBq8poQDpFAIhAjhMB1nQhZEHQmDnQUCL10RGptWdz7778fFqVdAyOvXflFlmlh4FjkcZcnkC/Bwf0egIgjG3MkIht7YWncfSEq8zy0E9oL7WBnK83vrA45IkWIp006IHwSByLrJ4isH38HxWotFDIMqf61KbEo49wAGcVcCHfT6hLYX9cj0AOhcjPH47777rORCDfTUf0q+wtcBhVVODvLQAcaDhlGg+Ee3UgI55PJkddXV8UaDJVF3Y+dMjuIPJ/0DD/TQAAk5xojw6bRFFBRz70zQN5NmjSxbeZzuLkN5AOWH2DYmVEZAmD2LJYYYKQCVR3rButRXTaLZ7QMy4AGzsgJlgW9GSQMoUAYEAXlycgEnQV5ARjyJm9o4FgwjAKoiS8zZ860vCJfIPCCIG7u3Lm2jaXl6g3WI79PGWLFRBILoJG4OTx0UMwNKgiXvxCmG60ALu8gMwjbgbwAdD6MDrlGGC0oH0jOdZCM0GGBYa0UNu8osp5HTl8orH4wcgN4Jp7bgfxxde/II4/8x4giH/SGwihK00Dk7NSpE3duAfUYxR8/ywluCJCIMegDmlkWh49WEAgxHMMXZZQAkUdNaYvDZ44W+NScS0DAqlu3rgWEIBfPddEG8LmZfUqc9gKmJuNDKyOHVWiEU7AzIZQZodo4wr6pFnighWQjEQhu7txrr73Wzi0ILcywpoEATD4UhU8++STsJzNyEQmENVcGamLb6A+6h/t9tfAsHT639nQWxzOr9Wf5wj7lhQirFll4tAI/He0JjQc/mjhGARDXKH/ymntB/GMEidEG0jD6grDGNnkxduxYE2bVKrU48oZ6UhBKEHacZ4nUHQBalBsVQU8D5Cv7BEYH0Fe4tlpfFoemQR4DRGOXludjJAYNA2HV6TM8E7oUo1UurxFlASNQCKDEObEXIBa7c7kWiNQ0qEuMIqJbsI/Ohq7Ab7r75J7d8zLaQhyBskKcRW+gnkVqGuyjVbj6w/URmdWqs7pJHEIr9X39+vXh0RNGYhzcKBUhWk2jWKQBlPksU91QYGSg0buGRRriaLjccEFQgdx5bFOwLkPIUFfQxYWaznYuFd8VFgHhisKh4F2BgilTpoQzlkBDZ3jKNTwEJkBld2kQBQGCLPtqaofFRLUq8gm5KOqMeLjp9q7iFQTP6YbZGMbbEWlADI6ImRZfEIhalEHk81ORIYbI6yIqkteR6SCQyEoD6bdp0yZcqQlsIxxDLIitVNBIUibQafCskDOKf7t27fKRJ4GGoBZn6Je2g0aAkE4axN/C4IaL+Z3FixfbaEzk6AX5jUjvSI/rcV1A+gYNGoTTEngWQN5C/JHPS11A8ISsAM/D73IsUvCGYIiDQCNJwxEMgipg1MSVH51T9+7djXzYJ96RKG2MTjWyfFx500mzz70iWgMEbvKZuu7Sk+cMxdMhA8Rll090/A6RI1zRkkaxXlgjiT6IbSOGMYkHU1Ez2rSDVq1amSlHOsQxTH8EN2eyRgLXAZFLC9QEKMxcxEv8SKalR4pQxQFiFualuz8HLXi7PqZgwWOIpIi1TnjVgrN74P55HgLXxYTkXO3F7N5wxdBHeG7MfeczkheY7LgnmLO4aVyfffKhsGfit7SHMfMaf5+8cj5wQZCGPOMcl2cFgYtIuVA+lAWuBq5JQZD/mMuY8aRjopHTpFw5c9+4Ogi93BOaC6Z8pLbE75AGcx+3A5ET8dXltZKi3TP5igtIOXBP3H9BUBfIL9JxHFG3IBD1nPDM/ShpmRhIvnOPSsBWbvwe7hX5HikQ4orilvH8PAd11rnKuHM8C9fjWNOmTW0Co4Ors7gpNWvWDN8frgfX1YZqz865uBW4aOQlaSkD8oIJYFyfe0e7czob+aUdrD0PIO9JS/nwXOSrWlnhNuLqistn7gmxlt8kjvugblJHAe4Lrit5iz7jnos6S1vl3rgnJy047OiFtajfcv27cBWzJKEk3FNJzBePvRc7Io3ohw3+JkpiwygJ9+QJw6O0YJeThoeHR+mGJw0PD4+o4EnDw8MjKnjS8PDwiAqeNDw8PKJCoUOuHh4eHsWapwEgDg8PD49Cv0Su+BNpeHh4eOwIXtPw8PCICp40PDw8ooInDQ8Pj6jgScPDwyMKiPwPszSMQvTF3KYAAAAASUVORK5CYII=;" parent="1" vertex="1">
          <mxGeometry x="260" y="340" width="175.98" height="70" as="geometry" />
        </mxCell>
        <mxCell id="OuTpp7gKNCbVnQCvF9Cy-6" value="" style="endArrow=classic;startArrow=classic;html=1;rounded=0;entryX=1;entryY=0.5;entryDx=0;entryDy=0;" parent="1" source="OuTpp7gKNCbVnQCvF9Cy-3" target="OuTpp7gKNCbVnQCvF9Cy-5" edge="1">
          <mxGeometry width="50" height="50" relative="1" as="geometry">
            <mxPoint x="400" y="380" as="sourcePoint" />
            <mxPoint x="450" y="330" as="targetPoint" />
          </mxGeometry>
        </mxCell>
        <mxCell id="OuTpp7gKNCbVnQCvF9Cy-7" value="" style="shape=image;verticalLabelPosition=bottom;labelBackgroundColor=default;verticalAlign=top;aspect=fixed;imageAspect=0;image=data:image/png,iVBORw0KGgoAAAANSUhEUgAAAIsAAABLCAYAAABA8XRLAAAAAXNSR0IArs4c6QAAAARnQU1BAACxjwv8YQUAAAAJcEhZcwAADsMAAA7DAcdvqGQAABGhSURBVHhe7Z0JuBZTH8CPrMlSiayFUFK2ZC1LWpQ10iYkz6MnESKeStq+LJUlnxIqS0j2sqRIC7IUsmSr7BVPyRJCdL7z+9/5z513mvfeefXe+91b5/c857kz58ycmTnzP//lnDnv3cQ6jMeTggrBX4+nWLyweFLjhcWTGi8sntR4YfGkJq/CsnLlSjNy5EjTpEkTU61aNbPJJpuYGjVqmPbt25tnn33WrF27NjjSUy4hdM4H06ZNs/vvvz9huKTtttvO7rrrrnaLLbYI81q3bm2/+eab4AxPeSMv4yxTpkwxZ599tvntt99M06ZNzWWXXWYOPfRQs9VWW5kffvjBTJ8+3YwaNcp88MEHpn79+qZ58+ZmxYoVpnLlynIc+zvvvHNQm6fMIiKzHixZssTuvvvuojn69etn16xZE5QU8scff9jLL7881DDxVL16dXv99dfbP//8MzjDUxZZb2Hp3bu3vHCnWYKcQv755x/7yCOP2Lp168oxm2++uZii0aNH26efftredddd9qyzzrKbbrqplJ955pl21apVwdmessa/FpY5c+bY7t272ypVqtiKFSva+fPnByUFvPnmm7ZVq1ah9nDmyc6ePTsozWTGjBl2n332keO6desW5OYOGuyvv/4K9jz5Jmdh+eWXX2zXrl2ti3RCQTjkkEPs33//LeXLli2zzmcJHdv99tvPjh8/PizPhvNn7E477SRaZubMmUFu8bz11lu2Z8+etlGjRrZOnTr2wAMPFC33wAMPbBBa6qGHHrJdunSR1KdPnyI7w2uvvWYvvPBCSc8//3yQmz9yEhYE5aSTThIhcA6pveCCC2QbraGgGchD4wwYMMA6BzcosXb16tX29ttvl+MxT3GGDx8u555zzjlBTnZ+//1326NHj4xoK54OPvhg0XDlFdqLDhB9JjR6NsaOHRseN2jQoCA3f+QkLFdeeaXcSL169exnn31mFyxYIPtRYWnTpo2tXbu2/eSTT4KcAqZOnSoaKKqRTjnlFNEMyuLFi+2WW25p9957b/vrr78GuetC7+rQoUNYT4UKFWzDhg1Fo7Rs2VI0lJaxHb1GeeKll17KaC/SpZdeGpSuy/333x8ed8MNNwS5+SO1sPDyK1WqJOMnmAzgJXBjUWHBST311FODPWs//vhj0RQujLYtWrSQcyZOnBj2GIQDDbF06VI5vlatWnbrrbeWKCsbt956a9goe+yxh3Whe4aZ+/rrr+25554bHoNpQiuWNzp37iz3j0+4/fbbh8/7448/BkdkUmaEhdCWm7j44ouDnOzCcvrpp9uffvpJQmlePMcgQKhVZeXKlWKmKleuLOU1atSwt9xyi91rr73sNttsEwpPnOXLl4ehOnXPmjUrKMmEMLx58+ZyHOnuu+8OSgoc6qeeekr+AqZq6NChcj8PPvig+F1FgUYlkrvuuuvsjTfemGgaeD4iPq7z+eefi6Z87LHH5BrDhg1bJyCI891339kdd9xR7v2MM86w1157bfgsSSYcyoywqK/ywgsvBDnJwtK+fXt54fvuu6/ddtttRciuuuoq2T788MPtiy++GBxZgGoefUgSvkY2R27ChAnhcWiPouAlEq5z7IknnmjXrl0r+Q0aNJA87hEfCzOmdZIQXF5yHF74JZdcEnYATZzfrl27jB6vbUPi+Y466qiMc6gDHy0bY8aMCY9FOBYtWiTamX3MdxJlRljwCbiJ9957L8hJFpaOHTtKREMD4dco9F5eGA4p/sZHH30UlBSAECIk1Me0QTZVi2bTBkl6oVEIpdXc4ZCvWLFC8o888kjJU38AQebamECtG9Uf1VqYOZ5Ny4nyTjvtNHvAAQeEeQiMmsO5c+euI4Q77LBDqElJCPK8efPk+CiMTzVp0kSO2WWXXcL7pv3IQ/MiPHHKjLCccMIJchOEZwoCQB7qXmGQjYdKgobEf+Ac/B/UOOpawcQcffTRUo4znQQviHKE7sMPPwxys3PyySfL8fhGmA9QYSHR49FuvCBCbUyhDhIed9xx4ctHMPUcBFZ9IKIyNKeWTZ8+XfKjwsJfzM+3335rv/jiC3HE9XjMSxx8QtUihMzKuHHjwvMwZXHKjLBcccUVchPYaAUtQx69CxsLCAsvKAnMwEEHHSTjMJgnejSmAFuuJgKNgxNNGQ0bR18+wrZw4cIgNzv0dm1ANCGosFBHVFMq+F2UI5CqAfEbyGPwMD5+g5BXq1ZNypnWgKiwIOBREFoVhk6dOgW5hTCeQhmaj4hI+f7770M/hsgyPj1S0sKS+hMF57TKJwfOlhrnvEpe3bp1zYgRI2RSkAlBJ/nGPYAclw0+U6hatarp3bu3cVrKuAYwXbt2Nc7sSLkzQcY5w8a9EPPyyy9LXhQmJ4HruN4t20WhxzjNYpz6lm3FCapxgh7sFcKzgvObjIsCjdMuxgmV5PEZhvPfjNNIkpwmNM6HCK/z6aefyt9oGzhfLdgqwIXzxnUG2abuKE5TGdd5ZNt1LHP88cfLNnBe69atZZv7eeONN2S7tEgtLI0aNZJGcrbSuFhfGnKzzTYzLuw1zhxJg1100UXy3YoTwuCsTBAUXrJT+bLPy0Jw2Kc+xal/+fv+++/L3yiuZ8tfGtmZIdnOBg3v/CbZdv6CcfZfthXnZBpncoK9QqIz4HQE5/vIjDog1Ag5L4r0+uuvy/NzP06TyPPFiXce9rN1qFdeeUXaGLhW27ZtRUBITuOZt99+W8poS+f4ynZpkVpYaFRnz02VKlWMCy+NU63hjdesWdO4UNLMnj1bPlFwEY9xDm7Yy4BG5VMEXp5T75JHAyNY8cbjwylw0Yf8jRLtaY8++miwlczMmTONM2Wy7Rx0+SQiCgJKo8eJaiwECm3mHF7Zd+ZIevU777yTkRDsd99914wePVqOy9ZhiuPhhx8Oz/3qq6/Mk08+aVwILsn5TWGbwzPPPCOarrTI6Us550uEL3Xq1KmibXr27GmcvyJ5qGQX1Zj77rvPOJttjjnmGDNw4EDjHELTuHFj8/PPP0uvVc2SDX3Bzj7L3yjHHntsaDq4B1XZcWhE5zyGwnDeeefJ3yiLFy82zukM9gpxfoL85Vlr164tGlQ1Gr3eOenG+QwZCe2DmUBb/luWLVtmnnvuOdmuXr26cUGFaNloIg9TDdw7bVBqOClOjVOR4jy5m7ZOCDIG1EaNGiWhqsIIrEY+DLmPHDlSIgdCVKIgwFF0WknqUQcZNEScPHlykJMJI8CUk3CGnd8kTibg9HGfGlWRmjVrluEMRqMhxoWiDivXJDSljGkN7hkY1NNz+vfvnzFiTFTozKmkO+64Q/KiDu6QIUMkTyEUpk30+sqdd94ZXoNBv2wQBaqDzPSG6xCSX2aiIWDcgRvRQSFCTh5Wb5AXROiIB+8cXnmRRFHREVEEqChheeKJJ6SRmR9iFDgbV199dXhdEqO6zDzXr18/DH1JjNl8+eWXwVkFRIWFxDnM1NLw0YlJZxKCMwoG5JxWC8voML169ZKBQR2KZ6ANwYFchYXQXesn4iluFFk7FONBOg9XpoSFQTYak/AxOnTPdPgRRxwR3qhT3zIPRINFYUSVRooLCzPUjFsgZAxcUQczqMWBtuI7X71uNDHg5ZxDmSeKo8LCSLPzgdY5l2ccPHhwcHQhjJPoSHY8UZfzIYIjC8egSIyxREELMjRAGR+DQfR4Bv+K49577w2P79u3r+SV9KxzTt/grlmzRsJFHDpsq+uJQYkRm+1UtThdREV8k6vgqA0dOtTcc889Ugff43br1k0cWL7JJeLA08dhpR6irdtuu02ii+JQO48Dje9UqVIlCelbtWq1Tsiq8AxEMg0aNJDwnOvOmDFDwnV8kzZt2oj/lQT3T8SHX8Nz4cc54ZOoJRpFLV26VIYZ8M+cFhBfSyFKYxWEPj/X435cp5NnJnTHDyoKfDKcaZx0J6jm/PPPl/eCD8crdZ1V/Ju8grDkgnvhIrmobtRpUaC6mf/gG1vOQWswGEc+MFmInaeMRG9DZUf9gZJANQsDhCV9rQ2JnIUFJ1btJVMA8TkewP7ie7jeEQqCi0Yy5opAHdU999xTRi2T6ioJosLiemaQ6ymOnIUFWPujPgpOLM6hC5dl2B7HCudPhQSnTedLoqBddPYXoSlNdMKSj7S8sKTnXwkLYIL4aksdtXjCwSSkTQJnVj9LaNy4cUbIXRqwuoBvbXCQvRlKz3ovMmNgi0VkLCBjSJxhdZwsnD8cO5zVww47TOZlGBllqNz5MTIS6cyPLFCrU6dOUJunTCMik2eYYo8OiqF9CJF1sIvE9xqM03jKD3lZvpoEITAaxvkjZv78+WbJkiVmt912M87XkYXyzLE4UxUc7SkPlJiweDY8cppI9GzcJApLmz7jTLNLRwZ7xtz+6CzT8ILh5qtlBdPhk2d/YHY6qY/8hZ9+XS3lg8a+IPvg6yifdRRForBw4vbbFny/oUQr07LoMdxYFF9H+ayjKBJ9llnvLjKVt6loDtp3tyDH48kiLKgypG/hY/2CHM+GTFrlkCgs7y1cIum8Vsmztp4Ni7TKwYfOntTKIVFYcIpQSx5PlMRoiNAK1eTZOIhHTNlIFJZzWzY013ZpEex5NnTSKodS81mmTZsmC6iYpQbW4tSqVUs+fyzuE8KyBGuDhg0bJstR+vbtG+Tml+XLl5trrrlG5tdoo8GDBwclBXTp0kXKevXqlZe2Y2AOerQtWNyXjVIZ7mdxGmuJVFCAh12wYIEsoiqrTJgwwXTs2FHuvTTh+17ahw5FmyGgUSgDXSW5viAkxQkKpBruXx/QKPPmzZNtViSyNppVdyw+Y1/XLpdFkpai0pO5/5LSKkB70S665rq01zRnI9EMMVdQc5eq5vHruwQ5/54hQ4aIBkEwOnfuHOSuC6r38ccfl5WM9ByWybLisUOHDlLer18/6WXUMWnSJFkHzNrlTp06haoYTfDqq69KGY3NklW+nGdlo57frl07OR/1zioEViSQr70V80I+KwYQ9CisrARWJ6h5QPNwrZtuuilcQdm9e3e5BzoGFPVccRYuXGj69+8vH4zxAwFscw6rARSuCdwPda0vKIefV602L/63e5CTTKJmmXvvVXkRFFDTo8s/Uek8rCaECcaPHy8+jb40GptlJfEXxvmUActAWD4BCADHaxn1UB8vKgrf11BGYi02gqzXBPbj5xQFwsX5c+bMkX1MBveAICM8aZ9LUS2MMLIUlno4J26K8knSfFESJe6zRF9EEpSjVVT1Yp5Q8/QqoEdGocfRY1VL8XKBRflAPufj/EH8fNZcU86vP7CeGE2jplGvyZof6kEbAn8pT+rF9erVk7/6iw5qMrjPXJ5LUWHRdUvUA6xrKinSKodEYcE7Vg95faGHgP6MhL5MfRGgv7aA4KB20Tj0viRYOEaPjZ4PaBlQzUXEkgSLuoA6+FUFNN+AAQOKvGZR8FIRBoQW4VCh4dckcnkuQHvoc/DPMqLHF/fzIqVBorCMnzLX/GdcflbnszoQULv4FDQorF5dOBBED4doD9SU1pHEroMKoyZ+YCgbmAh6smoO7fVx9Gct9N6jIHSqXTBfmAxME/m5PldRjiwCl810rS9plUNWn4WUD3Dk9Ed06CXaY7DjCrYZDRTtgZpwWNOAMwtxnyhN2Isfw7HxXq8CiEBRHv29mSgqLPpMup/rc6n2iAsWphNKSrukVQ5ZfRaioXxx8803i28Q/eUlehs9kDW5gA+BfSY/F/R49TH0BacBTaJmknr0pSiYmGg566iTiF6X49TfgLTPpY4x14v/xgtrqUH9Ga0r2/3kSlrlkBg6+4+fPEkkCov/+Gnjwn/85EmN//jJkxr/8ZMn7yRGQ/7jp40L//GTJzWplQNmKBtn9R5rm15S8FOdMGLiTHtY52H2y6UF/8pu0qz37Y4testf+HHV71I+cMwU2QdfR9mvg/NJxZF1UA5KYwWcr+P/X0faj598NORJTZGaxeOJ4oXFkxovLJ7UeGHxpMYLiyc1Xlg8qfHC4kmNFxZPSoz5H5KftTn6YpafAAAAAElFTkSuQmCC;imageBorder=default;" parent="1" vertex="1">
          <mxGeometry x="681.17" y="333" width="142.71" height="77" as="geometry" />
        </mxCell>
        <mxCell id="OuTpp7gKNCbVnQCvF9Cy-10" value="" style="sketch=0;html=1;aspect=fixed;strokeColor=none;shadow=0;fillColor=#3B8DF1;verticalAlign=top;labelPosition=center;verticalLabelPosition=bottom;shape=mxgraph.gcp2.process" parent="1" vertex="1">
          <mxGeometry x="150" y="297" width="42" height="50" as="geometry" />
        </mxCell>
        <mxCell id="IPrCYm6E3xCLuTnceemR-1" value="" style="group" vertex="1" connectable="0" parent="1">
          <mxGeometry x="122" y="30" width="70" height="100.00000000000001" as="geometry" />
        </mxCell>
        <mxCell id="OuTpp7gKNCbVnQCvF9Cy-19" value="PO" style="whiteSpace=wrap;html=1;shape=mxgraph.basic.document;verticalAlign=top;align=left;fillColor=#fff2cc;strokeColor=#d6b656;" parent="IPrCYm6E3xCLuTnceemR-1" vertex="1">
          <mxGeometry width="50" height="53.2" as="geometry" />
        </mxCell>
        <mxCell id="OuTpp7gKNCbVnQCvF9Cy-21" value="Invoice" style="whiteSpace=wrap;html=1;shape=mxgraph.basic.document;verticalAlign=top;align=left;fillColor=#FFFFCC;strokeColor=#d6b656;dashed=1;" parent="IPrCYm6E3xCLuTnceemR-1" vertex="1">
          <mxGeometry x="10" y="23.200000000000003" width="50" height="53.2" as="geometry" />
        </mxCell>
        <mxCell id="OuTpp7gKNCbVnQCvF9Cy-22" value="Delivery" style="whiteSpace=wrap;html=1;shape=mxgraph.basic.document;align=left;verticalAlign=top;fillColor=#FFFFCC;strokeColor=#d6b656;dashed=1;" parent="IPrCYm6E3xCLuTnceemR-1" vertex="1">
          <mxGeometry x="20" y="46.8" width="50" height="53.2" as="geometry" />
        </mxCell>
        <mxCell id="IPrCYm6E3xCLuTnceemR-7" value="" style="rounded=1;whiteSpace=wrap;html=1;" vertex="1" parent="1">
          <mxGeometry x="32" y="28" width="70" height="100" as="geometry" />
        </mxCell>
        <mxCell id="IPrCYm6E3xCLuTnceemR-4" value="" style="group" vertex="1" connectable="0" parent="1">
          <mxGeometry x="37" y="18" width="60" height="110" as="geometry" />
        </mxCell>
        <mxCell id="HBNp4rY9nTRqI35zbJ0y-2" value="" style="html=1;verticalLabelPosition=bottom;align=center;labelBackgroundColor=#ffffff;verticalAlign=top;strokeWidth=2;strokeColor=#0080F0;shadow=0;dashed=0;shape=mxgraph.ios7.icons.user;" parent="IPrCYm6E3xCLuTnceemR-4" vertex="1">
          <mxGeometry x="15" y="40" width="30" height="30" as="geometry" />
        </mxCell>
        <mxCell id="HBNp4rY9nTRqI35zbJ0y-5" value="Customers" style="text;html=1;strokeColor=none;fillColor=none;align=center;verticalAlign=middle;whiteSpace=wrap;rounded=0;fontStyle=1" parent="IPrCYm6E3xCLuTnceemR-4" vertex="1">
          <mxGeometry y="10" width="60" height="30" as="geometry" />
        </mxCell>
        <mxCell id="IPrCYm6E3xCLuTnceemR-3" value="" style="html=1;verticalLabelPosition=bottom;align=center;labelBackgroundColor=#ffffff;verticalAlign=top;strokeWidth=2;strokeColor=#0080F0;shadow=0;dashed=0;shape=mxgraph.ios7.icons.user;" vertex="1" parent="IPrCYm6E3xCLuTnceemR-4">
          <mxGeometry x="15" y="74" width="30" height="30" as="geometry" />
        </mxCell>
        <mxCell id="IPrCYm6E3xCLuTnceemR-11" value="" style="group" vertex="1" connectable="0" parent="1">
          <mxGeometry x="30" y="257" width="70" height="187" as="geometry" />
        </mxCell>
        <mxCell id="IPrCYm6E3xCLuTnceemR-8" value="" style="rounded=1;whiteSpace=wrap;html=1;" vertex="1" parent="IPrCYm6E3xCLuTnceemR-11">
          <mxGeometry x="1" width="70" height="187" as="geometry" />
        </mxCell>
        <mxCell id="OuTpp7gKNCbVnQCvF9Cy-16" value="" style="sketch=0;pointerEvents=1;shadow=0;dashed=0;html=1;strokeColor=none;labelPosition=center;verticalLabelPosition=bottom;verticalAlign=top;align=center;fillColor=#515151;shape=mxgraph.mscae.system_center.admin_console" parent="IPrCYm6E3xCLuTnceemR-11" vertex="1">
          <mxGeometry x="10" y="81" width="50" height="36" as="geometry" />
        </mxCell>
        <mxCell id="OuTpp7gKNCbVnQCvF9Cy-17" value="Process Admins" style="text;html=1;strokeColor=none;fillColor=none;align=center;verticalAlign=middle;whiteSpace=wrap;rounded=0;fontStyle=1" parent="IPrCYm6E3xCLuTnceemR-11" vertex="1">
          <mxGeometry x="4" y="146" width="60" height="30" as="geometry" />
        </mxCell>
        <mxCell id="OuTpp7gKNCbVnQCvF9Cy-9" value="" style="sketch=0;pointerEvents=1;shadow=0;dashed=0;html=1;strokeColor=none;labelPosition=center;verticalLabelPosition=bottom;verticalAlign=top;align=center;fillColor=#515151;shape=mxgraph.mscae.system_center.admin_console" parent="IPrCYm6E3xCLuTnceemR-11" vertex="1">
          <mxGeometry x="10" y="17" width="50" height="36" as="geometry" />
        </mxCell>
        <mxCell id="IPrCYm6E3xCLuTnceemR-12" value="" style="sketch=0;html=1;aspect=fixed;strokeColor=none;shadow=0;fillColor=#3B8DF1;verticalAlign=top;labelPosition=center;verticalLabelPosition=bottom;shape=mxgraph.gcp2.process" vertex="1" parent="1">
          <mxGeometry x="150" y="365" width="42" height="50" as="geometry" />
        </mxCell>
        <mxCell id="IPrCYm6E3xCLuTnceemR-21" value="RPA&lt;br&gt;Jobs" style="text;html=1;strokeColor=none;fillColor=none;align=center;verticalAlign=middle;whiteSpace=wrap;rounded=0;" vertex="1" parent="1">
          <mxGeometry x="141" y="263" width="60" height="30" as="geometry" />
        </mxCell>
        <mxCell id="IPrCYm6E3xCLuTnceemR-39" value="" style="group" vertex="1" connectable="0" parent="1">
          <mxGeometry x="74" y="491" width="200" height="211" as="geometry" />
        </mxCell>
        <mxCell id="IPrCYm6E3xCLuTnceemR-34" value="" style="rounded=1;whiteSpace=wrap;html=1;dashed=1;" vertex="1" parent="IPrCYm6E3xCLuTnceemR-39">
          <mxGeometry width="200" height="90" as="geometry" />
        </mxCell>
        <mxCell id="IPrCYm6E3xCLuTnceemR-20" value="" style="group" vertex="1" connectable="0" parent="IPrCYm6E3xCLuTnceemR-39">
          <mxGeometry x="51" y="91" width="78" height="120" as="geometry" />
        </mxCell>
        <mxCell id="IPrCYm6E3xCLuTnceemR-18" value="" style="sketch=0;outlineConnect=0;fillColor=#1ba1e2;strokeColor=#006EAF;dashed=0;verticalLabelPosition=bottom;verticalAlign=top;align=center;html=1;fontSize=12;fontStyle=0;aspect=fixed;pointerEvents=1;shape=mxgraph.aws4.users;fontColor=#ffffff;" vertex="1" parent="IPrCYm6E3xCLuTnceemR-20">
          <mxGeometry width="78" height="78" as="geometry" />
        </mxCell>
        <mxCell id="IPrCYm6E3xCLuTnceemR-22" value="Report" style="strokeColor=#dddddd;shadow=1;strokeWidth=1;rounded=1;absoluteArcSize=1;arcSize=2;labelPosition=center;verticalLabelPosition=middle;align=center;verticalAlign=bottom;spacingLeft=0;fontColor=#999999;fontSize=12;whiteSpace=wrap;spacingBottom=2;html=1;" vertex="1" parent="IPrCYm6E3xCLuTnceemR-39">
          <mxGeometry x="138" y="10" width="50" height="70" as="geometry" />
        </mxCell>
        <mxCell id="IPrCYm6E3xCLuTnceemR-23" value="" style="sketch=0;dashed=0;connectable=0;html=1;fillColor=#757575;strokeColor=none;shape=mxgraph.gcp2.report;part=1;" vertex="1" parent="IPrCYm6E3xCLuTnceemR-22">
          <mxGeometry x="0.5" width="29.5" height="30" relative="1" as="geometry">
            <mxPoint x="-15" y="10" as="offset" />
          </mxGeometry>
        </mxCell>
        <mxCell id="IPrCYm6E3xCLuTnceemR-33" value="" style="group" vertex="1" connectable="0" parent="IPrCYm6E3xCLuTnceemR-39">
          <mxGeometry x="63" y="14" width="70" height="60" as="geometry" />
        </mxCell>
        <mxCell id="IPrCYm6E3xCLuTnceemR-27" value="Error" style="html=1;shadow=0;dashed=0;shape=mxgraph.bootstrap.rrect;rSize=5;strokeColor=#F4C5CB;strokeWidth=1;fillColor=#F8D6DA;fontColor=#711623;whiteSpace=wrap;align=left;verticalAlign=middle;spacingLeft=10;" vertex="1" parent="IPrCYm6E3xCLuTnceemR-33">
          <mxGeometry width="70" height="20" as="geometry" />
        </mxCell>
        <mxCell id="IPrCYm6E3xCLuTnceemR-30" value="Canceled" style="html=1;shadow=0;dashed=0;shape=mxgraph.bootstrap.rrect;rSize=5;strokeColor=#F4C5CB;strokeWidth=1;fillColor=#FFFF99;fontColor=#711623;whiteSpace=wrap;align=left;verticalAlign=middle;spacingLeft=10;" vertex="1" parent="IPrCYm6E3xCLuTnceemR-33">
          <mxGeometry y="20" width="70" height="20" as="geometry" />
        </mxCell>
        <mxCell id="IPrCYm6E3xCLuTnceemR-31" value="Success" style="html=1;shadow=0;dashed=0;shape=mxgraph.bootstrap.rrect;rSize=5;strokeColor=#F4C5CB;strokeWidth=1;fillColor=#99FF99;fontColor=#711623;whiteSpace=wrap;align=left;verticalAlign=middle;spacingLeft=10;" vertex="1" parent="IPrCYm6E3xCLuTnceemR-33">
          <mxGeometry y="40" width="70" height="20" as="geometry" />
        </mxCell>
        <mxCell id="IPrCYm6E3xCLuTnceemR-35" value="Alerts" style="strokeColor=#dddddd;shadow=1;strokeWidth=1;rounded=1;absoluteArcSize=1;arcSize=2;labelPosition=center;verticalLabelPosition=middle;align=center;verticalAlign=bottom;spacingLeft=0;fontColor=#999999;fontSize=12;whiteSpace=wrap;spacingBottom=2;html=1;" vertex="1" parent="IPrCYm6E3xCLuTnceemR-39">
          <mxGeometry x="7" y="11" width="50" height="70" as="geometry" />
        </mxCell>
        <mxCell id="IPrCYm6E3xCLuTnceemR-29" value="" style="sketch=0;pointerEvents=1;shadow=0;dashed=0;html=1;strokeColor=none;labelPosition=center;verticalLabelPosition=bottom;verticalAlign=top;align=center;fillColor=#505050;shape=mxgraph.mscae.oms.alerts" vertex="1" parent="IPrCYm6E3xCLuTnceemR-39">
          <mxGeometry x="16" y="21" width="32" height="34" as="geometry" />
        </mxCell>
        <mxCell id="IPrCYm6E3xCLuTnceemR-19" value="SAP&amp;nbsp;&lt;br&gt;Users" style="text;html=1;strokeColor=none;fillColor=none;align=center;verticalAlign=middle;whiteSpace=wrap;rounded=0;fontStyle=1" vertex="1" parent="IPrCYm6E3xCLuTnceemR-39">
          <mxGeometry x="138" y="119" width="60" height="30" as="geometry" />
        </mxCell>
        <mxCell id="IPrCYm6E3xCLuTnceemR-40" value="" style="shape=image;verticalLabelPosition=bottom;labelBackgroundColor=#a62b2b;verticalAlign=top;aspect=fixed;imageAspect=0;image=data:image/png,iVBORw0KGgoAAAANSUhEUgAAAOEAAADhCAMAAAAJbSJIAAABRFBMVEX///8AAADskQDodwDjVQDwqwDvpADkWQDoeQDsjwD99u/riAD99O/odADmawDwqADZ2dmampqoqKjiTADAwMDr6+viTgDhRQDy8vLHx8eCgoJWVlbl5eXExMR6enq6urpjY2PQ0NAPDw8tLS2wsLCNjY1vb2+hoaE5OTnhQAAsLCx9fX1ERESRkZH0lgDsWAAhISH1yrrncDzsmHr54Nf20MJQUFAYGBjqhV72zpPyuqb77ObwrJPkYB743NHrkG3oeUv53LT1yIHzu1jriz7vomzwsJf76tfmaS/wrSLxsTXkXhn64cHzv6z0wW2vfANoSAQ1HwBiPQWmZgSgUwVeMQYsFwGpQwZ6VgJZLwR9MATLkAK2cASqWAXITAZGMQJRIAbKfAO+YgSMSQWPZgaHUwMeDgZ2PQQyIwE5GAbWbgOyRAUybbsnAAAKTklEQVR4nO2d61vbNhSH6+KkLSuLE5PYuRDn4lwKZIOOAm3pBnQrLfRGr7uvsK7buv//+yI7CYl1ZDvJkRTy6P3Ig+3zi450jo5l6coVhUKhUCgUCoVCoVAoFAqFQqFQyOD+5r17m/dlW8GPPd0yTdOyHtyTbQkfNk1T72Fe+1a2NRzYu6UPceuZbHvQuTcisCvxjmyLkNkKCNR166Zsm3C5nQsqzH0n2yZUtqygwK6fzlUj7pm0QnOuBhvaSefNTa/RAvXcbdlWYQII1PXHsq3C5ARqw33ZVmGyD/XDb2RbhQk4lm7KtgqT+1RK001qZBuFyy7lpuZcOWm3EamkJifbJGw2g3OLLdkWofNsWGLOmscp8NYDK9fXd3tOazWb+xbB3J232e8QN7fu3Jm/DqiYM2zblm0CX2xN09ZkG8EVorAg2wiuKIWXn/lWaJcMI99V2DSM0nwNqLbhdJrrO9ooO+1Kw61efqVGq1nTQqm0qrKNnJhSqxgubsB22pBt7PgYhVG3rG+XG2nXWSY4bqtRLrZHVa5dqqYsdYZcc7WcqWbBf7Or7tqwzsJlaUlnfcj9olvGGHLmuivAvimx0xd+l499VbUx8OkC3N6zgr02cbcyGv1Lm7Or0S70bCwuT3R9vjLjGjvT+5k9uAeiXVgs92xLT3mfTO8+GRSr8Mhu+3a1EO7l9sbVmYodLd+oxmzebnqyftiuIKbRZe+OGzPSjL5X1eJHvzgYdTSvn5omp8HPTx2K6Pcdl+yq14A80uaSd2utxOHWY1D1eyCnu/sZxGTpAxIu59C1ghJip8DvKjwHvOwGeUKZ4xNC8ZyozbnUUuTZDSJoinl2WdqQWhblPx1JEsvi8qqMFIkNkYmjJ7Ep6GHDzxSXGQt+XJe8V6gQ+MCW4CljVvwI7kUmcSVVUg1dF/Y0H6+GI+o1BwnCNUHPuoBMQttiHtWSk/Hbwvq+QZ7kiHgS9OAVAQ/akJYKp8V0RTKorXJ/Csy2iNzGkDnttkVMiOtSZ6QOkcj3ERmJPkoocq/4857TR5Hl3UnWZJYUPNJ8B5usyMyJQY1rftqUW/jycHjmxKU4I9niweHDVPIGmyWYhevf//DoTozPSuscG7EcOUc7OkwkU6lUInnjKpOlBQZLSznLerwXtYqfzE238UQNY0c14cGTZCrhEaaQJXBh4Tr5DtO89Tjii682t/G8E/4u6CDVkzedQvLJ10moxmVuRZvQJjw6vtA3rcKuxtthnyzUOI3oTlg6cTeZSCAq1HO3HrEtaXEa0rdDsomHqQSuwm4z7jMtIQPCDr5AOyQOPQkIxFCo506YoaPJZawhrgGvOltMBAWiKNRzOitw5Lnk321m96ZaEElhVyKrFXlMorLMCukxLRBJoZ5jfbFf4JDXuCwnPQQEYinUzV3YmiqHIn+R4aRPk4BANIW6xdgdpGtNHVkhqxwLtSCiQtY+PaQCjruAkRSgOsDfQR/FVJiD/dRFr9m24K69CPoopkId/iS6hB4vKvDw/BxuQkyFjP1B0F9i1MAbspoQUyHjw33GTz4xNlyBustowkTqKwKOQngLlDRy4laFZ/cMfYkXL0+101evr4IaQXFv3r7TTt++178GJJqQRSvIQ00GHGiOYCd9ofV5DUmE9A2u+A+QaEFf72eRY34BDD+wk/6oXfAKkEgL/Gnoip9pibCbIr9nh/v1Q0jgR00Ll0gJfDtyBSDxBDKpjjuYdm+3Qf8VasJftFF+pSQGBf4WuOJ32k2hvKaIO5hqUCkdjBV/BOx9F6nwU+CKD1QjgkG/gK6Qrm49BdrwiRbkLELhOXUFtS8YuDkfqfzhZaYkHNIDF6TwBWUvNZ4GFP5JXfGeUghVpcjwjhcQydBMF7egofQjZe/LCIVvqSuoscbcA2wipT+8STDJc+lacDyF1Gg6vkIwXKygKqxqUEoTT+FfEQr/pr00tkK8V/pGbIXBYNENFxEjTTBYAOEC9FIRCg+geEjZGxnxgxd8oqKFAIWwl0JjKeWmlJNSCoNuSjkpHC1wFcIjDTw7/GfE3BrVhHTWNirwXzprA1NvohDvUys4WsBVqNTIHgpUvAcUfh7xUUofI2vDjRYk4gN1qGNIYSJ1kbid3og1t/j8bnDFB0CgrkM24UZ8ohB4J8ma4r/wNZ6C00NwBvzm1NcHTQ8Z+w2TrA1xYY0GLmI5YhUxEsmzs7OrjDIGpLDbjufn59chfax9TpEz71V4rRdbIagtTCEBrtPo1iJkEvLsiVHZYtSDcWttjJpwG7euT1Z7AW8tGIUaXIVgrGB1nIlhDVxgHQNZ4QPQIuxKFHnpCr1bYzUiZlUfXnnCsmhSyC8GviYILlFAV8jauL2FGg6vsF8TMOr6eApZm/E2cYfSkLEZjvpoCpkbRtew1yqnmVkg6KdYCpkv8km3wV3KW4VzbwLPNsyxFmOQvBv5qxaNuV4I6opICi3m6jbSDZG36dmGYz4BCBk4CkN2xNbAIvxUtELcgpaIojBEoMGKXlNQgidQPovBZVEICs2TkMXCDdQJfo96aAB6jrz6UrcYa4V8drCjISEdPnodJDFX0JrhZ18Y6LGCQNw0dAH5YRJrFbRpRRwMUUat0QxoRw3Qixcap1CY6+qL+iZB4+Gk/jKkqPnKwXHSW88+mcKFbutZu9HnXLlwYWx6Yv1yi08Pj1PJ5BdsvmSxdH13L9aRAqv44d6nEHtKthjGTQZgNQaCTA0rE2oIh2S7HBaQj806n3GGUMFPdyegypqrImDMRCOSJuT2zXoRuTgyCaQXYi8PviDW53mcWeXZhP60TO5+jRn2RBUF7wM9mZvgeQZw/dS6w/knjKIZNonDoSZ1sPH2NuL8qbX3DGkbGWsift+mRD+tiHm2xiuzj8QV5D8kaxK4J9UFJSE+SigI6O4QO9zmFBRtrokTC5H7b3lhtyLoYX0KQpMNryuK3Rje21dQ4NTNG9VE7gHiCB/Bva0vxe1j6O0nLHjzy6ZIiZ5ATrt9sCmKk+gduyBoQ8FhiqK6hitJYE8i/12j0tIE9jbc5L0HntfhpU1Jvd2SN7jmwusifsUQ/GNh+BWGvD0M5e6f5kVibsUp/6wSybuL+b9ym4en2v7ZNehvs8e2wz+DDP8wEd896rNw9JPfGdu4eX/v8CG5WxgOMPwPEDAnG73T20TsqRsP/2gftCTO8X8yzMOHpqbqnbSh1TC+08n7xwTJPX0FoOdXq9POUld6Zz7O4Mlrtn8s0nTDquv7glaUfEIQg1L/MMryZO9OSv3TBddn90xSo69xNT1uHLMz/SNJ29JjfCilvq9q7XR8TytlBmeXFmfkrLUQhk4irTWdaJVZZ21jcEVjFlKYGAyO2/SiWnqZJTO7kq4Mfa5YlL/QYwyc0fOcd4rlTsbJGx7VvJNJlysbI/+xnZml+B6PlbXgaeNMys7lk+eTdQrtCHH1sjubsW8MyOHxkM56pePO/sAZHztr5JcdN5PJuM5y3sheVrdUKBQKhUKhUCgUCoVCoVAoFIrLyv+XIARJ0sHlBQAAAABJRU5ErkJggg==;" vertex="1" parent="1">
          <mxGeometry x="150" y="428" width="40" height="40" as="geometry" />
        </mxCell>
        <mxCell id="IPrCYm6E3xCLuTnceemR-42" value="" style="endArrow=classic;startArrow=classic;html=1;rounded=0;exitX=0.467;exitY=0.266;exitDx=0;exitDy=0;exitPerimeter=0;entryX=0.01;entryY=0.379;entryDx=0;entryDy=0;entryPerimeter=0;" edge="1" parent="1" source="IPrCYm6E3xCLuTnceemR-16" target="OuTpp7gKNCbVnQCvF9Cy-5">
          <mxGeometry width="50" height="50" relative="1" as="geometry">
            <mxPoint x="400" y="280" as="sourcePoint" />
            <mxPoint x="450" y="230" as="targetPoint" />
          </mxGeometry>
        </mxCell>
        <mxCell id="IPrCYm6E3xCLuTnceemR-43" value="" style="endArrow=none;dashed=1;html=1;rounded=0;fillColor=#fa6800;strokeColor=#C73500;" edge="1" parent="1">
          <mxGeometry width="50" height="50" relative="1" as="geometry">
            <mxPoint x="30" y="150" as="sourcePoint" />
            <mxPoint x="440" as="targetPoint" />
            <Array as="points">
              <mxPoint x="440" y="150" />
            </Array>
          </mxGeometry>
        </mxCell>
        <mxCell id="IPrCYm6E3xCLuTnceemR-44" value="" style="shape=image;verticalLabelPosition=bottom;labelBackgroundColor=default;verticalAlign=top;aspect=fixed;imageAspect=0;image=data:image/png,iVBORw0KGgoAAAANSUhEUgAAATEAAACdCAYAAADczE9JAAAAAXNSR0IArs4c6QAAAARnQU1BAACxjwv8YQUAAAAJcEhZcwAADsMAAA7DAcdvqGQAAC6ZSURBVHhe7Z0HfBTV9sfPbnonhCpYaEoV5QEiRUWRKg9FqgoiqBQRpSM8RERpAgpPAXmAPtGHPAVsIEXkT9FHsyBdqnQCJKS33Z3//d2dGyab3SRLAuwk58vnMu1O2cmd35xz7pkZiyYghmEYk2LVhwzDMKaERYxhGFPDIsYwjKlxGxOrUK+zPsYwDOMbnN+zQh/LiUcR87QCwzDMjSYvTWJ3kmEYU8MixjCMqWERYxjG1LCIMQxjaljEGIYxNYXunTyfqNH2vyx0NFajK4l2sqbbKdRupxCHncJRLKKQc164ZqNgWxaFWIgigzWKjA4gKh9C/lUjyFomWN8iwzBMTq5L7ySkb+NhjWZuIdpwlOjsZaKsjNyPYTr0oWZ3kEMt1hyUnuagtNh0su9LoKw1pynr14uiTu71GYZh8uKaRWzVQY2W/W6hpGQie6qNsoSl5RAqpWXZyG4oWmomZaRmifEsysrMoswsO9kdQtqElZaekUmp6WmUlpBKjl9iKWv7BSFw+g4YhmEKwDWJ2I6TQsT2C/GyCetKWFjCO5RWVEaiEKS4JMq6kkCO+CuUJoYZ8QliXgJdiU+kpLgrlIhhbDylJ6YIwRPrYhtC/NIyssh64ArZDsQ7d8IwDFMAvI6JJQuX8Z0fic4nWUjLtAkV1MhPbEFLSqfbg9OoU4tQKhftT34WjYQ+kVVsXoqcKP74X0xnXk6nuB9Pkd+FNIqMDiE/fwtZhJAFWK1kCQug4K41yBoZIPdXWLZu3UotWrSg7t270+eff67PZRjGTBRpTGz/OY0uJAotyrBJ4SFhgTlSMimGUql7+2hyhIRRijWQzmQEUUyZICpVJpiiRMEwvEwIhZcNpZjaMXT7s7XJFh5AGUmZRJnCIhPbsdnsZE0R7ubRK/reio4rV4p+mwzD3Hy8FrHfTwrLymEhqxAwYcbJoZaaTk1qBVOZUv50OUmIEVzLTCFwwhoT9pqzYFwvwn+kwIggimp+C6UIAdRsiKU5i10ImuNEsr43z8Cq6tGjB5UuXVpsU1hyomAalpevYjxWY2nbtq1HK9HTOo0aNaJBgwbl+Xt3797tdl1j8eXzxTAFwWsRO5cgGn+WcCOFEFmFWPnbHcIqy6LbyvtReLBGze/SqFSYhaqWt9BloUWX04gupYgixi8lEV0Uw9Qsp4MZUjFMuKRC1IRwSSETxZZpJ+2sWMEDly9flhd9z549admyZfIib9OmDTVs2FBOw3XExX2jgRhAFCCknoiPd8b7cKw4ZpRq1arR2rVr5e+BMOH3GXG3DsquXbto3rx58vfifLiuB5KSxAnXMa5rLBEREXoNhjEnXotYaqpduH6iCCvMTwgYhExaVv5Eh4TAvbDZQi/+n4We/1EMf7TSC+us9PxaK/X5RpSvrdR7pZWe+tJCm09YKDDQSg6IFoTMLjaOgpyMDJWYkRtcsLjoo6OjacuWLXTkyBFas2YN7dy5k44ePSpjX7i4b5aFURC39d1335XHjILjX7VqlZwPYVq0aJEcd8W4DgpCmUuXLpXnAefDk5ApjOsaS/369fUaDGNOvBYxP+FK+gmLyV+4fv5CdPyFiAWIeRk2ojl7LXQizkKpaRolJYsiXMvERDFM0ITbqFGymE65otG5WI3e/IEoNlFsUFyMNlhzBpfSYYellpvp06fLCx0X7saNG6l58+b6EidVq1aVbtn8+fNNZWG0b9+exo4dK8cXLFgghwUBVh/OA84HzsusWbP0JQxTcvBaxIJSlXgJQYM7KcQnKMtBZ4WbePSSRoHCqspMhxtpoYuixKWKki5KhoUupRKlCffSXyw/d57owFlNBvRhfWlZoohtygLLzA3qAh84cGCeFkT//v09LocQVq9eXbp+cEUx7cmCUXE3FT9CfUwj1qRQbiTcOgCrSNVHOXbsmJyfH+3atZNDWJPegN85ZcoUOT558uQ8rTGGKY54LWIAwuVnc0iLDO6kn0NYWJlECUlEmSlEYaLOu800mteS6INHiea2IfpQXKMLOhHVjSZKEYJnF/VShZjlcCMxFBadOyAc6gLv1q2bHHoDLm7EnEaPHi0tF8SYEG/C9NNPP63Xugrqqribih8BTLds2TJbnGDxYRm2B7BtVR8lKipKzs+PxESYpddGly5d9DGi7du362MMUzLwWsTQuRgAd1IIDlxJDCFkMltfWFwOIUwXhTEwc5OFZq4jmrVGlO+dZeZqC+37y0JWUc8OAROCBcuLhJWmYVwvMqnMhW3btuljTuvDW+BuQQQRR0P8DEXFomA9Ga0rAIGbNm0aXbp0KTt+dPjw4WzxmzFjhqyHY8EyxKxA48aNs+ujxMTEyPn58d1338mhEkNvwD7Uenv37pVDhikpeB8Tg+UFEZNFt8ogOnYHZQlXM11YWcF+FhrWVKMRLTUa/ohGIx910IjWGo1pp9Ht0RolpmhkE26lelbSIbYh3Uhd1BxpuVUsISFBDq/lIgfu4miIRantQciMIOA+atSoHCKE8eHDh8vxgrqJBeHDDz+UnRFg4sSJcugt+YklAv+uJa+eVIYxC16LWEiaQwb1ncF9lWaBaWFYpQoREuJ0OVajqeuJpokyZY2FRnxqoaELiYYsIPr9iNipqAt30iHWs9oszpgYhEwVWGceKKhl4wosJHcWXNeuXfWxglG5cmV97NoZOnRotpAgzjZgwAA5H8F9COv1ACLtWtatE6Yyw5gc7y0xITiyR1L1TkLMMolChfVlEQKWkWKhKIuFhj9INKoV0WhhgYWJvZy5SBSL57shXkLsSFhjoUL5kAorXVFYZShie+7cSQUuvhsFrC0E/mGxKNGBABUWuLZKSCBi6KiAm/v222/rNbwnv4A+UjJcS1xcnL6UYczLNcTE4EYKy0sIDiyxgEyhapkaVYl2UN3SWRSXRHThHFHff1qo+3QL9ZhmoYNHxY7ShXhlCI0SIpacaKGK0XaqUwXJreIC0y0xKWII8LuhadOm+ljRunKeGDdunExEReAfwXwlOhCgwgLBUkICt3Xu3Lm50kW8AQKmjst4nhimJOC1iAUI4YJ4+dtQIGZiphCeoCA/eqNTBt1/K3xKvPgwk0KtmRRCmRTgsFF6IlFasoUyMix0W0w6Te+fSGVjAkksIlGVLGLoyEJxL2S1atXSx4jWrxd+6nUEqRVIV0AcDQml6BBQogMB8jXU+cDxFkYMGcaMeC1iEK4AIThwJ53FQaEZdrIJK6v6HWH00RCNVr+WRN+ijE2iVROS6Ps3k+ifL8XRfVWTKT1Zo7srZtGDDYPEOmL3wjIDsMacaRaacDdzqxhiYXC7wGuvvZan+wQRKkzG/smTJ+UQ+4MriSRaXwXnQT1mNWbMGDlkmJKE95aYEDAE8Z0xMaegWRxWijsjVIwsFBgWSlXviKbqVUtnl2rVo+nJDlH02Zt2+nRkPDWqmU7pdiulnRIKlq4HwFQ8TAyla+mGESNGSGsDKQ6IT7kKFdxMiA7yu06fPq3PvXYQ+DaKJfaXX0wMLmd+8amiAmJdo0YNeT7Qy9qvXz99CcOUHLwWsagAKwUIoZE9kvowLMCfjm9IpIxUG1nFFpXrlaM4/Ci8dBR1eCyK+j8bRf7WQIr95hQFh/kJd9IpXvL91WJo8XN/WLCIkCaBWBViQMiSR/a9CrpjPuJXyoK6VpA8CrHEPiAS2DaSX1VWvjvgxmH/QK2DoH1Rxe+MPZooeBoAYg0Bw/Oi3uSkMUxxwnsRKy+sL7EaxCsQriVEzN+fUs/YaNOM0xR3Io0yM+2iOHKWDBtlpmVRZrqDUmIddHTmPrLvSaagwCDSsizk0FMtrJqVLOWC9L3lBmkSyErH85HIiEe8CtbPjh075MWMmBUC5YVBiSW2B5HA9jFECgTEAgLnjuXLl8tjUusgrcOdK3rLLbfoY/mj9mXs0USB5aV6NWGR5SVgSlwZpjji9Ztdj27LpB2fplGWLUO+tdVPFKsQH4sti2wJqUKIMijCzyFcTGdcK4Dsog5eYe2sG4r8iTQbBQqhi4gKJWHYkR82IBBSRqH+ARTY61YK7VhRzmMYhinSN7tWqu1PoRF2ChQWE56ZlBn8QrCCHBYqFRZMpUJCyY+CKEjzp3CbH4XYAijU5k8RWVYKFyU400oR/oEUERlGfjC+4EXirRWwwoTL6Qjyp+D7Sut7YxiGyRuvRSw40kr1OoRTMAWSP0RMCBhejOgvhhC1YCFhEX4BwsUMppAAIVZ+/mI8UJQgOQyBpWX1F7XQISAOALEwdA7YiUK1IAruWIGsebiTDMMwRrwWMVClaSBVayEsMiE6AUKIIGJwFSFi8o2vwn1EgRtpFSYW3ESLPg/JsvBf1cPeEC/SLLDdiFpEUMiT7EYyDFNwrknELGKtOj1C6M5OIRQZFExhliAKdFjJX6hTgCgYyiLqWkVlzPMTQz8hZ1bxD9MY+ot1goUQhggLLfjxchT+clWywMdkGIYpINckYsDqb6EaQsQajoukCg8FUXh5IWZBARQS7EeBIYGyhAb4UbAoAUGB5CdKcKA/BQb5kX9wAPmHiLq3hlBA+9IUNb0GhfWrTNagaz4chmFKKF73TjIMw9xoirR3kmEYxpdgEWMYxtSwiDEMY2pYxBiGMTUsYgzDmBoWMYZhTA2LGMMwpoZFjGEYU8MixjCMqWERYxjG1LCIMQxjaljEGIYxNSxiDMOYGhYxhmFMDYsYwzCmhkWMYRhTwyLGMIypYRFjGMbUsIgxDGNqWMQYhjE1LGIMw5gaFjGGYUwNixjDMKaGRYxhGFPDIsYwjKlhEWMYxtSwiDEMY2pYxBiGMTUsYgzDmBoWMYZhTA2LGMMwpoZFjGEYU8MixjCMqWERYxjG1LCIMQxjaiyaQB/PpkK9znR+zwp9ynzY7Hbad+gEbf/tAB05fobiE5MJv9Jms9PIAd2oQrnStGbjDnq8bXMKCw3W12IYxlfJS5OKlYhl2Wy0YvVmWvrVj0LIHFT7ztup+h2VKCY6kvz8rGQX8x5sUp/S0tLp/Y+/pjGDn6I5i5dTg7p3UsdH79e3whhZunIDfbHqZ3I49BkuWIUt37VDU+r5xCP6nJtHXFwcLV26lJYvX05//PEHXb58mW699VZq2rQpPfPMM9S+fXtxvOx8mJESIWKHj5+msVMXUnBwEA3q3Ynuu7dmgRrsTzv2UlRkGF24GE8OzUGPPtBQX8IAiNib76+iyFvu0efkJP70bzRxyGM3XcTWr19Pr7zyCh04cEBOR0ZGUnh4OF26dIkyMzPlvCeeeILmzJlDlStXltOMechLk4rFbemnnXup34gZ1KXDg7Rk9mvUpEEt2rX7T5r03if0zMuTqe0zo2nS7E/12jlp1rgu1a1ZRbqgB46clPPc6HqJJjgskiLLVXNbgkIj9Vo3j++//14KFASsVatW9O2338rxPXv20N69e2nevHlUr149WrlypbTGRowYQX369KFXX32VPvnkEzp//ry+JcaMmN4S+3XPYXplwvs0Y/wAYX3Vot37j9Dbcz6jtPRMatn0HilQURFhFFMqkqpXqaSv5ZmpHyylyhXK0DNPPqrPKdnAEpv+0RYqU8P9+Th/cB2Nff6Bm2aJnT17lu677z46ffo0jR8/nl5//XXy9/fXlzrJyMigMWPG0HvvvafPyUn58uWlFTd8+HAKDAzU5zK+RLG1xK4kJtOYKQto/Ku9pIAt+2YjvTz+fer5+CP01aJJNOzFrtRauIdYVhABA4890oRqVGV3wyy8//77UsC6du1Kb775Zg4BczgctGzZMmrQoIEUsICAAGmxzZ8/n7766iv68MMP6cknn5Qu59ixY6lnz56UnJysr82YBVOL2Lv/+pIa3VNTCtVXa7fSv5auok/eG0NPtG0uA/me0Gw2sicmkkOPlRiB5VauTCkhhnMoIzNLn8v4Gv/73/9o8ODBUpBCQkJo3Lhx+hInO3bsoI4dO1KPHj1o//790s3csGEDrVixgvr370+dOnWiF198kb788kv64YcfqHr16nLZqFGj9C14Dyy+rCxuMzca04rY6XMXacv2P2jo813kOARtzsTBdMetFfQauXFkpFPiko/o0oC+dGlgP7rUvw8lzJ1DjsQEvYaTcjHR1PDuu+SdnPEtkpKSaMCAAdSsWTP64IMPKD4+nmrWrEl169aVyxHfQqyrRYsWtHr1arrzzjtpyZIltGbNGjnPHQ899JCMl5UrV44WLFhAmzdv1pfkz86dO6Ubim3fc8891LBhQ+rWrZvcZ3Gw6v7zn/9Qv379ZMGNIi+R/vnnn+n555+XBXHKGwZiYq6Ur/uEPua7fPDvr7RhE+fK8aFiOGP+MjnuCXtaqnZp+Mva5THDtfQ9u7WsCxe0jEMHtLjJE7XYfs9oWRdj9ZpOLscnaMtXb9aEkOlzSib/WfGDdk/HCVqrYVvdlrrtX5d1bgSJiYla27ZtEcPVKlSooD333HNyXFhZeg1NGzhwoJwXHR2tvfHGG9rly5f1JZqWlpamzZkzR9b//PPP9blXmTFjhlz36aef1ud4JjU1VRsyZIgWGBgo13FXhKhp27dv19cwHzhf4gaR4zcJodKX5mbRokXZ9YRrr88tGvLSJNNaYv/btY/aPtSIEpNSaPe+o/RUPoHlpIXzyRoZSaWnzKCguneTv7jrBt5Zk6Jfe50CGzehhPfe0Ws6SU5Jp1UbtrFL6UNMnDhRWlSwumAtoZfRlYsXL9Jdd90l3c0JEyZQ6dKl5fx169bJfDEE8OE+ws2EuwlLSoF4WVBQkFw3JSVFn5sbWCOwTJCugfQNpPI0atRIxuXatWsnLTrw+++/59qHmfjpp5/o0KFD+pQT5OF5whiPRPzxRmFKEUtNS6fYy1eobs2qtOuPQ1ShXDRVLBejL82NXZj1Gdv/R2HPPi+nMw4dpPi3Xqf0HdvkdHiPXmQ/cZyyTjlTLMCtlcrR+28NIX8/P30OczPBxYT4F/K/cCHVqFHDrdAgBAAXEkIGDh48KBNdEQODuAjLSAb74YJ+99130g2EsJ07d46qVq0qc8jgkiYk5AwxGIEbqy5mJNOuWrVKCt9///tf6cLu2rWLevXqJZfHxsZK9wpusNn49NNPZboRYo5RUVFyHjpErly5Isd9BVOKWIKwvixiWKZ0JB08cooqlS/jXOAB28ULRH5W8q94i5xO/udMSlvyESW+8zY5xF3VT1wYlujSZDt9VcSw/ddn/ps2bdvtnMHcVBB0h2hBkFT8yxOwjCBCSLf429/+Rp999hk9+uij8gKExYSYFeI3wt2UFygsqiZNmtC7774rRRDrWyxoAblBT+bMmTPleGhoqLzQhYtLfoabHYRt4cKF1Lp1azmNpweE+yrHwf/93//JY8EQoBPinXfekZYmjjW/vDV0VCB2B0tz2rRpUkBdQazw66+/lvs5fvy4PHfoxMA+hNtMu3fn3a4vXLggxRm0adOGXn75ZTl+6tQpWrt2rRz3GZxeZU58PSZ28swFre0zo7S09Aztz2OntH1/ntCXuCfj3DntfK9umi0hQU4nLPpQO9esgRY/xem3I+51oV8vLW3373Ja8cLIGdrK77foU8WTQWNma7UffN5jqdakl3Z3B88xMSxDHXfrqoJ9FBYVCxPupD5H08TFL+cZY2LCTdSqVKmiCUtNi4iI0CZPnqwJt1OON27cWFu/fr1e08mBAwdkDAzbUQWxLOEm6jVyIiyw7HrC2tLnugfxI+FWybqPPPJIdnxVCKuch2NEDE+IZvY2UW677TZt5cqVsq6R5ORkbfDgwZoQzxz1sX737t01IVx6zavnBgW/7/7778+xTlhYmIwBekKIcHZdxA+PHDmiBQcHy+nHHntMr5WTf//739nrTJkyRZ9bNBS7mBjukppDI7vdTjWqVKbaNW7Xl7gnoEIFspSKpoyfnb1OEc/2o5gVqylq+Bg5nbH7N2GuZVHgnU4XROHv70f2Yt5DmWXTKLB0HSpbu7PbUvnenhR923167dxgGeq4WxcF207LKPw5xHOQoGLFinLoCVhRJ0+eJCFY9Msvv9Brr70mrRzEwYSQUYcOHeipp57KfjwJbiWsKcTa0LsIkCrhKSa2ZcsWfYyoc+fO+ph7kJ9WrVo1Ob5v3z75bCdQ8SIhDPJpAiEoct+qLo4fx2jsJUVbR0oI8uJSU1Oly/z3v/+d6tSpk50Ph15b1AO4RnAuAKw7WGsxMTFUqlQpOQ+/D+cG58gVbA+9kgDnG+kpODb0CANYkEePHpXjvoApRezYyXPSfMdzkgUBjkHECwMp+eOFlL5rB1nEugHlypNFNKbMI4cpccYUCnumD1mDc77Rwmq1yD9occcvMIQCQiLzLJ5wV9dYsO2iAM9BAmPagrgJy6G6WAEECCkTECbEzRQQNbhBEC3Es+BWwh2D2wXgMuH5SwT/IXBvvfWWnO8KEmsBMvuN23cHOgmUMGE/cNGM4PiFhSTdSYgJOgJmzZol23ZaWpp0h5Uo4VEqJSyDBg2ScTe4i+g0UB0cELJNmzbJcSM4P3Cd4UL+9ttvsgMCoIMC7qYrcFfhbgN0VED8gLDo5BB/A6Sk+AqmFLHFy76nzu1akJ+h8eZHSL36FDF0NCXOmUkXXxGC9u40ihs9lOJfH01hTz9LYa3a6DWvYhfWnvECYW4eykoyWkLCvZHDM2fO5BAINd8V/C1hoSCQj5wnxMDwyBJiRRCUMmXKyFgWOg8Qczpx4oS+5lWUqMCagkjlhxJfd9YdLDB0VkBYcWyoO3ToUNkJAWA9/fnnn3JcuGpyiKRcxMFgVQLE9EaPHi2PHUDsXBHunxTsSpUq0R133CEFTZ0jd78RIp+eni7PFSxCBazYsmXLynEIqnqw/mZjuit09/6jdOyvc/Jhb28Jue9+KjNvMYU+2Z0Wr99FcXXupfJiOqzdY3qNnCQlp3ollMz1Axc2LiqIjOodq127Ns2ePVsG2+G6LV68WIoF6nkCljXSLuBKIYUA4ocMfmWR1apVS6ZFoDfxxx9/lPOMqIsf+0lMTJTjeaHqQPCUoClgycEddEWJGEQCvas2my07EA+XFB0JsOBQYDlCpNR+VEqE8RzACjWCXlolgti2EbiqX3zxhRyvX7++tGoVWA9pKADHs22bs3f/ZmO6K3TR56upU+um8vU514JV3P1CH3iI1lWqTSmNmhNFOWMEGRlZtPfgMTp3wRl7AZ1aN6M6d96hTzE3k+bNm8uLF3Ek9JThAkde0pAhQ2TaBC5kxIyQNqHcTFcgYBAfZU1BRCBomDZaFQ8+6LxBolfRFVhCABc/3pCRFxAEZUnBJXON56F309irqahQ4epTJxBoWEXKioPYQnwhICiw1vD7cTyw5vD7XHEVdUx7EnpYujjHAPtCTy6ECwUxQBVDw7k09rjeTEwlYkdPnKVf/viTnulcyDdMiEYeKP4IFtmRQnQu9jL1fnUKDZ80n3oOfos+W/mDnN/1sQf5YXAfARc74kXR0dEy3oWgtrqgbr/9dvkwNwLhCEIjtoX4jTFRExc7Uh4gKupNFbjwIXiuF7Vyzdw9NmS0TJAXlhcIgCO9ASAGp4LqCginu5ir0cKD0MH6g9sIHn/8cWkF/frrrzkKBBfxLrinwJOQ5wfcRLXuX3/9JVNbEDdDQRzM2BEA11V1VtxMTCViH/33e3q4mXABy0brcwqHarZT319Kf7v7Tlr72XT6aOYoWvDZd3TkxBl9afHHnplGWWmJeRZPuKtrLPbMdL1m4UGsSokNgvSwzoYNG5adVwXXCr2MH3/8sQx4ozcNeVEIhCOpFbljsHKUJeaJY8eOyaGK/xh54IEHsl1AHINyvVzBxf2Pf/wjW6R69+4th0bQw6c6CoygJxXgtyJpFxansgBhJd19991077335iiw1uDu5dfZkBdI+FW5YXg9UcuWLaVVaiyYB5cb4Nh9IWfMNCJ2LjaOtuzYQ317tNPnFAXOC+L4qbPU8n5n4LjKbRWpbOlSdOyvs3K6uBPgb6HMuH10cf8Kt+X0b0sp/uR2vXZusAx13K2Lkhm3l0KCiqaZQVwgDriYIE6wUFRwHqkKcKVgseGVOrCCEMhGEBuvq0ZCK1ylgoiYengZougKLCP0GgJYcsjGx7bh9gFYV1u3bpVxNVhGAIm2cHddgbuGoLzR4oN1g5QIALFUgtm9e3c5xIse8ZuMvwG9m7AyURdPE1wr6O1UqSx4rRFigjiPxoJ5EG4VG1yyZMk1W31FhjiAXPhisuvnX2/Qug2YqCUkpWixl+K1+ITkAj2cnWWzacJdlImxCqz3RN9/aH/sPyKnp7z/H+2FUTO0M+cvad/+8LP2cPdhch+Mbz0AvmnTJlwt2cmWSFRFcivmoQjR0TZs2KAJS0Zr0KCBJiw3bejQoZqwMGR9IKwYTYiQHE9KStKEK6oJN08T1pycJwRPJo9WrVpVu3LlipznjlGjRmXvF6Vy5cqasAy1evXqaUJIs+cLq0U7cSJnMnaTJk1yrIt1+vXrp7Vr1y7HA+XCtdPXcCa6Ciswe5kQcm3kyJEy4TYqKkrOQxKseuBcWKLZSbRvv/22nKcQgqsJq00uw/kDQhSzty8s0BznzB1I3kVd4eZqBw8elPM42TUfGt9bWz6M3anfeOr8wgR6esjb+T6cfV5Yb32Hv0Nd+0+kLi9OkM9ZGsHZBkOff5IqVShDHZ8dSwuWfEfTx/WnsjE54xfMzQeBccSz0GMH90nlfOF5RVhjyG0SF5e0fOAK4v1hiKOpQDniYu4e6YHbBgsL9dE5ABcQKRjqeUF3IM0BVs8ttzgfZYNrBQsMlhKsJKRgICgOdwsxO3dUqVJFxtiwzqJFi6QFCEsOv3HSpEnSolQgHQPxKnRuAOSDIYkXlhDcZGwLeWKqJxK/Qbmyrq/PEde9zEMDqiMAeWcquRbnz9i54A48/gWwHRwDMPZ03sj3qpnq9dTpGZnipGfSybOxNOzNefTVwkl5fnLtxVEz6a5qt9JLfR6nH3/6jWYvWk7LF0yk8LAQ6izE8I0RfejuWs5kRNDrlSnUp1sbeqRZA30O40uvp8aFgbQCBLIRu0EipgKihtwuuGMQIpXQCRCgnj59Ov3rX/+S25g7dy4NHDhQunF49z5cQfS8IVCP7aD3E2+CRW9ffqg4khJIiA1SP/Auf9fUBgV+A3oW8Vwn3DPsd+PGjTKtA7GvLl26uHVlAY4fPbCIm+F3IU6I5z4hmEbhwWu7kY4CQYWwI5anQK8pBFj9fuwPx4ObAX4zUjwQZ8sLuPXoRIDoQkCfffZZ+XeBqwlJQfIw4mdFRZ6aBBFzxRzPTo7WklPS9Dm5SRHLHuryqnbs5Fk5bbPZtVY9Rmh/HDgqp+FO7tbdScVTg9/S1m/5RZ9igC+5k0AIkXRX4ILBLcoLuGB4PrB8+fJynZiYGPksJeYDcaFrpUuXlstQ8HwlXC9hUcjl1wvlTtavX/+676u4UOyenXSCduCZUGGhVb39Fvp67c/y+ccff/pVuA1Ed1TOw0wWy8U50ScYXwSvuIFlARcM1pZ6BtII3CikBqBHEo/kIKEVvYOwlpDkCmsJINAPiwJZ7HjHPvKtMHSXu3W9UC4fc+2YWMTyZ9KI52jn7wep6d8H06wFX9CkkX0pIjzUrVCdOhNLx06clV9GYnwXZL4jhQIxMLhgcKXQQ4jHcvD40NSpU+nhhx+WHwBB7yDcKMS6sNyYfoDkUbiYAPEtYYFlpw5cb+CyGodM4TCniAmTyuHQhC2Wt9V0S4UyNG/Kq4QHxedOflV+9Ugh74D66mfOX6I+w6bR051bUeN7ajpnMj4LXlyIOBRiV7ghISiO70jCMoOlhaA3Aut4JAnjEDUjiD0hbobETVhr6jGfGwXeNoHPy+Fpg4LE3Zi8MeUZLBMdKfXnxKn8P3oaIgQMr9T5fZ/zUQpFqahwOR9Mn/s53f+32jS4j/O5MMb3wWM8yM+CtYVsfXz56LnnnpPuI3oDEQD/5ptvZO4THhBHDx5e6IdHZRBwRk8f3Eh0BhTkQe6iBM9qIg8LSbg30nUtrpj247lLlq+T35mcMOxZ+WZXWGYK3N3KxERSoP7eph3CpXxp3GzpXrZt6ewxSklNp+CgQNGIrDRgzLvU9qGGVLZMNB0/ea7wjzUVI3z947nuwDONEAr1Ohk87IxnJJHIiR45AOsMPXRI02B8n2L58dxeT7am3l3a0KT3PqXer06l54ZPzy5tnh5Fv+65annBRZwz6WV6febHtPeg81m2aXOX0l+ndUtOuKcQvmMnztBuF4uNIUpPSaTE2KNuS0Zq/m9yuNHg9dWIg33yySfy9TFIQ0A6AvK+VCoFHk9iASsemNoh79bxIVq5cKL82vfKhW/K8u3Hb9Nd1W+VHxMxcn+D2lSz+m10/NQ5OV3l1grS1TQC0165mMxValWJpooBf7ktdas5vybka+CxGPRkIqcKiahwODDEI0iInam3qzLmx/RRRQgPkldVgYsYID8dpR7vvgrqWvRA6iPNG1B0Kec7lRjPwE1csXA8fbXYfcEyX3IlmZKH6UXMG4zBv5GT5tOR47nfIMAwjLkoUSJm5IPJr9Jd1W6T4/joCArDMOajWIpYZlaWEKXcmdB2vARPn7/ky3XyAXEQHi7c0OBA+ZyZzZb3a1oYhvEtiqWItWxyD1UslzvgPKTvE9Twbudn2e6pU13G0MAbQ3vTw80bUIv76lPvrrk/GMIwjO9i2jwxhmFKDsUyT4xhGAawiDEMY2pYxBiGMTUsYgzDmBoWMYZhTI1XItZl7GJ69OWrn4Sa899N1Oi5GfTXOWe+1Teb91C5tmPlEFxJTpPL31y0Rk4D3sb130ZxgP/GJXcb3uKViGEnURHO3CqFccdqmbEOfoQR3sb13QYaBIrZ8cVzq+BtXN9teItXeWI4mFLhOXfO+Bbqjha7ZrI+x5xs+u2IbGv1a1TS5zAlmSLLE4MJCFOR8V12fjRCFrPT9bXF0u1gSga4ae0+fEaf8g6vRKxXu0b0j778WI6vc3tF33zHlzes/+dLNP45bmslhcLctPixo2IGu2GMGYEVhtK7vfsPDvNjRyWI4uKGuQaDmeINbrqeBCw/CpViwfgexcUN4/hryaIwN61Cp1gwvkVh7mi+BMdfSxaFuWlxTKyYwWkwnlm3bh1t2bKFjh49KqfxMZFq1apR+/bt6d5775XzzAC+tfnOO+9QnTp1aNy4cfrcouXixYs0evRo+ZVynKNJkybpS67uH+dv8eKiCV2o3MYh3R6UQ1d8KiaGT9C/9NJL9NRTT1Hfvn1p1qxZ8oTdCLA/lLzA5+xxbPhDXS9wDrAPlK1bt+pznSxdulTOx3FcC+yGuQftDOddCRjABbpv3z5ascJ3b9iqPeDYbyQ//PCDPD8QKpwz4/WQkpIih1heVEC8PAlYfnglYoXNBkdDwt0wPj5eTuMk7Nq1S36S/mYAQUMDudFs3rxZNg6Az+wbycjIkMNrbSDFxQ0ryvgr2hzaGWjdujXNnj1bfgF84sSJclr9LXwR1R6MwGrE8V8vKwzgfOG8dOrUSU5v27ZNDn0Rr9zJwmSD43Pyy5Ytk+MdO3aknj17SgtMCVifPn3k8EaiBAwN4kaBCwp3VZwDWGEQdFxUZcuWlcuxDHVcTfiSBtoa8t2+nJy35VwQYNXC4oJg5dXO0B6//PJL2rlzp7yJREdHU/PmzWVbBWgv+Lug4EaEOnDpXnzxxey/Hywn9XeFCDRq1Ii6dOkil48fP15aNd27d5fXA7aDdRcsWCDnqxuX2iauDbQFI4MGDZLDuXPnZrcRHBf2NW3atOzjgLej2hbI63e5cvjwYZowYQI1bNhQtlOMYx18MR3g92H/oKiuHdy0EpLSZMeUO4rMnSxMNjg+LQ9wYtTJwwlHo1INC40I1pqykDCcN29etrsJkxYNAcuMBRc+TizGUR/bwLhaX6Hqq3EFxrFdoLaP7WG7GDea8mh8mKe2i3rDhw+X81BwwaAReMJ4HtAIgfrcPnMVtLOiEDCgXMjq1avLofq7Gv9mYMmSJTJmpsQEIvDtt9/mEBJsC9OqDsQRrhdA20B9o6eB7UFAjOBmjmUohw4dkttQ2wOYdl0nLyB6WF+1I1wnOIaKFSvKa6wgv8uIslrRPmvUqCG3g3WuZ4ilMJ2GXsfErjUbXJ1AfGLeE1OnTpUnUNXFECcffwSwcOHC7AbpCdRXfwS1/rWe/Pr168sh7mAKJUL4A0OscEc6d875VXGABjh//nx9KjdYH3c1NA51LtQ2iwJOg8mNak+ewHLcKJULBTcTFgasEGD8+wPMx/IWLVrI6f3798shrDOAmzKWjxw5Uk67ro/1sHzIkCFUvnx5aZkpF1ft8+zZs3I7sB4BhlgOC8oV13akXD/cKL35XQp1/TRt2lQOsR2wceNGObweFOam5ZWIFeb5ptTUVH3MPbgrQAxwgauTrSw0dVJxN8ByLEMdgLuQqgfwx4LJjUahLJ3du3fLoRFsQ4Fxd64bYg/Yn7oLoUFApLAPNCp1B1aNEvtEffwOd8Kp7uCq0al4DLaZl/XmDcUlDaYo38ah2sGRI0fkUImMEggAiwjg7wP3CRYarBV3KE+iXr16cqhQNzNl6aEHzx1qPVhJpUqVkjfmN954I8995gXERrUjtFElZq1atfLqdwG0W/U7XnnllRz1i/JmW5R4JWKFyQYPDQ2VQ0+WFO48ADEEWCnA2MiAEhScWPxBQKVKOR+vwTTuVmggqvEWBhwPwN1NmetqnjpmWHs4JvzRcXyeUHc+VR9FWQlKqAtLUbphN5Ml3++ktxav1acKR+3ateUQNxHErFR4Ii3taoIlLCJgtFhUKWgAHe0TKJFUJa80BHgZ+NsrS0tZSa7ExTlfVaOO3Qjauroxwg1FG8TNHfO9/V15BfDRVj25oIWlMDctr0SsMNngqiHhAkZDAviDYBx3LtUAcKErqwQxBoA/gBqqcQAzt0OHDvrUtYP9uWscoFmzZnKIu5C6EzVp0kQO1TErS8xYXPOOsH3cKT1RVCJWXChM/NUVWE6I6wBYFcrCQFtU4MaJm57RYlEFcc+CoG5urjE3Y0zVE4iToa6rlaTaGNoHlivLyhUlYuo3qWlvf5dq466Cp1zn62WNFeam5ZWIFSYbHKatsSHhJKIxqT+aMolxF1EnW/VmPvDAA/KEw8xFQ1EndtiwYfJuc62oBoL9zZkzR467YgxsQoSwjhKoxo2d58JoWaGoTgIjyoqD8Bobh+o9wm8rCpeyKN2wm01Rvo1j5syZMvak2iBAe4PF0qaN88aMGBX+PsYbZUFQ9VUMS7WrggDLS3kM2I4SCwWuC+PysLAwOe6Kcb+op+JZoKC/C64k2jn2p7whhbpxQ0zVMeS3PW8ozE3rhr4UEdYIzGe4lDhZOAm4Y/Tq1UuKEU7i6tWrsy0W/FEgWirmhV5AXOxoiMo9xQnHcoicsdsZ4A4I8xcNBXdjCAyAeABYeii4S+GPDFFU3eCIq6kgKuooQUVjUccDsP21a9dmxxGA8RgUqpvfuF2FMQUgKChICjsurmvJA+KXIjLFkbxSLG5YnlhhUUICsVEWEMQDgoM7rErKY5zBfbO/UwxPHaCD4vAXua1apviR302ryPLEbmY2OCw3AHMWFheK6iSIiYmRQ8YJvxSRMRsl4qWIyhVFYFH16MGtRDwDbhjjhN0wxowU5qWI/BaLYkZxccP4bRyMkSJzJzkb3PfhlyIyZoRfishkwy9FZMxIYW5aXomYygZHHpLqqQS+8uVg3kbObZgZ9X4p/puXjG0U5qbllYgZUQcLlHVmtNJw0EZQ39WK421c320UB27EeeJt3PxtFOaliBzYZxjG5ymywD7DMIyvwSLGMIypYRFjGMbUsIgxDGNqPAb2GYZhfAmvHjtiGIYxC+xOMgxjaljEGIYxNSxiDMOYGhYxhmFMDNH/A/1mBf2EfqRjAAAAAElFTkSuQmCC;" vertex="1" parent="1">
          <mxGeometry x="500" y="90" width="231.17" height="119" as="geometry" />
        </mxCell>
        <mxCell id="IPrCYm6E3xCLuTnceemR-46" value="" style="endArrow=classic;startArrow=classic;html=1;rounded=0;" edge="1" parent="1">
          <mxGeometry width="50" height="50" relative="1" as="geometry">
            <mxPoint x="100" y="365" as="sourcePoint" />
            <mxPoint x="140" y="365" as="targetPoint" />
          </mxGeometry>
        </mxCell>
        <mxCell id="IPrCYm6E3xCLuTnceemR-47" style="edgeStyle=orthogonalEdgeStyle;rounded=1;orthogonalLoop=1;jettySize=auto;html=1;flowAnimation=1;entryX=0;entryY=0.75;entryDx=0;entryDy=0;strokeWidth=2;exitX=0.5;exitY=0;exitDx=0;exitDy=0;" edge="1" parent="1" source="HBNp4rY9nTRqI35zbJ0y-6" target="IPrCYm6E3xCLuTnceemR-44">
          <mxGeometry relative="1" as="geometry">
            <mxPoint x="358" y="320" as="sourcePoint" />
            <mxPoint x="333" y="330" as="targetPoint" />
            <Array as="points">
              <mxPoint x="390" y="320" />
              <mxPoint x="390" y="179" />
            </Array>
          </mxGeometry>
        </mxCell>
        <mxCell id="IPrCYm6E3xCLuTnceemR-48" style="edgeStyle=orthogonalEdgeStyle;rounded=1;orthogonalLoop=1;jettySize=auto;html=1;flowAnimation=1;exitX=1;exitY=0.083;exitDx=0;exitDy=0;exitPerimeter=0;entryX=0.5;entryY=0;entryDx=0;entryDy=0;strokeWidth=2;" edge="1" parent="1" source="HBNp4rY9nTRqI35zbJ0y-6" target="OuTpp7gKNCbVnQCvF9Cy-7">
          <mxGeometry relative="1" as="geometry">
            <mxPoint x="357" y="327" as="sourcePoint" />
            <mxPoint x="410" y="230" as="targetPoint" />
          </mxGeometry>
        </mxCell>
        <mxCell id="IPrCYm6E3xCLuTnceemR-52" style="edgeStyle=orthogonalEdgeStyle;rounded=0;orthogonalLoop=1;jettySize=auto;html=1;flowAnimation=1;exitX=0.069;exitY=-0.037;exitDx=0;exitDy=0;exitPerimeter=0;fillColor=#f8cecc;strokeColor=#b85450;strokeWidth=2;" edge="1" parent="1" source="HBNp4rY9nTRqI35zbJ0y-6" target="HBNp4rY9nTRqI35zbJ0y-1">
          <mxGeometry relative="1" as="geometry">
            <mxPoint x="300" y="230" as="sourcePoint" />
            <mxPoint x="270" y="230" as="targetPoint" />
            <Array as="points">
              <mxPoint x="270" y="250" />
              <mxPoint x="270" y="250" />
            </Array>
          </mxGeometry>
        </mxCell>
        <mxCell id="IPrCYm6E3xCLuTnceemR-53" style="edgeStyle=orthogonalEdgeStyle;orthogonalLoop=1;jettySize=auto;html=1;flowAnimation=1;entryX=0.25;entryY=0;entryDx=0;entryDy=0;fillColor=#60a917;strokeColor=#2D7600;rounded=1;strokeWidth=2;" edge="1" parent="1" source="HBNp4rY9nTRqI35zbJ0y-1" target="HBNp4rY9nTRqI35zbJ0y-6">
          <mxGeometry relative="1" as="geometry">
            <mxPoint x="280" y="326" as="sourcePoint" />
            <mxPoint x="280" y="240" as="targetPoint" />
            <Array as="points">
              <mxPoint x="310" y="280" />
              <mxPoint x="323" y="280" />
            </Array>
          </mxGeometry>
        </mxCell>
        <mxCell id="IPrCYm6E3xCLuTnceemR-57" value="" style="shape=flexArrow;endArrow=classic;startArrow=classic;html=1;rounded=0;exitX=0.5;exitY=0;exitDx=0;exitDy=0;entryX=0.665;entryY=1.023;entryDx=0;entryDy=0;entryPerimeter=0;fillColor=#eeeeee;strokeColor=#36393d;" edge="1" parent="1" source="OuTpp7gKNCbVnQCvF9Cy-4" target="HBNp4rY9nTRqI35zbJ0y-6">
          <mxGeometry width="100" height="100" relative="1" as="geometry">
            <mxPoint x="270" y="380" as="sourcePoint" />
            <mxPoint x="370" y="280" as="targetPoint" />
          </mxGeometry>
        </mxCell>
        <mxCell id="IPrCYm6E3xCLuTnceemR-60" style="edgeStyle=orthogonalEdgeStyle;rounded=0;orthogonalLoop=1;jettySize=auto;html=1;entryX=0.593;entryY=0.003;entryDx=0;entryDy=0;entryPerimeter=0;strokeWidth=2;flowAnimation=1;" edge="1" parent="1" source="IPrCYm6E3xCLuTnceemR-44" target="HBNp4rY9nTRqI35zbJ0y-6">
          <mxGeometry relative="1" as="geometry" />
        </mxCell>
        <mxCell id="IPrCYm6E3xCLuTnceemR-61" value="&lt;p style=&quot;language:en-IN;margin-top:6.0pt;margin-bottom:0pt;margin-left:0in;&#xa;text-align:right;direction:ltr;unicode-bidi:embed;mso-line-break-override:none;&#xa;word-break:normal;punctuation-wrap:hanging&quot;&gt;&lt;span style=&quot;font-size:10.0pt;&#xa;font-family:Calibri;mso-ascii-font-family:Calibri;mso-fareast-font-family:+mn-ea;&#xa;mso-bidi-font-family:+mn-cs;mso-ascii-theme-font:minor-latin;mso-fareast-theme-font:&#xa;minor-fareast;mso-bidi-theme-font:minor-bidi;color:black;mso-color-index:1;&#xa;mso-font-kerning:12.0pt;language:en-US;font-weight:bold;mso-style-textfill-type:&#xa;solid;mso-style-textfill-fill-themecolor:text1;mso-style-textfill-fill-color:&#xa;black;mso-style-textfill-fill-alpha:100.0%&quot;&gt;PDF to JSON Conversion&lt;/span&gt;&lt;/p&gt;" style="text;whiteSpace=wrap;html=1;" vertex="1" parent="1">
          <mxGeometry x="403" y="200" width="100" height="50" as="geometry" />
        </mxCell>
        <mxCell id="IPrCYm6E3xCLuTnceemR-62" value="&lt;p style=&quot;language:en-IN;margin-top:6.0pt;margin-bottom:0pt;margin-left:0in;&#xa;text-align:left;direction:ltr;unicode-bidi:embed;mso-line-break-override:none;&#xa;word-break:normal;punctuation-wrap:hanging&quot;&gt;&lt;span style=&quot;font-size:10.0pt;&#xa;font-family:Calibri;mso-ascii-font-family:Calibri;mso-fareast-font-family:+mn-ea;&#xa;mso-bidi-font-family:+mn-cs;mso-ascii-theme-font:minor-latin;mso-fareast-theme-font:&#xa;minor-fareast;mso-bidi-theme-font:minor-bidi;color:black;mso-color-index:1;&#xa;mso-font-kerning:12.0pt;language:en-US;font-weight:bold;mso-style-textfill-type:&#xa;solid;mso-style-textfill-fill-themecolor:text1;mso-style-textfill-fill-color:&#xa;black;mso-style-textfill-fill-alpha:100.0%&quot;&gt;Email Generation&lt;/span&gt;&lt;/p&gt;" style="text;whiteSpace=wrap;html=1;" vertex="1" parent="1">
          <mxGeometry x="551.04" y="346.5" width="140" height="50" as="geometry" />
        </mxCell>
        <mxCell id="IPrCYm6E3xCLuTnceemR-63" style="edgeStyle=orthogonalEdgeStyle;rounded=1;orthogonalLoop=1;jettySize=auto;html=1;flowAnimation=1;exitX=0.5;exitY=1;exitDx=0;exitDy=0;entryX=1;entryY=0.75;entryDx=0;entryDy=0;strokeWidth=2;" edge="1" parent="1" source="OuTpp7gKNCbVnQCvF9Cy-7" target="HBNp4rY9nTRqI35zbJ0y-6">
          <mxGeometry relative="1" as="geometry">
            <mxPoint x="550" y="340" as="sourcePoint" />
            <mxPoint x="763" y="343" as="targetPoint" />
          </mxGeometry>
        </mxCell>
        <mxCell id="IPrCYm6E3xCLuTnceemR-64" value="&lt;p style=&quot;language:en-IN;margin-top:6.0pt;margin-bottom:0pt;margin-left:0in;&lt;br/&gt;text-align:right;direction:ltr;unicode-bidi:embed;mso-line-break-override:none;&lt;br/&gt;word-break:normal;punctuation-wrap:hanging&quot;&gt;&lt;span style=&quot;font-size: 10pt; color: black;&quot;&gt;&lt;i style=&quot;&quot;&gt;(Inbound)&lt;/i&gt;&lt;b&gt;&amp;nbsp;&lt;/b&gt;&lt;/span&gt;&lt;/p&gt;&lt;p style=&quot;language:en-IN;margin-top:6.0pt;margin-bottom:0pt;margin-left:0in;&lt;br/&gt;text-align:right;direction:ltr;unicode-bidi:embed;mso-line-break-override:none;&lt;br/&gt;word-break:normal;punctuation-wrap:hanging&quot;&gt;&lt;span style=&quot;font-size:10.0pt;&lt;br/&gt;font-family:Calibri;mso-ascii-font-family:Calibri;mso-fareast-font-family:+mn-ea;&lt;br/&gt;mso-bidi-font-family:+mn-cs;mso-ascii-theme-font:minor-latin;mso-fareast-theme-font:&lt;br/&gt;minor-fareast;mso-bidi-theme-font:minor-bidi;color:black;mso-color-index:1;&lt;br/&gt;mso-font-kerning:12.0pt;language:en-US;font-weight:bold;mso-style-textfill-type:&lt;br/&gt;solid;mso-style-textfill-fill-themecolor:text1;mso-style-textfill-fill-color:&lt;br/&gt;black;mso-style-textfill-fill-alpha:100.0%&quot;&gt;Purchase Order Email&lt;/span&gt;&lt;/p&gt;" style="text;whiteSpace=wrap;html=1;verticalAlign=top;" vertex="1" parent="1">
          <mxGeometry x="204.8" y="43" width="120" height="60" as="geometry" />
        </mxCell>
        <mxCell id="IPrCYm6E3xCLuTnceemR-65" value="&lt;p style=&quot;language:en-IN;margin-top:6.0pt;margin-bottom:0pt;margin-left:0in;&lt;br/&gt;text-align:right;direction:ltr;unicode-bidi:embed;mso-line-break-override:none;&lt;br/&gt;word-break:normal;punctuation-wrap:hanging&quot;&gt;&lt;span style=&quot;font-size: 10pt; color: black;&quot;&gt;&lt;i style=&quot;&quot;&gt;(Outbound)&lt;/i&gt;&lt;b&gt;&amp;nbsp;&lt;/b&gt;&lt;/span&gt;&lt;/p&gt;&lt;p style=&quot;language:en-IN;margin-top:6.0pt;margin-bottom:0pt;margin-left:0in;&lt;br/&gt;text-align:right;direction:ltr;unicode-bidi:embed;mso-line-break-override:none;&lt;br/&gt;word-break:normal;punctuation-wrap:hanging&quot;&gt;&lt;span style=&quot;font-size:10.0pt;&lt;br/&gt;font-family:Calibri;mso-ascii-font-family:Calibri;mso-fareast-font-family:+mn-ea;&lt;br/&gt;mso-bidi-font-family:+mn-cs;mso-ascii-theme-font:minor-latin;mso-fareast-theme-font:&lt;br/&gt;minor-fareast;mso-bidi-theme-font:minor-bidi;color:black;mso-color-index:1;&lt;br/&gt;mso-font-kerning:12.0pt;language:en-US;font-weight:bold;mso-style-textfill-type:&lt;br/&gt;solid;mso-style-textfill-fill-themecolor:text1;mso-style-textfill-fill-color:&lt;br/&gt;black;mso-style-textfill-fill-alpha:100.0%&quot;&gt;Sales Order Email&lt;/span&gt;&lt;/p&gt;" style="text;whiteSpace=wrap;html=1;verticalAlign=top;" vertex="1" parent="1">
          <mxGeometry x="97" y="156.8" width="119" height="60" as="geometry" />
        </mxCell>
        <mxCell id="IPrCYm6E3xCLuTnceemR-66" value="&lt;b&gt;1&lt;/b&gt;" style="ellipse;whiteSpace=wrap;html=1;aspect=fixed;strokeWidth=2;fontFamily=Tahoma;spacingBottom=4;spacingRight=2;strokeColor=#0e8088;fillColor=#b0e3e6;" vertex="1" parent="1">
          <mxGeometry x="282.4" y="110" width="20" height="20" as="geometry" />
        </mxCell>
        <mxCell id="IPrCYm6E3xCLuTnceemR-67" value="2" style="ellipse;whiteSpace=wrap;html=1;aspect=fixed;strokeWidth=2;fontFamily=Tahoma;spacingBottom=4;spacingRight=2;strokeColor=#0e8088;fillColor=#b0e3e6;fontStyle=1" vertex="1" parent="1">
          <mxGeometry x="396" y="293" width="20" height="20" as="geometry" />
        </mxCell>
        <mxCell id="IPrCYm6E3xCLuTnceemR-69" value="3" style="ellipse;whiteSpace=wrap;html=1;aspect=fixed;strokeWidth=2;fontFamily=Tahoma;spacingBottom=4;spacingRight=2;strokeColor=#0e8088;fontStyle=1;fillColor=#b0e3e6;" vertex="1" parent="1">
          <mxGeometry x="551.04" y="340" width="20" height="20" as="geometry" />
        </mxCell>
        <mxCell id="IPrCYm6E3xCLuTnceemR-70" value="4" style="ellipse;whiteSpace=wrap;html=1;aspect=fixed;strokeWidth=2;fontFamily=Tahoma;spacingBottom=4;spacingRight=2;strokeColor=#0e8088;fillColor=#b0e3e6;fontStyle=1" vertex="1" parent="1">
          <mxGeometry x="405" y="448" width="20" height="20" as="geometry" />
        </mxCell>
        <mxCell id="IPrCYm6E3xCLuTnceemR-71" value="5" style="ellipse;whiteSpace=wrap;html=1;aspect=fixed;strokeWidth=2;fontFamily=Tahoma;spacingBottom=4;spacingRight=2;strokeColor=#0e8088;fontStyle=1;fillColor=#b0e3e6;" vertex="1" parent="1">
          <mxGeometry x="74" y="170" width="20" height="20" as="geometry" />
        </mxCell>
        <mxCell id="IPrCYm6E3xCLuTnceemR-72" value="&lt;span style=&quot;color: rgb(0, 0, 0); font-family: Helvetica; font-size: 9px; font-style: normal; font-variant-ligatures: normal; font-variant-caps: normal; font-weight: 400; letter-spacing: normal; orphans: 2; text-align: center; text-indent: 0px; text-transform: none; widows: 2; word-spacing: 0px; -webkit-text-stroke-width: 0px; background-color: rgb(251, 251, 251); text-decoration-thickness: initial; text-decoration-style: initial; text-decoration-color: initial; float: none; display: inline !important;&quot;&gt;Secure Tunnel (&lt;/span&gt;&lt;span style=&quot;color: rgb(0, 0, 0); font-family: Helvetica; font-size: 9px; font-style: normal; font-variant-ligatures: normal; font-variant-caps: normal; letter-spacing: normal; orphans: 2; text-align: center; text-indent: 0px; text-transform: none; widows: 2; word-spacing: 0px; -webkit-text-stroke-width: 0px; background-color: rgb(251, 251, 251); text-decoration-thickness: initial; text-decoration-style: initial; text-decoration-color: initial; float: none; display: inline !important;&quot;&gt;&lt;b&gt;SCC)&lt;/b&gt;&lt;/span&gt;" style="text;whiteSpace=wrap;html=1;" vertex="1" parent="1">
          <mxGeometry x="450" y="468" width="90" height="40" as="geometry" />
        </mxCell>
      </root>
    </mxGraphModel>
  </diagram>
</mxfile>
